<?xml version="1.0" encoding="UTF-8"?>
<svg id="Layer_1" xmlns="http://www.w3.org/2000/svg" viewBox="0 0 1024 1024">
  <path d="M398.62,497.92c5.35-2.15,10.41-4.15,15.45-6.21,15.53-6.36,31.22-12.13,47.45-16.61,15.49-4.27,30.65-9.79,45.95-14.75,8.43-2.73,16.93-5.28,25.3-8.19,10.26-3.57,20.36-7.62,30.65-11.12,6.2-2.11,12.64-3.48,18.92-5.35,6.64-1.98,13.3-3.93,19.81-6.3,10.33-3.77,20.61-7.73,30.79-11.9,12.55-5.15,24.97-10.59,37.45-15.91,1.85-.79,3.77-1.46,5.55-2.39,2.45-1.28,4.93-2.27,4.79-6.1-.07-1.87,1.63-4.48,3.3-5.64,6.19-4.27,12.72-8.04,19.07-12.08,4.95-3.15,9.91-6.3,14.73-9.64,12.23-8.49,24.38-17.07,36.55-25.64,8.31-5.85,16.42-12.01,24.95-17.53,14.39-9.31,29.13-18.08,43.55-27.34,9.75-6.26,19.19-13,28.79-19.48,3.13-2.11,6.19-4.4,9.56-6.06,1.67-.82,4.01-.73,5.96-.44,10.03,1.48,20.05,3.09,30.04,4.81,5.74.99,11.99.56,16.11,6.22,2.32,3.19,2.09,7.06-1.22,9.22-5.83,3.82-11.52,7.88-17.49,11.48-7.73,4.66-15.66,9.01-23.55,13.42-19.7,11.01-39.09,22.48-57.18,36.07-10.26,7.7-20.74,15.12-31.23,22.5-13.84,9.75-27.71,19.47-41.82,28.82-1.68,1.11-4.97-.01-7.47-.41-.77-.12-1.59-1.15-2.03-1.96-3.08-5.6-7.71-5.79-13.18-4.26-3.35.94-6.9,1.18-10.36,1.73-5.75.9-7.35,3.21-8.47,9.02-1.37,7.07-3.38,14.04-5.53,20.93-1.99,6.37-4.95,12.45-6.71,18.88-3.08,11.27-5.34,22.76-8.36,34.04-3.25,12.18-6.93,24.24-10.51,36.33-2.94,9.91-5.9,19.81-9.05,29.66-3.18,9.94-6.65,19.8-9.89,29.73-.69,2.12-1.48,3.99,2.33,4.76,5.92,1.2,8.87,5.95,7.28,10.45-.93,2.61-2.43,5-3.64,7.51-5.82,12.15-11.83,24.21-17.39,36.48-5.83,12.86-11.1,25.97-16.86,38.85-3.4,7.61-7.3,15-10.94,22.51-1.34,2.77-3.03,5.48-3.69,8.42-.69,3.08-2.74,4.3-5.06,4.05-7.97-.87-14.06,3.33-20.33,6.96-5.57,3.22-10.68,7.3-16.45,10.07-2.7,1.3-7.12,1.58-9.55.2-2.83-1.6-1.87-5.39-.09-8.39,4.07-6.85,8.21-13.68,11.85-20.75,10.92-21.18,21.74-42.42,32.31-63.78,2.44-4.92,3.73-10.4,5.55-15.63-.43-.39-.87-.78-1.3-1.18-7.62,2.55-15.13,5.54-22.89,7.53-7.81,2.01-15.88,3.02-24.17,4.54.53.71.91,1.52,1.54,2.02,2.82,2.29,2.75,5.03,1.48,8.05-4.25,10.1-9.73,19.43-15.95,28.5-4.98,7.26-8.32,15.65-12.41,23.53-3.6,6.92-7.06,13.92-10.88,20.72-3.82,6.79-8.05,13.35-12,20.07-1.16,1.97-2.72,3.72.34,6.15,2.54,2.02,1.14,4.68-2.16,6.24-6.62,3.14-12.78,3.5-19.02-1.21-1.22-.92-4.21-.09-6.13.62-8.23,3.07-16.81,2.94-25.33,2.79-2.05-.04-5-1.8-5.81-3.56-.76-1.67.09-4.87,1.37-6.55,5.17-6.8,11.15-13.01,16.12-19.94,5.72-7.97,11.12-16.23,15.89-24.8,5.99-10.76,11.25-21.93,16.69-32.99.93-1.88,1.18-4.09,2.12-7.55-2.97.94-5,1.27-6.72,2.19-8.87,4.75-18.24,7.78-28.18,9.33-4.17.65-8.28,1.99-12.28,3.4-8.49,2.98-16.84,6.36-25.34,9.28-6.71,2.3-13.55,4.23-20.37,6.19-6.95,2-13.9,4.07-20.94,5.7-7.21,1.67-14.52,2.89-21.81,4.2-2.92.53-5.79-.1-6.75-3.17-.96-3.06.28-5.27,3.19-7.46,4.88-3.67,10.55-2.75,15.78-4.12,7.65-2,15.38-3.72,23.04-5.67,7.41-1.89,14.84-3.76,22.16-5.97,6.93-2.09,13.68-4.78,20.61-6.89,9.22-2.81,18.65-4.98,27.78-8.03,6.71-2.24,13.24-5.16,19.58-8.32,4.51-2.25,8.25-8.07,13.67-.6,1.85-4.96,3.28-9.21,5.06-13.3.45-1.03,1.93-2.18,3.03-2.28,5.8-.54,8.91,3.58,6.8,8.93-5.3,13.47-9.76,27.38-16.29,40.24-7.83,15.41-17.29,30.02-26.42,44.75-3.01,4.86-7.18,9.01-10.82,13.48-1.61,1.98-.76,3.67,1.31,3.75,4.79.19,9.6-.15,14.4-.43,1.17-.07,2.36-1.16,3.44-1.01,7.27.96,10.37-4.14,13.27-9.17,7.64-13.25,15.2-26.55,22.5-39.99,4.74-8.74,8.84-17.83,13.49-26.61,2.44-4.6,5.74-8.75,8.11-13.38,1.62-3.16,2.22-6.83,3.47-10.19.83-2.25,2.1-4.33,3-6.56.47-1.16,1.03-2.61.72-3.68-1.57-5.41-.01-7.7,5.75-7.61,16.77.25,31.84-5,45.68-14.09,3.46-2.27,6.05-5.72,11.04-4.99,5.09.74,7.67,5.45,5.6,10.07-2.33,5.21-3.88,10.77-5.91,16.13-2.56,6.77-4.78,13.74-8.01,20.19-7.36,14.68-15.36,29.04-22.85,43.66-2.81,5.49-4.91,11.34-7.29,17.05-.25.61-.16,1.37-.28,2.56,7-3.21,13.63-5.9,19.87-9.29,2.16-1.17,3.79-3.9,4.92-6.28,6.38-13.48,12.39-27.13,18.81-40.59,6.4-13.44,9.61-28.24,18.45-40.7,3.71-5.23,5.61-11.88,7.71-18.08,1.74-5.13-.48-8.29-5.6-9.5-4.05-.95-5.3-3.89-3.66-7.56,4.05-9.05,8.26-18.05,11.72-27.32,3.03-8.1,5.32-16.49,7.59-24.85,3.51-12.91,6.61-25.94,10.1-38.86,2.66-9.82,5.88-19.5,8.43-29.35,1.62-6.25,2.41-12.7,3.73-19.03.6-2.86,1.58-5.64,2.41-8.45.22-.75.78-1.52.71-2.23-.51-4.94,2.02-8.41,5-11.97,1.3-1.55,1.29-4.21,1.85-6.26-8.19,3.58-16.14,7.09-24.12,10.54-17.9,7.74-35.63,15.89-53.78,23-11.22,4.39-23.16,6.9-34.61,10.75-11.33,3.81-22.42,8.34-33.68,12.38-8.46,3.03-17.06,5.69-25.54,8.69-10.24,3.63-20.35,7.67-30.65,11.11-8.85,2.95-17.98,5.06-26.84,7.96-7.26,2.38-14.36,5.27-21.46,8.11-7.49,3.01-14.87,6.25-22.32,9.36-6.53,2.72-13.14,5.26-19.61,8.13-5.3,2.36-11.23-.9-10.42-6.82.74-5.44-.06-10.84,2.15-16.4,1.69-4.26.41-9.71.42-14.62.02-4.83-.05-9.66.06-14.49.02-.98.45-2.15,1.09-2.9,3.27-3.91,3.34-8.65,3.84-13.34.9-8.34,1.99-16.65,2.96-24.98.22-1.89.26-3.8.39-5.75-5.43-2.13-9.52.91-13.87,2.91-10.15,4.67-20.33,9.27-30.5,13.9-2.34,1.06-4.6,2.52-7.05,3.08-7.05,1.61-14.14,3.16-21.3,4.12-4.49.6-9.15.47-13.68.03-8.08-.78-15.49,2.06-23.15,3.58-3.32.66-6.72,1.37-10.07,1.28-2.96-.08-4.53-2.31-6.03-5.1-.97-1.81-4.79-1.89-6.93-3.34-1.13-.77-1.51-2.79-2-4.32-2.16-6.75-6.39-12.09-10.88-17.45-8.5-10.16-20.39-15.91-30.34-24.17-2.93-2.43-6.36-.19-8.81,1.93-8.95,7.75-13.04,17.95-14.39,29.47-.78,6.7-1.35,13.45-2.69,20.04-.52,2.58-2.45,5.26-4.49,7.04-3.43,3-5.36,6.51-5.12,10.87.63,11.41,1.52,22.81,2.39,34.21,1.06,13.8,2.1,27.6,3.36,41.38.86,9.42,2.02,18.82,3.19,28.21,1.61,13,3.62,25.96,4.95,38.98,1.44,14.05,2.23,28.17,3.43,42.25.27,3.21.77,6.45,1.65,9.54,1.24,4.35-.63,7.62-2.54,11.27-4.93,9.42-9.04,19.28-14.14,28.59-8.32,15.21-17.24,30.09-25.76,45.19-2.24,3.98-4.27,8.14-5.8,12.43-1.48,4.15,2.88,4.55,4.82,4.71,8.86.71,17.79,1.18,26.65.75,2.38-.11,5.77-3.24,6.67-5.72,3.36-9.33,9.73-16.63,14.86-24.8,4.81-7.66,7.79-16.45,11.74-24.67,1.65-3.44,3.94-6.57,5.59-10.01,1.66-3.47,2.58-7.33,4.43-10.68,1.16-2.11,3.15-4.38,5.29-5.15,1.62-.59,4.27.73,6.07,1.84,1.37.85,2.12,2.7,3.69,4.87,3.72-1.18,7.84-2.62,12.05-3.78,6.2-1.7,12.45-3.27,18.71-4.74,1.57-.37,3.31-.33,4.91-.11,5.07.7,10.16,1.34,15.14,2.46,4.19.94,5.12-2.73,7.65-4.71.66.39,1.34,1.02,2.15,1.24,6.36,1.72,7.38,4.78,4.14,10.55-8.13,14.43-15.7,29.18-24.13,43.43-4.51,7.62-10.39,14.42-15.48,21.71-2.21,3.16-4.17,6.54-5.84,10.02-.35.73.92,3.23,1.68,3.34,4.32.63,8.7.85,13.07,1.07,2.32.11,4.68-.26,6.99-.07,4.58.38,9.13,1.08,13.7,1.5,3.77.34,5.16-3,6.52-5.31,3.89-6.61,7.14-13.59,10.78-20.35,1.32-2.45,3.1-4.65,4.55-7.04,6-9.87,12.14-19.67,17.85-29.71,2.7-4.74,4.4-10.04,6.92-14.89.44-.85,3.39-1.52,4.05-.95,6.1,5.2,8.51,8.02,3.08,16.29-7.17,10.92-13.82,22.18-20.56,33.37-6.43,10.67-12.67,21.46-19.03,32.17-1.17,1.97-2.54,3.81-3.79,5.73-1.97,3.01-4.86,2.81-7.65,1.88-8.11-2.73-16.23-3.29-24.79-2.22-7.94,1-16.02.17-23.76-2.35-4.05-1.32-4.97-3.57-3.46-7.47.57-1.48.92-3.09,1.13-4.67.96-7.26,5.45-12.31,9.97-17.69,5.41-6.44,10.16-13.53,14.46-20.78,5.5-9.27,10.3-18.96,15.3-28.52,2.66-5.08,1.2-7.1-4.5-7.46-13.97-.88-27.15,2.07-39.94,7.46-1.2.5-3.06.69-4.08.1-3.26-1.86-4.71-.3-6,2.4-3.57,7.48-6.91,15.09-10.89,22.35-3.73,6.8-8.33,13.12-12.22,19.85-4.72,8.16-9.03,16.56-13.65,24.78-3.88,6.89-4.62,7.88-12.18,5.31-1.25-.42-2.65-.49-3.99-.53-9.03-.31-18.09-.19-27.07-1-4.71-.43-9.32-2.35-13.89-3.85-2.89-.95-3.39-2.98-1.9-5.71,4.32-7.87,8.39-15.87,12.81-23.68,3.57-6.31,7.83-12.23,11.22-18.63,7.48-14.12,14.6-28.43,21.86-42.67.92-1.8,1.72-3.67,2.61-5.49,1.21-2.48,1.59-4.32-.25-7.26-1.73-2.78-1.15-7.06-1.36-10.69-.27-4.53-.28-9.08-.46-13.61-.03-.79-.45-1.57-.48-2.36-.31-7.64-.27-15.31-.92-22.93-.87-10.23-2.25-20.42-3.44-30.62-.72-6.18-1.76-12.34-2.21-18.53-1-13.58-1.35-27.21-2.64-40.76-1.54-16.23-4.47-32.32-4.08-48.72.12-4.91-.79-9.85-.63-14.76.08-2.38,1.18-4.91,2.41-7.03,2.68-4.59,3.7-10.1,8.51-13.61,1.43-1.05,1-4.73,1.31-7.21,1.62-12.91,3.55-25.83,11.59-36.57,5.36-7.16,11.88-13.25,21.69-13.54,5.2-.15,9.1,2.81,12.9,5.89,6.73,5.47,13.82,10.54,20.15,16.44,8.87,8.27,16.22,17.74,19.96,29.61,1.23,3.91,4.04,5.22,8.03,4.37,7.77-1.65,15.48-3.58,23.3-4.89,3.57-.6,7.35.19,11.02.03,4.66-.21,9.34-.46,13.93-1.2,4.78-.77,9.51-1.97,14.17-3.3,5.54-1.58,11.22-2.98,16.42-5.38,9.26-4.27,17.92-9.98,27.39-13.61,5.13-1.97,11.48-1.48,17.18-1,3.69.31,5.7,6.9,4.78,10.87-1.56,6.78-2.73,13.66-3.85,20.54-.97,5.98-1.63,12.02-2.42,18.03-.07.54-.23,1.16-.06,1.64,3.08,8.77-1.31,16.79-2.29,25.17-.56,4.74.55,9.68.95,15.14ZM717.07,381.49c1.66.27,2.68.62,3.69.58,7.08-.24,14.16-.55,21.25-.87.94-.04,2.02.02,2.79-.41,6.39-3.52,12.92-6.83,19.01-10.82,7.89-5.16,15.4-10.9,23.1-16.36,8.42-5.98,16.8-12.02,25.32-17.85,7.96-5.44,15.89-10.98,24.19-15.87,15.66-9.23,31.61-17.98,47.36-27.07,2.97-1.72,5.57-4.1,9.08-6.73-3.45-.58-5.43-1.11-7.43-1.21-5.11-.26-10.69-1.7-15.25-.18-7.92,2.63-15.47,6.69-22.7,10.96-11.33,6.71-22.23,14.13-33.35,21.18-12.92,8.19-26.04,16.08-38.8,24.52-10.49,6.94-20.51,14.57-30.86,21.73-8.73,6.04-17.62,11.84-27.4,18.38Z"/>
  <path d="M243.19,576.66c6.77.06,11.73-2.66,16.34-6.74,8.72-7.71,13.84-17.4,17.08-28.41.6-2.04,3.25-5.06,4.72-4.93,2.67.23,5.67,2.01,7.57,4.04,1.93,2.07,2.31,5.06-.35,7.64-6.68,6.48-3.43,13.37-.42,20.08,1.03,2.31,2.39,4.57,4.03,6.48,3.18,3.71,5.61,3.73,9.13.23,1.97-1.96,3.73-3.54,6.71-1.8,2.9,1.7,5.24,3.69,4.4,7.39-.3,1.32-1.19,3.13-2.27,3.55-5.33,2.1-10.73,4.21-16.28,5.54-5.85,1.41-9.22-2.76-11.75-7.13-2.33-4.03-3.98-8.44-5.94-12.69l-1.62-.92c-2.24,2.72-4.23,5.72-6.77,8.12-7.51,7.12-16.23,11.57-26.92,11.07-6.25-.29-11.78-2.23-14.94-7.99-.94-1.71-1.12-4.31-.63-6.24.93-3.66,9.1-8.04,12.76-7.11,4.86,1.23,5.42,5.12,5.15,9.8Z"/>
  <path d="M220.54,452.94c-6.94,0-6.79-.26-7.98-5.56-2-8.88-4.57-17.63-6.75-26.47-.44-1.79-.74-3.87-.27-5.58,1.28-4.65,6.39-5.31,10.48-1.42,3.23,3.06,6.05,6.63,9.57,9.3,2.31,1.76,5.66,2.08,8.31,3.49,2.4,1.27,6.27,3.05,6.35,4.76.19,3.78-.46,8.7-2.82,11.26-3.7,4.01-9.04,6.55-13.81,9.51-1.17.73-2.83.67-3.07.72Z"/>
  <path d="M225.87,504.41c.02-6.89,5.25-12.26,13.01-15.24,9.7-3.72,20.54,6.85,17.7,15.91-2.18,6.94-7.57,11.2-14.7,9.93-2.54-.45-5.28.19-7.82-.29-5.57-1.06-8.21-4.6-8.2-10.31Z"/>
  <path d="M365.72,462.2c-4.65-1.34-9.33-1.09-9.86-6.67-.06-.59-.64-1.14-1.03-1.67-1.16-1.64-3.63-3.66-3.27-4.8.88-2.77,2.84-5.31,4.8-7.57,1.87-2.16,4.49-3.67,6.39-5.8,1.48-1.66,2.65-2,4.99-1.87,9.18.51,11.59,6.85,13.17,14.12,1.25,5.75.98,5.8-4.71,7.54-2.16.66-3.94,2.55-5.92,3.84-1.71,1.12-3.46,2.19-4.57,2.9Z"/>
  <path d="M325.32,519.74c-4.26.09-8.15-.38-11.47-3.77-2.21-2.25-3.99-4.62-2.83-7.42,1.25-3.03,2.26-6.97,6.55-7.4,3.83-.39,7.91-1.29,11.5-.42,5.35,1.29,8.91,6.91,8.1,10.77-1.04,4.96-5.76,8.25-11.86,8.25Z"/>
</svg>