<?xml version="1.0" encoding="UTF-8"?>
<svg id="Layer_1" xmlns="http://www.w3.org/2000/svg" viewBox="0 0 1024 1024">
  <path d="M621.44,706.2c-2.33,2.09-5.21,4.93-8.37,7.42-4.02,3.16-8.32,5.96-12.41,9.03-3.73,2.8-8.52,5.03-10.78,8.76-5.33,8.8-13.44,14.47-20.56,21.35-7.55,7.3-16.33,12.33-25.12,17.7-4.68,2.85-8.25,3.3-13.69,2.39-5.7-.96-12.01,1.62-18.04,2.71-2.78.5-5.51,1.44-8.31,1.64-8.16.57-16.39,1.59-24.51,1.1-10.95-.66-21.83-2.59-32.74-3.94-5.8-.72-11.6-1.49-17.41-2.05-14.26-1.36-25.23-9.36-36.07-17.67-6.97-5.35-14.36-10.24-20.88-16.08-7.37-6.6-13.98-14.03-20.92-21.1-.82-.84-1.6-2.25-2.53-2.37-10.3-1.41-20.61-3.38-30.96-3.64-9.57-.24-19.22,2.27-28.78,2-8.68-.25-17.55-1.77-25.89-4.23-16.51-4.88-32.71-10.82-49.06-16.25-2.11-.7-4.42-.78-6.53-1.48-15.48-5.13-31.24-9.61-46.26-15.85-7.82-3.24-14.63-9.26-21.36-14.69-10.39-8.36-20.4-17.2-30.42-26.01-8.44-7.42-16.72-14.99-22.19-25.13-2.22-4.12-4.92-8.05-.22-11.86,3.26-2.64,11.51-.69,13.67,3.26,11.15,20.41,29.81,32.63,49.68,41.94,12.43,5.83,27.17,7.21,41.06,9.38,27.65,4.32,53.72-3.9,79.83-11.4,9.72-2.79,19.6-5.03,29.83-7.62,1.06-11.6-5.22-21.15-17.11-24.48-13.52-3.79-27.12-7.3-40.56-11.34-14.38-4.33-27.51-11.44-39.16-20.78-11.31-9.08-22.57-18.44-32.52-28.95-8.94-9.43-16.33-20.39-23.88-31.04-4.58-6.46-8.58-13.42-12.06-20.54-4.17-8.51-7.84-17.3-11.1-26.21-2.7-7.39-5.03-15.01-6.52-22.72-1.16-5.99-1.28-12.32-.93-18.44.34-5.89,5.39-8.08,10.3-8.89,4.45-.74,7.29,2.39,8,6.6,2.12,12.61,8.91,22.67,17.26,31.78,9.15,9.99,19.63,18.39,32.36,23.37,19.28,7.55,38.68,14.81,58.11,21.99,6.86,2.53,13.88,4.68,20.96,6.5,2.15.55,4.79-.41,7.11-1.02,1.55-.41,2.95-1.4,4.39-2.17,4.17-2.23,28.93.27,31.62,3.93,1.62,2.2,2.58,6.19,1.75,8.68-4.36,13.05-6.07,26.52-6.16,40.07-.14,20.4,5.69,39.58,12.4,58.79,8.93,25.57,20.86,49.37,36.13,71.6,6.23,9.08,11.82,18.82,19.27,26.79,7.98,8.54,17.73,15.45,26.88,22.86,4.44,3.6,9.22,6.77,13.91,10.05,9.27,6.47,20.29,6.92,30.87,8.57,11.3,1.76,22.69,3.38,34.09,3.88,13.16.57,26.53.99,38.93-5.12,1.23-.61,2.95-1.39,4.01-.98,10.74,4.23,18.86-1.93,26.53-7.38,7.83-5.56,14.67-12.54,21.81-19.05,1.63-1.48,3.24-3.37,3.94-5.39,2.49-7.1,7.67-11.2,14.09-14.51,13.22-6.81,23.02-17.6,31.7-29.26,12.06-16.21,24.52-32.28,34.86-49.58,10.28-17.19,18.96-35.35,24.73-54.9,5.37-18.19,9.16-36.24,8.64-55.31-.37-13.57.8-27.19.98-40.78.03-1.9-1.24-4.16-2.59-5.65-1.45-1.61-3.83-2.32-5.55-3.74-2.88-2.38-6.43-3.76-4.96-9.48.7-2.73-3.15-7.88-6.25-10.1-11.56-8.27-23.39-16.24-35.66-23.42-8.9-5.21-18.51-9.3-28.04-13.33-11.54-4.89-23.1-9.94-35.06-13.57-15.73-4.77-32.09-6.26-48.51-7.68-17.62-1.53-34.31.82-51.07,6.01-7.71,2.39-16.27,1.84-24.18,3.76-14.26,3.46-28.49,7.23-42.39,11.89-13.55,4.55-25.81,11.82-37.91,19.61-21.5,13.85-35.38,33.47-46.06,55.97-.52,1.11-.96,2.37-1.8,3.19-1.93,1.88-4.08,3.52-6.14,5.26-1.32-3.06-3.86-6.2-3.67-9.16.33-4.98,1.95-10.01,3.81-14.72,7.53-19.06,18.75-35.37,36.22-46.8,2.81-1.84,3.9-3.45.38-6.31-6.81-5.54-13.02-11.81-19.65-17.57-18.62-16.18-26.09-38.98-35.83-60.38-3.24-7.12-6.58-14.58-7.66-22.2-1.76-12.55-1.74-25.36-2.42-38.06-.13-2.41-.02-4.84-.02-8.25-11.82,6.41-17.12,15.91-20.01,27.06-3.4,13.14-7.71,26.18-9.55,39.55-1.73,12.54-1.43,25.45,2.05,38.01,3.94,14.23,7.39,28.59,11.16,42.86,1.14,4.31,2.62,8.54,3.99,12.78,3.31,10.23,6.31,20.57,10.08,30.63,2.76,7.36,6.55,14.33,9.83,21.5.73,1.6,1.25,3.3,1.84,4.89-5.07,3.17-13.14,1.05-15.98-3.97-7.74-13.67-13.99-27.84-17.53-43.3-2.67-11.66-6.87-22.96-10.21-34.47-3.54-12.19-8.12-24.26-9.94-36.72-1.75-12.03-2.17-24.74-.26-36.69,2.49-15.51,7.51-30.67,12.21-45.75,1.51-4.85,4.75-9.64,8.39-13.25,6.21-6.17,10.65-14.48,19.93-17.26,6.88-2.06,17.02-.56,18.64,6.54.99,4.33,1.19,8.89,1.35,13.36.22,6.22.42,12.49-.02,18.69-1,14.29,2.43,27.6,8.47,40.32,7.69,16.18,15.26,32.43,23.61,48.26,4.3,8.17,10.14,15.25,20.71,16.44,2.51.28,4.92,3.37,6.93,5.57,1.75,1.91,2.87,4.38,4.29,6.64,10.52-4.67,20.46-9.89,30.95-13.53,10.88-3.77,22.28-6.01,33.46-8.91.39-.1.91.1,1.23-.08,16.81-9.54,36.33-7.82,54.34-12.71,14.69-3.99,30.67-3.99,46.21-1.31,6.44,1.11,13.17.57,19.6,1.74,18.77,3.4,37.46,7.13,54.47,16.57,6.9,3.83,14.39,6.57,21.35,10.3,13.91,7.46,25.42,1.73,35.28-7.3,8.1-7.42,14.41-16.77,21.78-25.02,9.26-10.38,18.8-20.49,28.17-30.77,4.43-4.86,8.8-9.79,13.09-14.78,7.67-8.94,8.83-20.37,11.06-31.17,1.85-8.97,2.09-18.3,2.66-27.49.69-11.14.04-22.13-3.68-32.87-1.5-4.33-2.63-9.26-2.04-13.66.29-2.17,4.65-4.63,7.58-5.39,3.55-.93,7.43.15,8.79,4.51,1.86,5.98,3.25,12.11,5.37,17.99,2.53,7.03,5.01,14.2,8.57,20.73,11.29,20.71,16.79,43.09,20.35,66.14,3.59,23.2,1.75,45.88-7.66,67.43-6.02,13.8-13.3,26.91-25.89,36.43-15.07,11.39-29.55,23.57-44.33,35.34-1.41,1.13-3.73,1.46-4.61,2.82-.94,1.46-1.61,4.49-.79,5.46,6.19,7.23,5.04,15.71,4.84,24.11-.12,5.17-.02,10.34-.02,16.15,1.91,0,3.8.45,5.36-.07,20.01-6.68,41.05-10.85,59.19-22.2,18.28-11.45,36.75-22.83,53.74-36.03,10.32-8.01,15.25-20.98,18.61-33.75,3.99-15.18,3.68-30.6,1.48-46.03-.5-3.51,4.37-9.15,8.64-9.96,8.08-1.53,11.55,1.03,12.38,9.35,1.62,16.07,3.79,32.13,4.5,48.25.45,10.28-.77,20.73-2.21,30.96-1.92,13.67-5.06,27.16-7.16,40.81-3.13,20.26-11.97,38-24.57,53.65-8.71,10.82-18.31,21.26-28.99,30.09-12.47,10.3-26.06,19.31-42.18,23.87-9.26,2.62-17.84,7.64-27.07,10.42-5.74,1.73-12.14,1.32-18.25,1.78-6.21.46-12.48.43-18.63,1.32-5.01.72-9.9,2.36-14.78,3.78-5.5,1.61-16.85,17.36-14.76,22.29,2.03,4.78,6.18,9.42,10.59,12.3,19.09,12.48,39.51,21.8,62.85,22.71,12.34.48,24.68.78,37.01,1.29,6.55.27,13.1.84,19.65,1.2,20.93,1.12,41.1-3.57,61.31-7.97,5.95-1.29,11.9-2.61,17.84-3.94,15.96-3.56,27.53-14.48,40-23.87,8.16-6.15,15.85-12.48,21.02-21.85,4.01-7.26,13.45-8.1,19.72-2.54,1.9,1.69,3.25,6.19,2.39,8.48-9.52,25.38-18.82,51.39-37.99,71.13-17.25,17.76-36.4,33.73-59.58,44.17-17.9,8.07-36.22,8.49-55.08,6.38-8.74-.98-17.49-1.89-26.26-2.7-9.81-.91-19.64-1.7-29.46-2.47-11.31-.89-22.64-1.54-33.94-2.6-4.84-.45-9.87-.96-14.35-2.66-15.23-5.78-30.25-12.1-45.36-18.2-6.57-2.65-13.39-4.83-19.68-8.03-5.58-2.84-10.6-6.81-16.86-10.94ZM631.43,696.2c5.41,2.99,9.9,5.64,14.53,8.02,11.23,5.76,22.16,12.35,33.88,16.87,25.39,9.8,52.27,12.27,79.22,13.89,11.69.7,23.34,2.07,35.02,2.86,12.52.85,25.07,1.94,37.6,1.78,5.67-.07,11.53-2.35,16.91-4.59,25.4-10.61,46.06-27.47,62.73-49.2,3.07-4.01,4.83-9.02,7.2-13.56-.58-.34-1.16-.68-1.74-1.02-3.65,2.11-7.08,4.87-11,6.2-13.79,4.68-27.52,9.94-41.7,12.96-16.33,3.48-33.06,5.99-49.72,6.79-19.13.91-38.38-.46-57.57-.98-6.57-.18-13.19-.33-19.68-1.27-27.51-4.03-52.21-14.92-74.47-31.43-4.86-3.61-8.25-3.11-11.67,2.21-2.75,4.29-5.53,8.56-8.27,12.85-3.69,5.77-7.37,11.54-11.26,17.64ZM843.68,466.27c-.66-.27-1.31-.53-1.96-.8-3.8,2.99-7.41,6.26-11.44,8.91-15.81,10.41-31.49,21.06-47.74,30.73-9.92,5.9-20.51,11.03-31.35,14.96-13.29,4.81-27.23,7.8-40.77,11.99-4.71,1.46-8.89,3.28-9.75,9.99-1.85,14.47-4.95,28.78-7.83,43.1-1.32,6.57-3.33,13.01-5.28,20.48,4.8-.7,7.81-1.12,10.81-1.59,13.81-2.2,27.59-2.19,41.46-6.93,23.18-7.94,43.57-19.36,60.85-36.23,19.07-18.62,33.81-40.19,39.37-66.82,1.9-9.12,2.47-18.51,3.64-27.78ZM283.12,597.7c6.26.59,7.14-2.12,5.97-6.45-5.9-21.81-4.83-43.83-1.9-65.88.66-4.96-.71-6.54-5.59-5.18-8.88,2.48-17.72.85-26.12-1.3-11.13-2.85-21.87-7.26-32.72-11.18-14.1-5.1-28.38-9.83-42.13-15.75-9.81-4.23-18.8-10.32-28.33-15.24-2.22-1.15-5.14-.93-7.73-1.35.24,2.48-.15,5.24.82,7.4,17.55,39.46,44.99,70.5,80.41,94.95,11.73,8.09,24.64,12.25,38.26,15.15,6.75,1.44,13.4,3.38,19.06,4.83ZM690.14,457.27c3-1.62,5.76-2.62,7.93-4.36,11.5-9.2,23.03-18.38,34.18-28.01,5.76-4.97,11.62-10.25,15.87-16.46,11.65-17.03,18.81-35.54,17.85-56.91-.84-18.72-3.9-36.85-9.84-54.54-.42-1.26-1.73-2.22-2.63-3.32-1.07,1.16-2.71,2.16-3.1,3.52-1,3.5-1.25,7.2-2.15,10.73-2.2,8.6-2.78,18.32-7.36,25.44-6.99,10.86-16.7,19.98-25.43,29.69-5.99,6.66-12.41,12.93-18.37,19.61-12.25,13.73-21.2,30.7-39.32,38.61-4.49,1.96-3.79,5.88.73,8.23,12.53,6.51,25.22,12.87,31.64,27.76ZM162.31,665.7c5.35,2.22,9.49,4.3,13.84,5.69,26.27,8.43,52.61,16.64,78.89,25.05,13.63,4.37,27.32,6.42,41.64,3.7,12.2-2.31,24.54-4.92,36.67.94,1.16.56,3.2-.72,5.82-1.4-2.99-4.62-5.59-8.26-7.81-12.11-6.98-12.12-13.71-24.37-20.82-36.41-.98-1.66-3.71-3.54-5.37-3.32-8.65,1.14-17.35,2.41-25.75,4.66-6.39,1.71-12.16,6-18.57,7.31-13.68,2.8-27.23,6.89-41.56,5.54-13.13-1.23-26.31-2.03-39.48-2.55-5.37-.21-11.31-3.16-17.5,2.91Z"/>
  <path d="M480.52,672.48c-10.27-1.61-21.43-1.2-30.64-5.23-22.77-9.97-39.69-26.79-49.19-50.27-4.03-9.96-8.35-19.84-11.65-30.04-4.81-14.89-6.02-30,.15-45.01,2.46-5.99,7.03-9.47,12.91-11.36,10.88-3.49,21.55-5.79,33.51-4.26,12.34,1.58,25.28-1.78,37.69-.48,21.34,2.23,41.18-3.11,61.46-7.87,8.69-2.04,18.12-.87,27.22-1.15.2,0,.49-.04.61.08,2.32,2.31,4.62,4.64,6.93,6.97-2.91,1.78-5.82,5.09-8.71,5.06-12.85-.11-24.87,3.19-37.22,6.13-12.15,2.89-24.95,3.24-37.5,4.25-13.25,1.07-26.54,1.79-39.83,2.29-4.89.18-9.83-.75-14.75-1.1-12.62-.9-27.87,5.93-27.57,23.7.27,16.01,5.19,30.45,12,44.3,5.45,11.08,11.51,22.23,19.27,31.74,14.87,18.21,35.28,19.75,57.12,16.47,18.54-2.78,33.58-12.44,46.02-24.82,12.49-12.44,21.2-28.26,24.2-46.34,2.03-12.21,4.11-24.42,5.85-36.68.62-4.34.1-8.83.53-13.21.12-1.24,1.8-3.39,2.65-3.33,5.63.36,11.26,1.02,16.79,2.08.79.15,1.67,3.06,1.49,4.58-1.64,13.7-3.02,27.45-5.46,41.01-1.83,10.14-4.09,20.44-7.96,29.93-7.35,17.98-18.85,32.87-35.73,43.51-18.45,11.63-38.06,18.44-60.18,19.07Z"/>
  <path d="M362.67,471.93c10.29,0,15.02,3.3,15.33,10.69.52,12.45-6.09,17.48-15.39,18.92-6.55,1.01-14.36,1.6-18.27-6-1.38-2.69-1.69-6.58-.98-9.57,1.76-7.4,11.49-14.05,19.31-14.04Z"/>
  <path d="M576.23,435.3c-.04,4.58-4.97,9.27-9.6,9.11-5.13-.17-13.06-8.43-12.75-13.27.22-3.46,6.43-7.82,11.15-7.82,8.31,0,11.27,3.17,11.19,11.97Z"/>
</svg>