<?xml version="1.0" encoding="UTF-8"?>
<svg id="Layer_1" xmlns="http://www.w3.org/2000/svg" viewBox="0 0 1024 1024">
  <path d="M713.77,377.72c-4.41,39.01,6.8,71.6,14.44,104.73,5.55,24.08-2.73,43.54-19.13,61.06-20.36,21.76-22.01,39.67-6.09,64.1,16.39,25.14,33.74,49.65,50.47,74.56,6.16,9.17,12.05,18.71,1.99,29.1-10.81,11.16-23.94,12.98-34.97,4.33-21.87-17.15-43.13-35.13-65.54-51.52-5.69-4.16-15.09-5.87-22.28-4.9-27.39,3.69-54.52,9.31-81.87,13.39-9.57,1.43-13.52,5.1-12.22,14.88,1.48,11.14,2.68,22.36,3.14,33.58.64,15.6-4.12,20.77-19.39,25.15-4.47,1.28-7.91,6.28-12.38,7.47-10.37,2.77-21.44,6.95-31.57,5.6-14-1.87-17.53-12.8-16.08-27.47,1.94-19.6,3.53-39.59,1.8-59.11-1.72-19.36-11.83-34.42-33.56-38.04-12.39-2.07-24.5-5.92-36.93-7.44-4.16-.51-10.94,2.5-13.03,5.99-12.14,20.27-24.16,40.72-34.39,61.99-7.63,15.86-18.23,21.82-35.75,15.93-13.96-4.69-19.77-18.2-13.83-34.07,9.58-25.61,20.35-50.8,29.28-76.63,4.21-12.18,6.14-25.34,7.66-38.22,3.75-31.76,23.22-55.68,39.57-81.09,6.46-10.04,15.99-18.19,21.87-28.49,4.19-7.35,3.4-17.39,6.92-25.3,15.52-34.84,6.8-69.63.99-104.5-2.51-15.06-5.8-30.02-7.44-45.16-.46-4.28,2.71-11.72,5.95-12.87,3.53-1.26,11.37,1.79,13.31,5.23,7.89,13.94,14.83,28.51,21.02,43.32,8.81,21.09,17.05,42.45,24.69,64,2.76,7.78,3.1,16.42,4.47,24.68,1.97,11.91,3.59,23.88,6.06,35.69.5,2.4,4.02,5.61,6.31,5.75,2.04.13,5.6-3.11,6.28-5.49,3.39-11.96,7.87-24.01,8.6-36.24,1.48-24.62,6.95-47.82,17.75-69.91,5.03-10.29,13.27-14.54,23.09-9.05,13.9,7.77,27.94,16.12,39.58,26.79,7.88,7.22,14.47,12.54,25.45,11.35,5.29-.57,11.05-.64,16.09.83,22.63,6.59,39.93-2.04,55.73-17.4,5.37-5.22,12.23-9.12,18.87-12.78,12.41-6.82,19.76-4.04,22.32,10.06,2.39,13.16,2.12,26.8,2.74,36.12ZM583.26,456.65c.35,3.62-.61,10.2,1.89,14.96,2.77,5.29,8.69,8.93,13.24,13.29,3.82-5.38,10.13-10.43,10.89-16.21,1.13-8.58-.52-18.05-3.27-26.38-1.42-4.29-8.92-10.45-11.63-9.56-4.56,1.5-8.04,7.63-10.87,12.46-1.37,2.33-.24,6.14-.24,11.45ZM697.65,457.12c-1.12-4.82-1.91-12.61-4.95-19.39-1.56-3.48-7.83-7.79-10.74-7.03-4.04,1.06-9.74,6.53-9.75,10.13-.05,10.64,1.56,21.49,4.25,31.82.89,3.41,6.93,7.32,10.79,7.52,2.93.15,7.12-4.74,8.92-8.31,1.68-3.34.94-7.89,1.49-14.73Z"/>
</svg>