<?xml version="1.0" encoding="UTF-8"?>
<svg id="Layer_1" xmlns="http://www.w3.org/2000/svg" viewBox="0 0 1024 1024">
  <path d="M905.83,517.33c-11.52-1.53-22.3-2.91-33.07-4.4-5.61-.77-9.78-3.93-12.99-8.44-9.32-13.12-19.51-25.41-30.87-36.93-10.29-10.43-18.97-22.44-28.33-33.77-6.71-8.13-14.48-15-23.17-21.01-6.44-4.45-12.71-9.09-20.53-10.57-6.01-1.14-12.14-1.64-18.22-2.4-12.31-1.54-24.59-3.39-36.94-4.52-13.91-1.27-27.79-3.57-41.84-.27-13.22,3.11-26.74.86-40.12,1.24-11.32.32-22.59,2.3-33.89,3.46-9.94,1.02-19.87,2.21-29.83,2.83-14.08.88-28.18,1.44-42.28,1.91-14.12.47-28.25,1.02-42.36.85-14.72-.17-29.43-1.13-44.15-1.77-6.64-.29-13.37-1.45-19.9-.75-11.82,1.28-23.51,3.67-35.26,5.57-3.77.61-7.54,1.6-11.32,1.64-12.53.14-24.5,3.2-36.63,5.88-17.25,3.81-34.69,6.76-52.04,10.13-7.2,1.4-14.37,2.94-21.55,4.41-.3.06-.61.21-.91.19-10.55-.82-21.12,1.67-31.72-.76-11.27-2.58-20.58-8.1-28.84-16.01-6.61-6.33-13.39-12.55-20.56-18.22-8.29-6.56-14.55-14.58-20.51-23.2-7.32-10.57-15.71-20.4-23.72-30.49-7.92-9.97-11.15-21.68-13.79-33.89-1.85-8.55-5.42-16.74-8.41-25.03-.25-.68-1.92-.85-4.06-1.71-1.15,10.6-2.82,20.35-3.15,30.14-.67,20.19,3.48,39.54,11.77,58.03,1.97,4.39,2.81,9.29,4.2,13.95,2.31,7.77,6.3,14.59,11.84,20.47,7.41,7.84,14.62,15.91,22.51,23.24,5.12,4.76,11.28,8.4,17,12.51,5.35,3.84,10.54,7.94,16.15,11.37,4.9,3,10.27,5.23,15.45,7.77,11.32,5.54,23.22,10.14,33.84,16.8,14.04,8.8,25.28,20.76,33.86,35.26,3.32,5.61,8.78,9.93,13.02,15.04,2.47,2.97,4.46,6.33,6.95,9.93,2.85-.31,6.62-1.58,10.03,2.15,5.26,5.75,6.12,8.43.83,14.25-12.06,13.29-19.91,29.25-29.36,44.2-3.02,4.77-6.47,9.28-9.84,13.82-1.99,2.68-7.55,3.8-9.6,2.13-3.42-2.78-4.15-7.09-.81-10.14,10.79-9.86,16.19-23.39,24.47-34.94,4.09-5.71,7.89-11.62,11.84-17.43,1.94-2.85.98-5.5-1.22-7.3-.62-.51-3.34,1.04-4.74,2.11-7.66,5.84-15.09,12-22.85,17.71-4.57,3.36-9.43,6.4-14.47,9-3.18,1.64-6.95,2.1-10.38,3.29-3.96,1.37-4.51,3.81-1.7,6.85,3.88,4.2,7.77,8.4,11.65,12.61.52.56,1.2,1.11,1.42,1.79,1.2,3.7,2.72,8.11-.85,10.7-3.56,2.58-6.63-.96-9.08-3.37-6.41-6.3-13.96-11.66-17.59-20.37-.18-.43-.31-.87-.49-1.3-3.76-8.45-2.23-12.74,6.32-16.25,5.64-2.32,11.94-3.32,17.16-6.29,7.06-4.01,13.43-9.26,19.97-14.14,3.08-2.3,5.84-5.03,8.78-7.51,1.96-1.65,2.95-3.12.95-5.66-4.98-6.31-9.52-12.98-14.57-19.22-4.82-5.96-10.02-11.62-15.18-17.3-2.08-2.29-4.31-4.52-6.8-6.33-2.76-2.02-5.79-3.71-8.85-5.24-7.86-3.92-15.9-7.48-23.69-11.53-7.04-3.66-15.86-4.48-20.31-12.39-.05-.1-.29-.14-.44-.13-7.99.51-11.33-6.58-16.72-10.28-6.16-4.22-13.02-7.83-18.08-13.13-10.48-10.98-20.61-22.42-29.57-34.64-4.42-6.02-6.13-14.11-8.67-21.4-2.95-8.47-6-16.97-8.01-25.69-2.4-10.37-4.25-20.93-5.39-31.51-.84-7.78-.96-15.83.02-23.58,1.43-11.27,3.05-22.71,10.09-32.37,3.31-4.54,7.49-4.84,10.13.11,3.06,5.72,5.61,11.78,7.81,17.9,3.29,9.14,6.52,18.34,8.94,27.73,2.39,9.24,6.6,17.26,12.74,24.43,4.3,5.02,8.69,9.96,12.7,15.2,5.44,7.1,9.96,15.01,15.97,21.55,6.99,7.61,15.2,14.1,22.83,21.12,4.44,4.09,8.74,8.34,13.22,12.38,10.76,9.71,23.25,13.73,37.68,11.25,16.68-2.87,33.39-5.61,50.05-8.58,3.68-.66,7.23-2.05,11.91-3.42-1.98-2.23-3.86-3.68-4.79-5.58-.86-1.78-1.64-4.53-.86-6.04,6.54-12.7,14.37-24.59,25.3-33.97,7.4-6.35,15.81-10.75,26.07-10.8,13.16-.06,26.36-.1,39.47-1.05,7.69-.56,15.25-2.87,22.87-4.38,1.94-.38,3.9-1.05,5.84-.99,10.54.31,20.76-1.55,30.87-4.25.88-.24,1.8-.43,2.71-.46,11.16-.34,22.35-.26,33.47-1.07,9.45-.69,18.83-2.36,28.23-3.69,5.75-.82,11.45-2.26,17.23-2.63,10.36-.66,20.76-.63,31.14-1.06,12.66-.52,25.33-1.84,37.98-1.63,8.27.14,16.8,1.45,24.69,3.9,9.93,3.08,14.59,12.59,20.91,20.1,6.69,7.96,14.22,15.25,21.75,22.44,2.61,2.49,6.17,4.22,9.59,5.54,2.07.8,4.72-.1,7.06.18,16.9,2.09,33.82,4.13,50.68,6.52,11.19,1.58,22.35,3.46,33.41,5.75,3.92.81,7.8,2.8,11.19,5.02,10.43,6.85,21.47,12.99,29.55,22.88,2.23,2.73,4.17,5.7,6.51,8.31,9.23,10.3,18.69,20.39,27.84,30.76,9.07,10.27,18.01,20.67,26.74,31.22,6.03,7.29,13.46,11.56,22.91,11.95,17.68.72,35.36,1.28,53.04,1.9,5.29.19,7.69,4.67,9.79,8.08,2.41,3.91-1.38,7.66-3.42,11.19-8.32,14.36-21.63,22.8-35.75,30.39-6.43,3.46-12.21,8.31-18.9,11.04-7.5,3.07-15.6,4.87-23.59,6.47-9.73,1.95-19.62,3.16-29.45,4.57-2.29.33-4.66.08-6.99.19-5.75.27-11.5.7-17.25.88-5.79.18-11.58.12-17.37.16-1.52.01-3.04,0-3.34,0-1.94,7.09-3.86,13.44-5.38,19.88-1.43,6.07-2.61,12.21-3.59,18.37-1.13,7.1-2.28,14.22-2.76,21.38-.46,6.85-.53,13.8.05,20.64.77,9.01,2.48,17.94,3.54,26.93.88,7.42,3.57,13.95,7.17,20.53,3.58,6.54,5.12,14.17,7.86,21.2,4.13,10.6,8.09,21.3,12.97,31.56,3.44,7.25,2.65,12.65-4.86,15.32-7.84,2.79-16,4.78-24.13,6.6-2.08.46-4.69-.86-6.91-1.73-9.1-3.57-15.2-11-21.71-17.71-8.86-9.13-17.17-18.81-23.41-30.04-.62-1.12-1.63-2.04-2.55-3.16-2.64,3.85-5.06,7.87-7.98,11.48-1.73,2.14-4.24,3.64-6.39,5.45-2.11,1.77-4.28,3.49-6.28,5.38-1.46,1.38-2.66,4.25-4.01,4.27-3.37.06-7.26-.3-10.03-1.99-5-3.04-9.31-7.2-13.96-10.84-1.09-.85-2.43-1.38-3.51-2.24-2.89-2.3-5.81-4.59-8.52-7.1-3.19-2.95-5.69-7.07-9.37-9-8.35-4.37-11.6-13.2-18.11-19.11-1.42-1.29-.73-4.7-1.42-7.01-1.71-5.64-4.59-11.1-5.27-16.84-.81-6.86-.62-14.07.56-20.88,1.61-9.24,4.3-18.34,7.08-27.32,1.92-6.23,4.8-12.16,7.2-18.24,4.62-11.72,9.22-23.45,13.79-35.19.97-2.48.22-4.25-2.49-4.85-1.34-.29-2.73-.52-4.09-.48-7.45.23-14.9.71-22.36.79-4.14.04-8.29-.86-12.41-.76-20.46.5-40.94.78-61.37,1.97-12.53.72-24.96,2.97-37.45,4.44-4.13.49-8.29.8-12.44.98-8.98.39-17.96.64-26.94.97-12.29.45-24.58,1.19-36.88,1.27-7.23.04-14.49-.81-21.71-1.56-5.48-.57-11.09-.99-16.31-2.58-6.17-1.88-12.02-4.87-17.94-7.52-5.68-2.55-11.24-5.35-16.92-7.9-5.12-2.3-10.36-4.33-15.46-6.66-2.79-1.28-5.2-2.15-6.81,1.52-3.88,8.87-8.63,17.48-11.45,26.67-2.32,7.57-4.78,13.66-12.21,18-8.72,5.09-11.4,14.7-13.26,24.14-.55,2.81-1.2,5.92-.53,8.57,1.01,3.98,4.84.18,7.12,1.73,6.3,4.28,13.2,7.82,18.94,12.74,7.67,6.58,14.35,14.28,21.69,21.26,1.88,1.78,4.63,2.63,6.99,3.91,6.52,3.54,13.08,7,19.5,10.7,1.2.69,2.48,2.36,2.56,3.65.14,2.3.16,5.48-1.21,6.74-1.36,1.25-4.79,1.38-6.76.6-3.49-1.38-6.44-4.08-9.86-5.72-1.97-.94-4.46-1.36-6.64-1.17-3.49.31-5.74-1.07-8.03-3.5-7.96-8.43-15.48-17.46-24.38-24.79-8.48-6.99-17.21-14.11-28.24-17.45-5.6-1.69-6.27-4.87-5.16-12.46,1.41-9.63,3.86-18.9,9.45-26.96,2.82-4.07,6.68-7.4,9.74-11.32,2.41-3.1,4.84-6.39,6.35-9.97,4.97-11.78,9.54-23.73,14.22-35.63,1.11-2.83.45-5.06-2.44-6.54-6.1-3.12-12.22-6.21-18.2-9.56-2.65-1.48-5.84-3.02-7.28-5.43-4.92-8.23-10-16.55-13.39-25.45-2.12-5.55,1.61-11.21,5.19-15.99,7.56-10.05,17.74-16.57,28.69-22.44,11.48-6.15,23.85-9.27,36.2-12.6,12.77-3.44,25.61-6.72,38.53-9.53,8.05-1.74,16.28-2.88,24.49-3.57,17.98-1.52,35.98-2.73,53.99-3.77,10.84-.62,21.74-1.25,32.56-.83,10.24.4,20.44,2.04,30.63,3.38,8.64,1.13,17.25,2.51,25.84,3.98,4.34.74,8.7,1.63,12.88,3.01,8.81,2.9,17.74,4.19,27.03,4.56,18.89.76,37.47,3.46,54.43,12.8,9.9,5.45,20.88,7.34,31.78,9.67,3.97.85,7.97,3.06,11.18,5.63,6.21,4.97,11.13,11.25,18.19,15.57,8.77,5.37,8.82,13.53,6.09,23.45-1.94,7.09-4.75,13.82-9.8,19.48-.93,1.04-1,3.67-.4,5.14,4.14,10.14,12.38,15.62,22.51,18.34,7.36,1.97,14.88,3.42,22.39,4.69,7.25,1.23,14.59,2.76,21.88,2.72,15.98-.09,32.01-.45,47.91-1.91,13.03-1.2,26.22-2.29,38.82-6.42,2.86-.94,5.64-2.3,8.16-3.92.77-.5,1.23-2.9.71-3.77-4.52-7.72-.77-13.7,3.93-19.39,3.5-4.23,7.33-8.19,11.14-12.42ZM724.93,716.4c-3.82-10.61-7.25-20.16-10.69-29.7-1.65-4.57-4.56-9.07-4.79-13.71-.57-11.58-3.93-22.57-5.66-33.86-1.34-8.81-.93-17.9-1.1-26.86-.1-5.41.61-10.49,4.42-15.03,1.87-2.22,2.72-5.8,2.89-8.83.41-7.02.09-14.09.15-21.13.03-3.4-.27-5.91-4.9-5.86-4.07.04-5.66-2.94-3.69-5.7,5.59-7.83,10.98-15.82,16.92-23.37,5.58-7.1,9.85-14.73,11.91-23.49.97-4.13.19-7.49-3.91-10.31-5.16-3.55-9.99-7.78-14.22-12.4-3.92-4.29-8.8-5.58-13.95-6.86-7.36-1.83-15.28-2.56-21.91-5.87-17.7-8.84-36.31-12.49-55.84-12.87-4.44-.09-8.93-.54-13.28-1.39-9.24-1.82-18.39-4.1-27.61-6.02-6.11-1.28-12.25-2.48-18.44-3.33-11.23-1.54-22.47-3.64-33.75-3.96-16.76-.47-33.56.27-50.33.79-9.71.3-19.42,1.03-29.11,1.86-8.56.73-17.31.96-25.6,2.97-23.64,5.73-47.25,11.71-70.56,18.65-14.12,4.2-27.29,11.01-36.67,23.13-1.66,2.14-3.77,5.46-3.2,7.56,3.15,11.52,9.47,20.17,21.49,24.77,7.98,3.06,14.95,8.76,22.35,13.32,6.07,3.74,11.89,7.96,18.2,11.22,6.72,3.48,13.92,6.01,20.84,9.11,5.68,2.55,11.02,6.61,16.94,7.72,11.58,2.18,23.43,3.43,35.21,3.84,13.34.45,26.73-.3,40.09-.8,10.8-.4,21.61-.96,32.38-1.9,14.99-1.31,29.92-3.57,44.93-4.46,19.48-1.16,39.02-1.55,58.53-1.95,14.17-.29,28.37.32,42.53-.24,5.94-.23,12.15.21,17.88-3.12,4.96-2.88,7.8-1.01,10.67,4.6,2.03,3.97.39,7.04-2.87,7.45-6.58.82-9.25,5.47-11.59,10.2-3.35,6.79-5.96,13.95-8.72,21.01-5.87,15.02-13.42,29.41-16.46,45.48-1.32,7.01-4.05,13.8-4.94,20.84-1.02,8.08-.25,16.21,2.72,24.06,3.16,8.37,6.41,16.42,15.34,20.46,1.69.76,2.99,2.48,4.32,3.91,3.32,3.57,6.29,7.49,9.87,10.76,3.93,3.6,8.43,6.58,12.58,9.95,3.79,3.08,7.75,2.96,11.35.19,4.5-3.46,8.71-7.24,10.14-13.26.94-3.93,2.57-7.68,9.13-7.54ZM652.33,383.96c-1.52-2.13-2.12-3.3-3.02-4.18-6.73-6.52-13.63-12.85-20.22-19.51-1.98-2.01-2.84-5.09-4.7-7.26-5.15-6.03-11.25-10.23-19.72-10.37-6.12-.1-12.26-1.88-18.31-1.54-13.18.73-26.33,2.19-39.47,3.6-13.72,1.47-27.4,3.23-41.1,4.86-9.9,1.18-19.77,2.62-29.7,3.43-8.8.72-17.93-.53-26.42,1.32-17.64,3.85-35.69,4.38-53.37,8.48-14.07,3.26-29.25,2.25-43.93,2.29-13.23.03-23.54,5.89-31.99,14.96-5.45,5.85-9.4,13.13-13.84,19.89-.94,1.44-1.09,3.4-1.68,5.37,1.59.09,2.2.17,2.81.15.61-.02,1.23-.09,1.82-.25,18.34-5.01,36.67-9.95,55.99-9.18,3.12.13,6.29-1.05,9.44-1.61,12.83-2.28,25.52-5.62,38.73-4.85,6.95.4,13.9.67,20.85.94,8.51.34,17.02.71,25.53.92,15.07.38,30.15,1.08,45.21.82,10.91-.19,21.78-1.98,32.7-2.59,11.3-.63,22.63-.63,33.94-1.05,3.68-.14,7.34-.71,11.01-1.13,10.21-1.16,20.39-2.88,30.63-3.36,12.42-.59,24.9-.14,38.82-.14ZM800.36,762.01c-3.12-8.93-6.13-17.64-9.22-26.32-1.11-3.12-2.88-6.08-3.55-9.28-1.68-8.01-4-15.55-9.54-21.94-1.55-1.79-1.93-4.75-2.41-7.25-.94-4.96-1.64-9.97-2.32-14.97-1.47-10.91-3.69-21.8-4.03-32.74-.29-9.43,1.55-18.93,2.56-28.38,1.43-13.37,1.97-26.95,7.54-39.49,1.93-4.35-.25-5.21-3.76-6.11-12.83-3.31-25.61-6.8-38.38-10.31-2.78-.76-5.6-3.83-8.19-.23-1.71,2.38-3.45,5.18-3.85,7.98-.83,5.78-.49,11.72-1.18,17.54-.62,5.26-1.64,10.53-3.08,15.63-2.12,7.51-5.22,14.96-4.18,22.83,1.44,10.86,3.67,21.63,5.85,32.39,1.74,8.63,3.01,17.52,6.09,25.68,4.83,12.77,10.84,25.11,16.68,37.48,7.54,15.99,20.9,27.13,33.39,38.95.93.88,2.9,1.09,4.31.93,5.47-.6,10.91-1.47,17.26-2.37Z"/>
  <path d="M385.2,719.13c2.34-5.13,3.89-9.49,6.27-13.34,1.1-1.78,3.82-2.55,5.81-3.77,1.4,2.31,3.61,4.51,3.97,6.97.39,2.66-.52,5.77-1.64,8.34-3.29,7.55-6.53,15.18-10.64,22.28-2.43,4.2-6.53,7.41-9.75,11.17-1.17,1.36-2.27,2.93-2.9,4.59-3.26,8.57-8.41,15.4-17.35,18.43-2.44.83-5.61,1.08-7.99.27-11.95-4.08-23.98-8.08-35.48-13.21-5.27-2.35-9.82-6.83-13.95-11.07-4.25-4.36-7.86-9.43-11.26-14.52-4.04-6.05-7.56-12.45-11.32-18.69-.3-.49-.75-.88-1.42-1.65-.36,1.86-.52,3.3-.93,4.67-1.54,5.13-4.56,5.74-8.82,2.4-9.91-7.77-14.56-18.91-19.6-29.81-7.12-15.4-9.72-32.07-12.88-48.51-1.34-6.98-2.63-14.71,2.91-20.98,1.18-1.34,4.16-3.13,4.58-2.76,1.81,1.61,4.56,4.36,4.14,5.94-3.6,13.49,1.71,25.95,4.26,38.58,2.59,12.84,7.35,25.13,14.71,36.15,2.1,3.14,4.89,5.82,7.51,8.87,2.06-2.76,3.21-4.7,4.74-6.27,4.47-4.58,7.09-4.22,10.17,1.6,2.64,4.98,4.31,10.57,7.47,15.16,6.84,9.93,13.64,20.22,23.69,27.15,5.77,3.99,12.87,6.1,19.46,8.85,4.48,1.87,9.09,3.47,13.69,5.04,3.79,1.3,5.53.04,5.9-3.77.28-2.87,1.21-5.73,1.09-8.56-.07-1.86-1-4.26-2.38-5.41-5.64-4.68-12.05-8.51-17.29-13.56-3.79-3.65-6.27-8.69-9.09-13.26-.4-.65.66-2.14.9-3.27.53-2.51,1.58-5.1,1.33-7.54-.58-5.72,2.96-9.44,8.54-8.43,12.24,2.23,23.2,6.81,32.37,15.65,3.08,2.97,7.67,4.36,11.2,6.27ZM340.97,710.11c-.58.7-1.17,1.4-1.75,2.1,1.32,1.61,2.44,3.44,3.99,4.78,8.6,7.44,17.25,14.85,26.07,22.03.97.79,3.85.73,4.65-.09,1.54-1.6,3.38-4.24,3.03-6.05-.8-4.17-3.12-7.77-7.53-9.59-4.3-1.78-8.44-3.95-12.67-5.91-5.25-2.44-10.52-4.84-15.79-7.25Z"/>
  <path d="M747.53,490.7c0-6.58,8.49-17.83,17.34-20.69,3.6-1.16,7.47-2.97,10.97-2.52,3.77.48,8.43,2.35,10.61,5.21,5.01,6.55,6.83,14.78-.89,22.34-2.43,2.38-4.5,5.11-6.89,7.52-4.85,4.87-11.51,5.09-17.66,6.59-.86.21-2.23.3-2.71-.2-4.64-4.71-11.2-8.2-10.77-18.24Z"/>
</svg>