<?xml version="1.0" encoding="UTF-8"?>
<svg id="Layer_1" xmlns="http://www.w3.org/2000/svg" viewBox="0 0 1024 1024">
  <path d="M201.54,756.98c13.61,1.23,25.48.57,36.91-3.61,9.6-3.51,19.04-7.45,28.64-10.96,5.18-1.9,10.46-3.79,15.86-4.69,2.22-.37,5.84,1.2,7.13,3.07,2.4,3.48,3.13,8.09.65,11.92-2.11,3.26-5.12,5.98-7.9,8.77-12.03,12.03-25.31,22.97-32.68,38.93-2.79,6.03-5.73,11.99-9.22,19.27,2.14-.64,3.55-.61,4.13-1.29,10.07-11.89,20.12-23.81,30.01-35.85,4.47-5.44,8.66-11.12,12.83-16.8,3.63-4.94,8.27-5.87,13.72-3.8,3.76,1.43,5.29.14,5.06-3.72-.06-1,.29-2.19-.15-2.96-5.26-9.29-.77-17.59,3.5-25.16,7.32-12.98,15.5-25.51,26.41-35.95,6.3-6.03,12.35-12.33,18.55-18.48,4.66-4.62,10.63-4.07,14.71,1.16.86,1.1,2.11,2.25,3.38,2.59,8.62,2.27,9.84,3.95,11.59,12.28,1.38,6.59,2.72,13.61,6.08,19.24,3.27,5.48,8.32,11.14,13.96,13.72,14.43,6.6,29.38,12.38,44.59,16.92,18.36,5.48,37.2,9.37,55.85,13.91,12.18,2.97,24.45,5.56,36.54,8.86,16.96,4.64,31.49,1.86,44.8-10.51,13.27-12.33,27.86-23.23,41.77-34.87,3.18-2.66,5.88-5.89,8.99-8.64,9.47-8.34,19.2-16.4,28.51-24.91,6.71-6.13,13.07-12.65,19.3-19.27,5.58-5.93,12.27-5.33,16.99,3.21,3.58,6.49.88,11.71.02,17.41-2.1,14.03-4.6,27.99-6.8,42.01-1.19,7.59-1.64,15.33-3.32,22.81-.84,3.72.15,6.16,1.86,9.04,1.63,2.73,2.74,5.77,4.27,9.11-3.94,9.33-8.07,19.13-12.21,28.93.44.24.88.48,1.33.72,1.69-2.34,3.61-4.55,5.04-7.04,5.06-8.78,9.62-17.87,15.06-26.4,2.77-4.34,5.48-9.17,11.41-10.71,6.52-1.69,20,2.48,22.7,9.35,4.01,10.18,10.89,19.33,12.68,30.29,1.05,6.48,0,13.3-.1,19.97-.02,1.4,0,2.79.62,4.24,2.5-4.07,4.61-7.98,3.76-13.03-.58-3.43.25-7.07-.03-10.58-.93-11.62-2.04-23.22-3.17-34.83-.15-1.6-.76-3.16-1.16-4.74-2.35-9.36-.17-10.38,8.17-12.42,9.67-2.37,17.35,2.61,24.78,7.59,5.99,4.02,11.21,9.3,17.46,12.77,6.68,3.71,14.11,6.14,21.35,8.76,3.54,1.28,10.82-2.59,12.61-6.44,2.07-4.47-.38-7.85-3.9-9.79-10.66-5.85-19.07-15.79-31.41-18.41-10.05-2.13-20.35-4.28-30.52-4.21-8.53.06-13.94-3.68-20.11-8.33-8.03-6.05-8.3-15.06-9.89-23.22-1.26-6.47.45-13.5.69-20.28.35-9.92.42-19.84.87-29.75.49-10.77,1.17-21.53,1.97-32.27.52-7.03,1.73-14.02,2.09-21.06,1.29-25.47,6.31-50.09,15.28-74.01,3.88-10.34,6.03-21.34,4.25-32.39-.88-5.44-1.11-11.55-6.3-15.71-2.01-1.61-2.9-4.63-4.23-6.88-6.01,6.47-12.96,12.04-17.3,19.18-4.01,6.61-5.22,14.91-7.62,22.47-.14.43-.11,1.19.16,1.44,7.45,6.62.85,11.24-2.74,15.48-13.21,15.63-29.48,28.01-44.85,41.36-5.28,4.58-9.63,10.23-14.57,15.22-11.79,11.91-23.55,23.85-35.56,35.54-12.29,11.96-24.8,23.7-37.41,35.33-1.92,1.77-4.83,2.56-7.39,3.49-1.97.72-4.33.53-6.16,1.45-11.11,5.61-21.4,1.67-31.86-2.19-10.9-4.03-19.89-11.04-29.45-17.33-11.65-7.67-24.08-14.21-36.48-20.64-10.5-5.45-20.09-11.52-27.93-20.78-7.35-8.69-16.91-15.5-24.38-24.1-6.87-7.91-14.78-15.31-18.16-25.86-1.57-4.91-3.8-9.62-5.93-14.33-2.25-4.98.1-7.7,4.32-9.7.87-.41,1.67-.97,3.13-1.82-1.17-1.72-1.98-3.51-3.3-4.76-11.24-10.71-22.55-21.36-33.89-31.97-5.16-4.82-5.34-11.45-.05-17.72-5.26-7.02-3.86-13.93-.46-21.74,5.18-11.88,9.14-24.31,13.23-36.63,4.54-13.67,8.66-27.47,12.88-41.25.38-1.23-.3-2.87.26-3.92,1.14-2.14,2.38-4.89,4.32-5.79,2.63-1.22,5.77-2.58,8.73.97,4.85,5.81,5.76,14.81,2.25,21.82-2.22,4.44-3.02,9.57-4.79,14.26-3.95,10.49-8.25,20.86-12.13,31.37-3.55,9.6-6.79,19.32-10.05,29.02-1.29,3.84-2.59,7.74-3.21,11.72-.24,1.54,1.14,3.52,2.18,5.04,1.43,2.09,3.59,3.73,4.81,5.91,7.26,12.94,18.19,22.56,29.01,32.23,6.36,5.69,12.59,11.76,19.76,16.24,8.9,5.56,18.42,10.41,28.21,14.15,10.12,3.86,20.8,6.42,31.41,8.76,7.46,1.64,15.19,2.17,22.83,2.81,7.09.59,14.25,1.21,21.33.84,7.48-.39,14.96-1.63,22.33-3.03,15.22-2.9,30.34-6.38,44.55-12.78,11.26-5.07,22.69-9.92,33.46-15.91,19.72-10.95,38.76-23.13,58.59-33.87,11.53-6.25,21.46-14.11,30.57-23.29,5.88-5.92,5.44-5.7,2.33-13.51-4.38-11.01-7.66-22.45-11.99-33.49-4.98-12.72-10.46-25.25-16.03-37.72-1.24-2.77-3.77-4.96-5.57-7.25-3.21,12.5-5.29,24.8-9.6,36.26-4.84,12.89-10.8,25.57-18,37.28-4.65,7.57-12,13.71-18.89,19.61-8.45,7.24-17.99,4.37-27.22,1.05-2.76-.99-5.6-1.76-8.31-2.86-7.27-2.97-9.53-9.63-11.08-16.34-2.63-11.42-5.57-22.88-6.76-34.49-.97-9.44-.33-19.23.97-28.68,1.37-9.95,3.95-19.8,6.8-29.46,1.54-5.22,4.4-10.15,7.23-14.87,10.02-16.72,22.11-31.84,36.18-45.34,2.67-2.56,5.41-5.09,8.34-7.33,3.5-2.68,6.49-.8,8.73,1.97,2.27,2.81,1.09,5.11-1.33,7.69-9.44,10.06-19.29,19.86-27.66,30.78-15.22,19.84-24.4,42.25-24.67,67.71-.06,5.18-.05,10.36.07,15.54.02.84.79,1.66,1.73,3.51,1.58-6.29,2.88-11.58,4.23-16.86,4.26-16.68,10.98-32.3,19.5-47.28,5.15-9.07,8.5-19.18,13.86-28.1,4.98-8.3,12.91-13.78,22.74-15.45,4.63-.79,8.44,2.48,10.03,5.94,5.06,11.03,9.72,22.32,13.47,33.85,1.3,4.01-.52,9.03-.95,13.94,1.38-.09,2.22.06,2.9-.22,7-2.81,13.53.37,16.33,7.54,6.86,17.55,14.09,34.96,20.86,52.55,4.32,11.22,7.96,22.7,12.21,33.95,1.56,4.13,3.92,7.61,9.25,8.36,5.96.84,8.15,6.15,10.59,10.93,5.36,10.48,6.58,21.93,6.72,33.3.08,5.88-.47,11.98-3.47,17.98-4.75,9.49-7.4,20.01-11.29,29.95-6.26,16.02-5.7,33.09-7.83,49.73-1.55,12.05-2.05,24.23-3.12,36.35-.39,4.4-1.18,8.77-1.56,13.18-.15,1.71.54,3.48.55,5.23.06,11.91-.06,23.83.09,35.74.05,4.1.38,8.24,1.09,12.27,1.18,6.66,3.51,7.72,11.7,9.07,13.19,2.18,26.9,2.17,39.3,7.97,4.05,1.9,7.52,5.06,11.22,7.69,6.8,4.82,13.56,9.7,20.37,14.5,5.71,4.01,8.84,9.62,11.1,16.11,2.21,6.34,2.02,12.48-3.37,16.1-5.12,3.44-11.42,6.86-17.31,7.08-16.25.59-30.35-6.2-43.12-16.01-4.58-3.52-9.52-6.58-14.41-9.66-3.73-2.36-4.91-.14-4.59,3.21.95,10.11,2.2,20.2,3.12,30.31.29,3.16-.03,6.39-.2,9.58-.27,5.26-.12,10.63-1.13,15.75-.85,4.32-3.04,8.39-4.77,12.51-.43,1.02-1.48,1.75-2.06,2.73-4.41,7.42-7.79,8.41-15.78,4.94-15.04-6.52-15.62-15.15-15.17-27.88.23-6.59,2.51-13.29,1.69-19.67-.77-6.06-4.07-11.91-6.88-17.53-1.14-2.29-4.1-3.07-6.02-.15-3.31,5.05-6.35,10.27-9.61,15.36-6.14,9.6-11.25,20.18-18.9,28.39-5.85,6.28-14.89,9.62-22.64,14.03-.96.54-2.89-.06-4.12-.66-9.53-4.61-14.33-7.97-13.3-16.45.4-3.28,2.11-6.45,3.48-9.57,4.24-9.66,8.82-19.19,12.84-28.93,2.09-5.05,3.39-10.44,4.82-15.74.32-1.17.12-2.99-.61-3.84-4.06-4.7-6.28-9.14-2.39-15.42,1.94-3.12,2.03-7.51,2.52-11.39,1.2-9.43,2.16-18.9,3.17-28.35.14-1.26.02-2.55.02-4.83-4.58,3.52-8.61,6.22-12.18,9.44-6.83,6.17-13.13,12.95-20.14,18.91-12.24,10.42-24.87,20.37-37.29,30.58-9.27,7.62-18.81,14.94-27.53,23.15-4.69,4.41-9.19,5.69-15.23,4.61-9.17-1.64-18.54-2.3-27.63-4.25-16.86-3.61-33.61-7.73-50.35-11.87-10.57-2.61-20.88-6.49-31.57-8.31-21.65-3.69-40.61-14.64-61.09-21.41-2.22-.74-4.16-2.52-6.05-4.05-11.74-9.44-20.2-20.72-20.74-36.6-.06-1.83-1.46-4.74-2.8-5.1-1.49-.4-3.88,1.21-5.41,2.5-13.81,11.61-25.47,25.08-34.72,40.61-4.36,7.33-4.88,15.1-4.61,23.53.54,16.46,2.65,33.15-5.33,48.93-2.78,5.51-2.94,12.28-5.11,18.18-2.5,6.79-5.58,13.44-9.1,19.76-1.24,2.23-4.42,4.33-6.9,4.58-1.64.17-4.2-2.75-5.36-4.84-6.64-11.97-10.79-24.75-11.53-38.52-.03-.58-.52-1.14-1.54-3.22-2.75,3.24-4.92,6.07-7.38,8.63-8.49,8.86-16.6,18.16-25.85,26.16-4.01,3.47-10.34,4.49-15.79,5.95-1.52.41-4.42-1.11-5.41-2.59-3.11-4.65-5.11-9.25-2.06-15.42,5.6-11.32,9.83-23.32,15.18-34.78,4.03-8.63,8.94-16.84,13.81-25.9-3.6,1.02-6.95,2.48-10.42,2.86-11.24,1.25-22.51,2.47-33.81,3-9.95.47-17.7-3.78-21.28-13.51-.89-2.42-1.08-6.4.32-8.13,5.99-7.45,12.19-14.89,19.25-21.29,9.03-8.18,19.73-14.06,31.69-16.97,6.01-1.46,12.3-1.69,18.37-2.96,2.19-.46,4.53-1.93,6.03-3.62,10.9-12.3,22.22-24.3,32.2-37.33,11.65-15.22,22.58-30.92,30.03-49,7.66-18.58,13.75-37.52,18.21-57.03,2.69-11.75,4.5-23.72,7.56-35.36,3.21-12.21,7.29-24.2,11.31-36.19,1.84-5.48,8.43-5.88,13.52-.83,3.8,3.76,3.55,8.75,1.32,13.58-2.98,6.47-5.83,13.12-7.68,19.98-4.22,15.66-7.63,31.54-11.71,47.23-2.86,11-5.82,22.01-9.59,32.71-4.64,13.15-9.39,26.38-15.51,38.87-8.01,16.36-18.65,31.11-30.85,44.78-10.6,11.88-20.57,24.34-30.62,36.7-4.59,5.65-9.69,6.66-16.31,4.27-3.27-1.18-8.02-1.02-11.09.53-10.57,5.32-20.85,11.27-30.89,17.55-3.33,2.08-5.59,5.88-9.1,9.74ZM714.5,507.12c-.45-.27-.9-.54-1.36-.81-2.71,1.65-5.43,3.29-8.14,4.94-12.25,7.45-24.43,15-36.77,22.28-4.75,2.8-9.87,4.98-14.81,7.45-10.41,5.21-20.4,11.68-31.33,15.35-16.13,5.42-32.83,9.29-49.49,12.95-7.96,1.75-16.36,1.95-24.56,1.98-7.68.03-15.37-1.04-23.04-1.74-4.4-.4-8.87-.65-13.16-1.62-9.98-2.25-19.93-4.69-29.8-7.41-13.96-3.84-27.76-8.17-39.82-16.61-5-3.5-10-6.99-15-10.48-.46.3-.92.61-1.37.91,2.09,4.79,3.46,10.11,6.44,14.26,5.78,8.05,12.33,15.57,18.85,23.06,5.55,6.38,11.92,12.07,17.15,18.68,6.71,8.47,15.4,14.06,24.66,19,7.32,3.9,14.91,7.32,22.11,11.44,13.28,7.61,26.02,16.21,39.62,23.19,11.06,5.67,22.37,2.61,31.99-4.32,6.85-4.93,12.47-11.53,18.89-17.09,10.78-9.33,22.21-17.97,32.55-27.76,10.56-10,19.85-21.31,30.21-31.54,8.15-8.05,17.2-15.19,25.61-22.99,4.39-4.07,8.83-8.3,12.2-13.19,3-4.36,4.62-9.69,6.73-14.64.72-1.69,1.1-3.53,1.64-5.3ZM629.75,442.32c-1.02,9.66,4.23,16.12,14.51,18.26,2.52.52,6.05.81,7.81-.52,5.08-3.87,9.91-8.25,14.07-13.08,9.92-11.53,14.96-25.78,20.75-39.55.95-2.26.98-4.9,1.42-7.27-4.19-1.29-6.32.37-7.54,3.54-2.03,5.29-3.86,10.66-5.99,15.91-2.2,5.41-4.77,10.67-6.97,16.08-3.1,7.63-6.96,9.93-13.65,8.98-7.97-1.12-16.04-1.58-24.4-2.35ZM298.28,820.19c2.15-16.34,11.33-30.09,9.96-47.09-12.59,9.8-20.26,37.27-9.96,47.09Z"/>
  <path d="M529.64,289.24c-2.33-4.87-3.49-9.52-6.35-12.61-2.58-2.8-6.84-4.6-10.67-5.55-4.29-1.06-6.82-4.01-6.74-7.28.07-2.91,2.61-6.34,5-8.5,4.09-3.69,9.16-6.26,13.37-9.84,10.78-9.17,22.11-17.36,36.05-20.93,7.08-1.81,14.36-2.86,21.51-4.41,10.81-2.35,21.62-4.68,32.36-7.32,9.24-2.27,17.84.18,26.48,2.83.93.29,1.85,1.26,2.67,1.14,7.76-1.11,12.22,4.67,17.55,8.43,2.69,1.9,3.67,4.64.98,7.65-1.51,1.7-2.77,3.63-3.73,6.35,1.9-.79,3.86-1.48,5.7-2.39,2.9-1.43,5.7-3.05,8.59-4.48.7-.35,1.69-.6,2.39-.39,4.88,1.46,9.99,2.51,14.51,4.75,4.63,2.29,6.73,6.71,8.54,11.84,3.28,9.31,8.75,17.84,12.16,27.12,3.47,9.43,5.57,19.36,8.24,29.08.2.73.5,1.63.24,2.24-2.4,5.68-7.51,3.61-11.65,3.69-3.2.06-6.63-1.21-6.47-5.2.53-13.7-4.59-26-9.51-38.24-3.14-7.82-7.56-15.14-11.71-22.51-.46-.82-3.5-1.24-4.46-.58-7.64,5.29-14.84,11.26-22.63,16.31-9.94,6.44-20.05,12.72-30.57,18.15-9.91,5.11-20.46,8.96-30.68,13.47-7.55,3.33-14.8,7.45-22.56,10.16-14.69,5.12-29.06,4.31-44.04-1.15-19.1-6.96-35.39-18.9-53.57-27.35-4.83-2.24-8.98-5.9-13.59-8.66-3.1-1.85-5.1-.89-6.67,2.65-5.65,12.68-7.12,26.36-9.78,39.73-2.2,11.03-3.74,22.2-5.53,33.31-.23,1.43-.7,3.04-.28,4.31,1.46,4.39-1.03,5.97-4.52,6.59-9.06,1.62-13-3.32-11-12.33,3.13-14.01,5.5-28.18,8.33-42.25,2.25-11.17,4.79-22.29,6.99-33.47.48-2.43.46-5.11,0-7.55-1.53-8.19,2.77-12.37,10.57-9.13,10.19,4.23,20.1,9.18,29.91,14.25,12.56,6.49,24.89,13.43,37.36,20.12,4.04,2.17,8.16,4.19,12.28,6.19,1.36.66,2.86,1.03,4.96,1.76ZM573.31,236.96c-4.8-1.44-8.51,1.64-12.55,2.95-3.35,1.09-4.39,3.07-1.26,6.11,4.42-2.9,8.8-5.77,13.81-9.06Z"/>
  <path d="M487.65,311.68c-10.86,4.78-18.01,12.19-21.52,23.07,1.73-1.82,3.43-3.68,5.2-5.47,1.67-1.68,3.15-3.78,5.16-4.83,3.77-1.96,7.88-2.57,11.06-6.43,1.41-1.72,7.89-1.17,10.77.55,14.25,8.51,21.49,21.08,21.23,38.17-.25,16.79-2.87,33.11-9.33,48.44-5.96,14.17-12.99,28.46-25.48,37.89-7.4,5.58-17.04,8.76-26.16,11.28-6.91,1.91-15.76-5.01-18.98-12.64-6.57-15.58-8.06-31.66-6.38-48.51,1.88-18.81,6.69-36.56,15.43-53.18,5.45-10.36,11.54-20.41,20.05-28.7,5.25-5.11,11.97-6.18,16.56-2.5.81.65,1.37,1.62,2.39,2.86ZM447.78,425.22c5.19-11.72,10.32-23.16,15.3-34.66,1.29-2.97,3.94-6.44-1.87-8.16-.91-.27-1.36-2.79-1.64-4.34-.38-2.09.13-4.47-.67-6.33-2.2-5.08-.67-9.17,1.71-13.8,3.32-6.46,8.58-12.92,4.08-21.21-17.15,18.31-25.34,79.62-16.91,88.5ZM504.24,337.73c-.78.02-1.57.04-2.35.06-.82,3.38-2.14,6.72-2.35,10.14-.36,5.85.32,11.78-.06,17.63-.91,13.85-3.09,27.43-7.88,40.63-3.44,9.48-8,18.03-16.25,23.76-3.39,2.36-7.51,5.16-12.73,2.94-4.6-1.96-9.63-2.93-15.42-4.61,1.69,4.02,3.29,7.77,4.85,11.54,1.46,3.52,4.38,4.46,7.66,3.76,12.51-2.69,22.19-9.98,28.06-20.96,5.92-11.08,10.7-22.87,14.92-34.73,4.03-11.31,5.37-23.33,4.64-35.36-.3-4.97-2.02-9.86-3.09-14.78Z"/>
</svg>