<?xml version="1.0" encoding="UTF-8"?>
<svg id="Layer_1" xmlns="http://www.w3.org/2000/svg" viewBox="0 0 1024 1024">
  <defs>
    <style>
      .cls-1 {
        fill: #fff;
      }
    </style>
  </defs>
  <path d="M479.38,395.84c4.28,3.34,7.79,5.74,10.87,8.61,2.44,2.27,1.72,5.42-.28,7.4-7.45,7.36-15.18,14.44-22.84,21.58-1.1,1.02-2.5,1.71-3.61,2.73-1.31,1.2-2.4,3.63-3.67,3.69-3.32.17-6.85-.19-10-1.22-4.41-1.43-8.55-3.66-13-5.63-3.38,8.21-10.62,10.82-16.88,14.46-5.63,3.27-11.57,6.04-17.51,8.72-2.04.92-4.5.86-6.74,1.36-2.24.49-4.42,1.3-6.67,1.63-1.74.25-3.78.51-5.29-.15-4.6-2-8.41-.78-10.24,3.74-.31.76-.6,1.52-.95,2.25-4.57,9.53-6.62,10.26-15.78,5.31-1.01-.54-1.76-1.9-2.23-3.04-1.36-3.29-2.51-6.67-3.9-10.45-1.83-.07-4.75-1.07-3.21,3.72.87,2.71-3.41,5.66-6.72,5.26-2.34-.29-4.76.11-7.12-.07-3.38-.26-6.85-.35-10.07-1.25-6.49-1.81-12.95-3.83-19.22-6.31-4.89-1.93-9.59-4.47-14.13-7.15-2.5-1.48-4.58-3.79-2.17-7.34-.27-.27-.54-.55-.81-.82-2.6,1.17-5.48,1.96-7.74,3.6-4.63,3.37-9.62,5.51-15.29,6.09-.14.01-.32-.04-.41.03-6.18,5.14-12.15,1.61-18.08-.54-1.89-5.47,2.76-8.66,4.71-12.84,1.94-4.16,3.84-8.34,5.78-12.5,1.09-2.33,2.3-4.6,3.29-6.97.83-1.99,1.2-4.17,2.15-6.09.93-1.9,2.14-3.75,3.57-5.32,1.8-1.98,1-3.91-.75-4.26-3.88-.77-3.55-3.03-2.76-5.64.96-3.16,3.82-4.26,6.47-3.83,3.53.57,6.93,2.13,10.33,3.41,8.24,3.11,16.22,7.66,24.73,9.09,9.44,1.59,19.38.76,29.06.24,7.44-.4,14.8-2.03,22.21-2.99,11.08-1.43,22.13-3.15,33.26-4.03,16.31-1.29,29.78-9.08,42.72-17.97,4.99-3.43,9.17-8.09,13.46-12.44,2.22-2.25,1.46-3.99-1.54-4.69-5.62-1.31-6.47-2.75-6.5-8.61-.01-2.6-1.47-5.17-1.66-7.8-.48-6.81-.44-13.65-.96-20.45-.58-7.61-1.54-15.2-2.34-22.8-.86-8.14-1.66-16.29-2.61-24.43-1.25-10.65-2.51-21.3-4.01-31.91-.59-4.15,1.54-11.08,4.28-12.1,2.82-1.06,5.66.19,6.31,2.99.49,2.1.63,4.29.89,6.44,1.61,13.39,3.24,26.78,4.8,40.17.95,8.14,1.91,16.28,2.66,24.45,1.21,13.21,1.97,26.47,3.5,39.64.5,4.29,2.7,8.41,4.34,12.51.45,1.12,1.55,2.28,2.65,2.77,5.48,2.45,6.35,4.61,4.5,13.92,8.07-.72,14.57,5.91,22.83,4.36,1.53-.29,3.05-.64,5.95-1.25-5.72-4.53-10.46-8.29-15.22-12.02-.41-.32-1-.54-1.53-.58-5.9-.45-8.35-3.06-7.28-8.42.27-1.36,1.82-2.89,3.17-3.52,3.28-1.54,6.59-1.38,9.52,1.19,3.92,3.44,7.81,6.92,11.86,10.2,5.92,4.79,11.94,9.47,18.03,14.06.97.73,2.77,1.36,3.72.95,6.64-2.83,13.18-1.09,19.8-.14,9.43,1.35,18.89,2.55,28.35,3.67,13.22,1.57,26.55,2.26,39.39,6.45,7.33,2.4,14.97,2.11,22.73,1.32,6.48-.66,13.3-.25,19.7,1.04,8.85,1.78,17.45,2.21,26.18-.11,1.3-.35,2.72-.24,4.09-.37,4.52-.43,8.51-1.52,12.14-4.86,3.18-2.93,7.32-5.68,11.44-6.55,9.51-2,15.35-8.42,20.13-15.67,3.31-5.02,7.44-8.37,12.38-11.21,8.42-4.85,15.98-11.33,25.82-13.49,1.44-.32,2.88-1.37,4.24-1.24,5.73.55,8.89-3.07,12.27-6.73,2.22-2.4,4.79-4.53,7.41-6.51,4.49-3.4,13.64,1.02,14.61,7.03,1.02,6.34,3.8,11.43,8.06,16.49,8.16,9.7,15.39,20.34,14.4,34.03-.12,1.69-2.08,3.54-3.64,4.75-1.79,1.39-2.37,2.33-1.49,4.72,3.13,8.49,6.36,17.01,8.65,25.75,2.65,10.07,4.35,20.39,6.45,30.6.05.27-.08.59.02.82,4.53,10.61-1.53,19.42-4.7,28.82-5.84,17.31-11.39,34.72-16.9,52.14-2.73,8.65-5.3,17.36-7.58,26.13-2.95,11.39-5.44,22.9-8.31,34.31-.95,3.79-2.59,7.4-3.72,11.15-3.54,11.77-6.96,23.57-10.51,35.34-.59,1.95-1.69,3.74-2.32,5.68-2.86,8.86-6.49,17.58-8.23,26.65-2.37,12.4-8.96,23.19-12,35.26-1.32,5.25-2.99,10.45-4.99,15.49-3.4,8.55-2.78,17.25-1.08,25.86,2.3,11.7,2.5,23.38,1.73,35.24-.34,5.21.99,10.53,1.65,15.79.92,7.29,2.54,14.55,2.73,21.85.14,5.62-2.07,11.29-2.1,16.94-.03,5.07,1.45,10.15,2.36,15.21,1.03,5.73,2.93,11.42,3.07,17.16.15,6.17,1.55,11.76,3.57,17.46,1.34,3.76,1.68,7.88,2.44,11.84.1.54-.01,1.11.02,1.66.42,6.8.25,7.4-6.55,9.29-5.32,1.48-10.93,1.88-16.22,3.44-9.57,2.81-18.86,6.64-28.51,9.06-6.59,1.66-13.52,3.63-19.66-2.89-5-5.31-11.3-9.41-17.02-14.04-2.59-2.1-4.06-4.22-3.1-8.09,2.38-9.59,1.29-19.3-.34-28.92-.16-.94-.81-1.79-1.23-2.69-.45,0-.9-.02-1.35-.03-.54,2.22-1.18,4.42-1.61,6.66-1.2,6.24-1.63,12.74-3.71,18.66-1.52,4.32-4.63,8.51-8.11,11.53-1.9,1.65-6.09,1.23-9.11.8-2.09-.29-3.89-2.29-5.93-3.34-2.98-1.53-6.12-2.74-9.06-4.33-7.1-3.84-14.16-7.75-21.12-11.83-.76-.44-1.07-2.14-1.1-3.26-.29-9.75,1.48-19.23,4.26-28.5.62-2.07,2.75-3.74,4.36-5.43,2.8-2.96,6.45-5.39,8.39-8.81,1.72-3.04,1.32-7.21,2.36-10.72,1.99-6.71,4.56-13.24,6.44-19.97.83-2.98.36-6.3.82-9.42.6-4.1-.05-8.12,1.89-12.39,1.74-3.83.65-9.04.46-13.63-.41-10.02-1.34-20.03-1.5-30.05-.26-16.73.23-33.48-.18-50.2-.32-12.63-1.51-25.24-2.47-37.85-.1-1.3-1.27-2.52-1.94-3.78-1.01.62-2.25,1.04-2.98,1.9-10.07,11.92-20.05,23.92-30.1,35.87-2.37,2.82-4.84,2.83-7.49-.5,3.45-4.99,6.95-10.07,10.46-15.15-.32-.2-.64-.39-.97-.59-.9,1.28-1.8,2.56-2.7,3.83-.42-.25-.83-.51-1.25-.76,1.52-2.28,2.87-4.7,4.58-6.83,7.24-9,14.62-17.9,21.89-26.87,4.46-5.51,8.55-11.35,13.37-16.52,2.04-2.19,5.37-3.69,8.37-4.37,5.02-1.14,5.74-5.48,6.02-8.7.89-10.39,1.28-20.88.83-31.29-.21-4.82-2.92-9.5-4.3-14.3-.92-3.21-1.61-6.51-2.16-9.8-.45-2.68.79-4.74,3.54-5,1.77-.17,4.22.01,5.3,1.09,1.68,1.69,3.99,5.13,3.32,6.33-2.11,3.78-.46,6.88.36,10.16,3.81,15.23,8.45,30.3,11.33,45.7,1.92,10.29,1.13,21.07,2.07,31.58.57,6.3,2.08,12.51,3.27,18.75,1.29,6.78,3.05,13.49,3.97,20.31,1.25,9.3,6.16,16.62,11.29,24.06,4.05,5.88,7.41,12.25,10.99,18.45.59,1.03,1.05,2.31,1.06,3.48.07,9.83,1.7,19.72-.81,29.48-1.78,6.91-3.61,13.8-5.51,21.05,2.52.54,5.12.76,7.45,1.66,5.28,2.04,5.99,4.77,3.03,9.53-.76,1.22-1.73,2.86-1.48,4.08,1.32,6.36-1.4,11.98-3.07,17.71-2.83,9.77-1.16,19.59-1.07,29.39.01,1.48.66,2.95.65,4.42-.02,2.79.51,5.07,2.18,7.6,1.76,2.66,2.54,6.33,2.7,9.61.47,10.07,7.39,15.16,14.85,19.56,5.23,3.08,11.09,5.09,16.63,7.64,2.92,1.34,5.68,3.07,8.69,4.15,2.12.76,4.52.71,6.8,1.03-.02-2.65.47-5.43-.18-7.92-1.25-4.79-3.53-9.32-4.64-14.12-.94-4.09-.63-8.45-1.27-12.63-.49-3.21-1.48-6.36-2.48-9.46-2.38-7.4-3.02-14.81-1.8-22.57,1.1-7,1.95-14.18,1.65-21.22-.34-7.75-2.3-15.41-3.21-23.15-.58-4.9-.53-9.87-.75-14.81-.3-6.64.2-13.43-1.04-19.89-2.54-13.28-2.29-26.03,2.61-38.82,3.18-8.31,5.18-17.07,7.84-25.58.6-1.91,1.56-3.81,2.74-5.43,4.45-6.07,3.71-13.44,5.35-20.21,1.37-5.65,3.29-11.17,4.79-16.8,1.04-3.91,1.96-7.88,2.6-11.88,1.52-9.53,3.13-18.87,8.45-27.35,3.76-5.99,6.63-12.62,9.23-19.22,1.72-4.36,2.13-9.22,3.35-13.8,1.88-7.04,3.98-14.01,5.93-21.03,2.71-9.76,4.94-19.68,8.17-29.27,4.19-12.47,9.35-24.62,13.7-37.04,1.73-4.94,2.39-10.25,3.61-15.38.75-3.14,2.02-6.21,2.41-9.39,1.61-12.97-1.9-25.2-5.7-37.39-2.65-8.5-5.01-17.1-7.61-25.62-3.61-11.83-7.22-23.67-11.02-35.44-1.86-5.76-7.4-9.22-13.55-9.47-7.69-.31-15.02.05-21.06,5.82-4.66,4.45-11.39,7.74-14.01,13.1-3.88,7.93-10.71,10.54-17.39,13.47-4.95,2.18-10.82,2.16-16.2,3.46-4.7,1.14-9.28,2.74-13.91,4.16-.38.12-.86.29-1.04.59-4.69,7.97-12.67,7.9-20.44,8.57-2.95.25-5.98.78-8.76,1.77-8.5,3.02-16.6.86-24.92-.96-4.98-1.09-10.27-1.2-15.4-1.07-9.2.24-18.34.73-27.24-2.46-7.66-2.74-15.31-5.31-23.64-5.78-9.01-.51-17.97-1.91-26.94-3.02-11.25-1.39-22.48-3.05-33.76-4.19-2.01-.2-4.2,1.59-6.35,2.36-1.11.4-2.31.77-3.47.79-5.13.08-10.27-.2-15.37.14-2.52.17-4.96,1.42-7.67,2.25ZM635.6,640.32c.89,3.64,1.85,6.21,2.09,8.83.32,3.47-.07,7,.1,10.49.78,15.5,1.85,30.99,2.39,46.5.26,7.43-.79,14.9-.64,22.34.17,8.35.94,16.7,1.61,25.03.24,2.95.83,5.89,1.5,8.79.81,3.52,2.3,6.78,1.12,10.69-.65,2.16.06,4.89.68,7.23.82,3.06.52,5.69-.83,8.58-1.87,4.01-2.57,8.41-.69,12.64,1.75,3.95.82,7.48-.55,11.25-3.24,8.86-6.27,17.8-9.24,26.76-.67,2.03-.27,4.51-1.23,6.32-2.79,5.23-6.02,10.23-9.27,15.63q5.47,8.45,4.57,19.11c1.57-1.02,2.87-1.56,3.77-2.5,2.6-2.74,5.21-5.49,7.46-8.51,1.67-2.24,3.25-4.74,4.07-7.38,1.99-6.44,3.32-13.08,5.28-19.53,3.08-10.12,6.23-20.22,9.79-30.17,2.58-7.23,5.91-14.19,8.83-21.3,2.15-5.23,3.4-10.98,8.93-14.08.44-.25.69-1.18.7-1.8.09-3.62-.13-7.27.14-10.88.69-9.53,1.51-19.05,2.44-28.56.24-2.48,1.13-4.89,1.63-7.36.26-1.27.91-2.94.37-3.82-2.32-3.82-5.18-7.31-7.52-11.11-3.04-4.94-7.07-9.75-8.39-15.17-2.71-11.14-3.16-22.76-7.6-33.63-1.44-3.53-.94-7.92-1.03-11.92-.14-6.52-.04-13.05-.04-20.74-7.26,3.63-15.22,3.08-20.42,8.26ZM375.04,418.19c-2.22.9-4.51,1.92-6.85,2.77-5.27,1.9-10.93,3.5-16.1,1.1-3.5-1.62-6.05-.99-8.77.52-3.12,1.73-2.98,3.19-.11,5.3,5.78,4.24,11.03,8.87,13.13,16.2.62,2.14,2.14,4.06,3.4,5.98,1.43,2.19,2.99,1.77,4.53,0,3.16-3.6,6.42-7.11,9.46-10.8.98-1.19,1.99-2.83,2.01-4.28.04-4.1-.44-8.21-.68-12.32-.07-1.28-.01-2.57-.01-4.49ZM449.83,394.87c.43-1.11.96-1.86.97-2.61.01-1.18,0-3.13-.59-3.38-1.05-.44-2.54.13-3.84.28.2,1.17.29,2.38.63,3.51.31,1.03,1.37,2.05,1.24,2.96-.42,2.94.67,4.68,3.31,5.86,1.01.45,2.06,1.39,2.52,2.38,1.52,3.27,3.14,6.56,4.03,10.02,1.04,4.05,2.85,5.05,6.08,2.24,2.85-2.48,5.37-5.33,7.95-8.1.31-.33.04-1.21.04-1.83-.28.35-.57.7-.85,1.04-7.16-4.12-14.32-8.25-21.49-12.37ZM270.83,421.2c2.54,8.36-4.69,12.82-7.32,19.37.78.15,1.41.49,1.77.31,5.51-2.78,11.12-5.41,16.35-8.66,1.14-.71,1.79-4.85,1.04-5.48-3.16-2.66-5.93-6.63-11.84-5.54ZM677.74,881.62c0,6.94-.18,12.88.11,18.8.09,1.81,1.22,3.71,2.28,5.29.86,1.27,2.41,2.05,3.52,3.18,4.3,4.36,4.42,4.39,10.05.07-2.55-.3-4.46-.62-6.38-.72-3.44-.18-4.43-2.61-4.38-5.29.11-6.7.58-13.39.92-20.3-2.43-.41-4.3-.72-6.1-1.02Z"/>
  <path d="M518.41,918.69c1.02-1.07,2.23-2.01,3.02-3.23,3.1-4.8,5.99-9.74,9.15-14.51.93-1.4,2.75-2.21,3.73-3.6,4.34-6.17,8.7-12.34,12.71-18.72,2.24-3.56,3.88-7.49,5.66-11.32.61-1.32,1.14-2.84,1.14-4.27,0-3.24.53-5.87,2.59-8.82,2.72-3.89,3.59-9.01,5.79-13.33,2.21-4.36,1.05-7.61-1.53-11.34-1.41-2.03-1.66-5.11-1.76-7.74-.23-6.51-.02-13.03-.09-19.54-.12-10.98-1.85-21.68-6.1-31.86-2.04-4.87-4.07-9.76-6.44-14.47-2.19-4.35-6.5-5.06-10.09-1.68-2.83,2.66-5.41,5.64-7.78,8.73-.69.91-.73,2.85-.27,4,1.26,3.2-.5,4.47-2.93,5.5-2.83,1.21-5.61,2.68-8.55,3.49-6.36,1.74-10.86-1.84-11.02-8.51-.08-3.32.17-6.66-.05-9.98-.61-9.14-2.83-17.85-7.26-25.94-1.21-2.22-2.83-4.42-.61-7.09,2.05-2.48,4.16-2.71,7.23-1.79,4.01,1.21,7.1,2.68,7.4,7.41.04.7.99,1.34,1.65,2.18,1.68-3,.53-7.34,5.2-7.77,5.78-.53,8.69,1.14,11.82,7.88,2.86-6.86,6.59-12.66,7.52-18.87.98-6.6-.29-13.66-1.31-20.4-1.29-8.58-3.18-17.07-5.06-25.55-.81-3.67-2.26-7.2-3.37-10.81-.32-1.02-.83-2.15-.65-3.13.27-1.5,1.06-2.91,1.62-4.35,1.39.58,3.02.86,4.14,1.78,4.87,3.99,5.44,10.15,7.32,15.58,1.55,4.46,2.11,9.27,3.63,13.75.48,1.41,2.63,2.23,3.99,3.35,1.67,1.39,4.13,2.49,4.82,4.27,2.46,6.36,7.28,10.89,11.56,15.78,5.35,6.11,9.92,12.81,9.62,20.92-.19,5.09-2.76,10.4-5.35,14.99-2.37,4.21-6.19,7.61-9.4,11.34-1.7,1.97-2.6,3.79-1.44,6.64,3.12,7.63,6.16,15.32,8.64,23.17,2.87,9.08,4.85,18.41,4.78,28.03-.08,11.14.83,22.12,3.05,33.11,1.04,5.17,3.52,9.51,5.03,14.32.44,1.42.49,3.09.26,4.57-1.59,9.91-2.92,19.88-5.11,29.65-1.65,7.34-4.47,14.42-6.77,21.62-1.49,4.66-2.81,9.15-1.58,14.32,1.36,5.7-2.03,8.11-7.45,5.22-4.21-2.25-6.75-1.57-9.84,1.81-5.71,6.24-13.08,6.76-20.41,2.49-1.63-.95-3.99-1.2-5.92-.98-4.44.5-8.8,1.83-13.24,2.14-2.26.16-5.04-.59-6.85-1.93-5.35-3.94-10.17-8.61-13.02-14.73-.82-1.75-.21-4.3.13-6.43.82-5.18,1.99-10.31,2.77-15.5.71-4.71,1.24-9.46,1.55-14.21.12-1.84-.39-3.77-.9-5.59-.85-3.03-1.62-5.8,1.91-7.88.9-.53,1.56-2.37,1.46-3.53-.58-6.34-1.68-12.63-2.15-18.98-.79-10.83-1.39-21.67-1.8-32.52-.45-11.92-.3-23.87-1.05-35.77-.22-3.51-2.48-6.95-4.09-10.28-1.58-3.27-3.31-6.53-5.4-9.48-1.61-2.28-3.88-4.1-5.88-6.11-4.54-4.57-9.69-8.69-13.48-13.82-5.06-6.85-5.91-15.09-4.58-23.46.6-3.74.99-7.56,2.07-11.17,1.97-6.59,4.43-13.02,6.58-19.56.71-2.16.83-4.55,1.75-6.59.99-2.19,2.47-4.21,4.05-6.03.36-.41,2.54-.05,3.01.6,1.74,2.4,3.84,4.92,4.45,7.68.65,2.97.37,6.46-.53,9.41-2.52,8.26-6.39,16.19-8.18,24.58-1.94,9.1-2.17,18.92,6.21,25.51,12.51,9.83,19.57,23.24,25.22,37.4,2.14,5.37,1.79,11.81,2.18,17.79.32,4.97.21,9.98.02,14.96-.13,3.34.33,6.07,3.23,8.32,1.13.87,1.66,3.04,1.72,4.65.13,3.48.65,6.34,4.34,7.94,3.93,1.7,4.91,4.9,5.08,9.26.28,7.16,2.09,14.25,2.69,21.42,1.08,12.83,2.96,25.71-1.18,38.42-1.74,5.35-3.07,10.83-4.59,16.26.53.32,1.06.64,1.59.97ZM557.98,711.88c-1.83,6.75-3.6,13.24-5.51,20.3,6.5-1.96,9.59-15.26,5.51-20.3Z"/>
  <path d="M240.34,218.69c-9.51-2.85-18.3-5.9-25-12.88-3.4-3.54-6.4-7.46-9.73-11.07-3.41-3.69-7.31-6.97-10.46-10.87-3.25-4.02-5.75-8.65-8.77-12.87-2.13-2.97-4.74-5.59-6.8-8.6-.53-.78.22-2.44.44-4.13-5.69-1.08-3.36-7.62-5.04-11.83-2.62-6.59-3.68-13.78-5.71-20.63-.83-2.78.13-4.53,2-6.17,1.91-1.67,4.09-1.77,5.9-.09,4.35,4.04,9.73,6.26,14.76,9.17,8.79,5.07,17.35,10.69,25.36,16.91,5.77,4.48,12.63,3.61,18.83,5.75,8.26,2.85,17.31,3.97,23.9,10.34,6.1,5.9,12.28,5.05,18.84,1.38,4.72-2.64,9.77-4.86,14-8.13,9.11-7.03,19.16-7.81,29.88-5.89,7.6,1.36,15.17,2.94,22.8,4.04,8.54,1.23,16.74,3.25,24.39,7.44,4.41,2.42,8.69.93,12.23-4.16,9.5-13.63,20.51-25.97,31.61-38.28,5.28-5.86,9.82-12.5,17.09-16.13,7.28-3.63,14.69-7.03,22.22-10.1,1.42-.58,3.9.5,5.49,1.48,4.94,3.02,6.35,7.43,6.6,13.37.24,5.84,2.69,11.59,2.25,17.73-.51,7.02-.17,14.13-1.07,21.1-1.53,11.82-3.62,23.57-5.73,35.3-.84,4.65-2.35,9.18-3.61,13.74-.62,2.22-1.9,4.39-1.97,6.61-.23,6.79-4.77,10.15-9.74,13.31-3.66,2.33-7.11,5.2-11.07,6.76-2.86,1.13-6.63,1.27-9.6.45-3.14-.87-2.31-7.19,1.21-9.51,3.17-2.09,6.47-4,9.82-5.8,3.99-2.14,6.96-4.88,8.26-9.48,1.69-5.97,4.27-11.71,5.71-17.72,1.42-5.94,1.82-12.11,2.8-18.15.52-3.2,1.43-6.34,2-9.53,1.31-7.33,3.26-14.65,3.56-22.03.26-6.31-1.4-12.7-2.26-19.04-.14-1.06-.67-2.07-.81-3.14-.62-4.68-1.19-4.59-5.73-3.06-14.53,4.89-23.04,16.73-32.46,27.49-6.31,7.2-12.28,14.72-18.05,22.36-4.08,5.4-7.36,11.39-11.44,16.78-1.08,1.43-3.8,2.42-5.7,2.32-12.37-.67-22.24-7.91-33-12.86-3.48-1.6-7.43-2.36-11.25-3-5.11-.86-10.43-.71-15.44-1.92-7.51-1.81-13.88.21-20.12,4.06-4.4,2.71-8.81,5.5-13.5,7.58-4.84,2.15-9.06,4.93-12.23,9.09-5.85,7.67-12.15,15.11-17.08,23.35-3.73,6.24-5.81,13.53-8.3,20.46-4.11,11.43-7.4,23.2-12.15,34.35-3,7.05-6.2,13.79-6.25,21.57-.01,1.86-.27,4.67.73,5.34,1.31.88,3.78.24,5.71-.05,2.53-.39,4.99-1.33,7.52-1.57,3.52-.32,5.78,1.84,6.57,5,.67,2.67.16,4.84-2.34,7.29-5.11,5-10.3,9.66-16.84,12.53-2.8,1.22-5.99,1.51-8.85,2.62-1.57.61-3.72,1.84-4.03,3.16-.86,3.65-.88,7.5-1.28,11.68,10.81.31,21.33,2.04,31.36.53,13.51-2.03,26.42-6.95,36.95-16.54,4.74-4.32,9.82-8.27,14.8-12.31,3.49-2.84,9.77-1.92,12.91,1.79,1.64,1.94.5,6.07-2.31,9.17-2.75,3.03-5.21,6.31-7.99,9.3-6.31,6.8-13.35,11.97-23.08,13.35-6.07.86-11.81,3.91-17.81,5.55-2.99.82-6.25.61-9.37.98-1.2.14-2.45.39-3.53.9-6.11,2.88-12.65,3.26-19.19,3-2.01-.08-4-1.59-5.93-2.58-1.41-.72-2.71-1.66-4.16-2.57-1.53,5.52.73,10.18,6.56,13.05,7.99,3.94,16.07,7.7,24.24,11.26,2.73,1.19,4.66,2.58,4.07,5.67-.6,3.14-3.31,2.53-5.63,2.78-5.12.56-9.2-1.9-13.37-4.17-5.8-3.16-11.52-6.49-17.41-9.47-6.35-3.22-8.44-8.91-9.11-15.28-.61-5.73-.89-11.53-.82-17.29.05-3.9,1.18-7.78,1.38-11.7.12-2.41-1-4.88-.88-7.28.19-3.56.89-7.1,1.58-10.61.44-2.24,1.02-4.54,2.02-6.57.77-1.57,2.3-2.77,3.5-4.14.74-.85,2-1.6,2.16-2.54.76-4.55,1.11-9.17,1.84-13.72.33-2.07.85-4.28,1.94-6.02,6.81-10.88,12.62-22.19,15.86-34.7.27-1.03.28-2.13.4-3.08ZM256.11,183.24c-5.41-1.48-10.94-2.25-15.81-4.47-11.27-5.13-22.34-10.76-33.26-16.63-4.34-2.34-8.6-4.94-11.42-9.66-1.25-2.1-5.2-2.58-7.92-3.8-.32.34-.63.67-.95,1.01,1.07,3.6,1.43,7.64,3.33,10.72,5.48,8.88,10.9,17.95,17.63,25.86,8.11,9.54,17.15,18.3,29.83,22.21,3.9,1.2,5.61,1.19,7.38-2.75,3.49-7.75,7.54-15.24,11.19-22.5Z"/>
  <path d="M443.29,751.79c0,9.13-.33,18.27.08,27.38.6,13.17-.82,26.08-3.43,38.94-.75,3.69-.84,7.56-1.99,11.11-1.21,3.72-3.76,7.01-4.94,10.74-1.46,4.63-2.59,9.48-2.93,14.3-.25,3.56.18,7.61,1.71,10.76,4.06,8.35,1.72,16.4-.44,24.34-2.27,8.34-5.31,16.49-8.44,24.55-.51,1.32-3.22,2.48-4.95,2.53-7.96.22-15.6-1.7-23-4.53-2.55-.97-4.86-1.46-7.21.42-3.76,3.02-7.78,1.26-11.76.56-3.07-.54-6.25-1.53-9.25-1.2-7.83.84-15.35-.12-22.81-2.36-.85-.25-1.92-.17-2.78.09-3.45,1.08-6.84.91-8.91-2.17-2.33-3.47-4.27-7.51-2.14-11.79,1.56-3.15,3.33-6.37,5.72-8.9,4.95-5.25,10.38-10.04,15.58-15.05,1.64-1.58,3.03-3.48,4.86-4.79,1.22-.88,4.25-.85,4.31-1.45.23-2.21-.66-4.5-.72-6.78-.04-1.75-.03-4.01.96-5.19,2.69-3.16,3.54-6.72,3.42-10.61-.41-13.08-1.23-26.15-1.28-39.22-.04-10.14.78-20.3,1.32-30.44.14-2.71.3-5.5,1.08-8.06.45-1.49,1.92-3.3,3.32-3.74,2.6-.81,4.91.36,6.57,2.78,3.02,4.4,2.92,8.82,1.12,13.68-1.42,3.82-.17,5.35,3.81,5.83,5.13.62,8.73,4.3,8.97,9.55.38,8.25.74,16.52.8,24.78.04,5.07-.68,10.15-.66,15.22,0,1.49,1.01,3.45,2.2,4.36,5.42,4.16,6.16,6.66,4.85,13.45-2.15,11.11-7.39,20.54-14.33,29.27-2.01,2.53-3.6,5.45-4.93,8.4-.51,1.12.19,4.03.44,4.05,2.19.1,5.06.54,6.51-.63,6.97-5.64,14.28-11.14,20.07-17.89,5.08-5.93,9.52-13.03,12.04-20.37,2.66-7.74,2.6-16.39,3.95-24.61.45-2.72.82-5.91,4.99-5.76.67.02,1.91-1.08,1.99-1.77.82-6.58,1.37-13.19,2.15-19.77.71-6.08,1.73-12.13,2.37-18.21.49-4.63.95-9.32.79-13.96-.23-7.1-1.05-14.19-1.53-21.28-.15-2.26-.32-4.58.07-6.78.22-1.24,1.42-3.04,2.43-3.23,1.8-.33,4.24-.24,5.63.76,4.23,3.03,5.95,7.42,4.33,12.69Z"/>
  <path d="M386.36,683.81c2.06-2.83,3.47-4.79,4.9-6.72,3.86-5.19,11.73-4.66,14.57,1.39,1.51,3.2,2.17,7,2.35,10.58.23,4.49-.34,9.04-.72,13.54-.3,3.59-.04,6.84,3.76,8.55,3.17,1.43,3.28,3.74,2.5,6.75-1.29,4.95-2.22,10-3.45,15.73,2.94,0,5.24.09,7.52-.02,4.32-.2,9.63,7.04,7.9,10.96-.35.81-1.08,1.67-1.86,2.03-4.42,2.06-8.83,4.19-13.41,5.85-2.75,1-3.86,2.41-3.84,5.31.03,3.6-3.31,6.18-8.28,6.59-3.62.3-5.37-1.33-5.85-5.12-.18-1.42-2.2-3.06-3.76-3.75-4.71-2.09-9.58-3.83-14.44-5.55-1.23-.44-2.67-.41-4.01-.41-4.45-.01-6.58-1.94-6.8-6.25q-.4-7.81,7.5-7.97c.67-.01,1.34-.07,2.08-.11.16-.53.35-.9.36-1.27.09-2.38.14-4.76.21-7.14-2.16.33-4.32.76-6.49.98-3.15.31-7.73-3.29-8.67-6.21-2.63-8.23-5.28-16.47-8.22-24.59-3.36-9.29-8.67-17.42-15.22-24.82-1.45-1.64-4.15-3.98-1.42-6.62,3.04-2.94,7.19-2.63,9.73.13,8.25,8.96,13.68,19.43,17.75,30.87,2.56,7.2,6.44,13.93,9.65,20.91.82,1.79,1.33,3.73,1.98,5.59.39-.08.78-.17,1.17-.25-1.13-5.56-2.63-11.08-3.31-16.69-1.24-10.3-2.16-20.65-2.75-31-.09-1.52,2.11-4.1,3.71-4.55,2.16-.61,5.45-.46,7.02.85,2.59,2.17,4.24,5.49,6.17,8.4.63.95.9,2.13,1.68,4.06Z"/>
  <path d="M275.17,459.11c1.81-2.68,3.35-5.62,5.54-7.93.93-.98,3.36-1.22,4.88-.86,4.48,1.06,6.53,6.59,4.91,10.88-4.68,12.35-7.35,24.97-5.37,38.37,1.57,10.66,2.22,21.45,3.48,32.15.7,5.92,1.89,11.7,5.57,16.74,3.54,4.85,5.37,10,3.87,16.47-.69,2.95,1.03,7.01,2.79,9.88,6.02,9.83,12,19.76,19.07,28.83,3.86,4.95,8.38,9.29,9.7,15.59,1.31,6.23,2.03,12.58,3.04,18.87.24,1.46.57,2.92.97,4.35,1.22,4.41,2.88,8.74,3.52,13.23.24,1.67-1.46,4.57-3.04,5.36-3.22,1.6-6.29-.37-7.18-3.97-1.23-4.99-2.48-9.99-3.35-15.05-1.04-6.03-1.49-12.16-2.58-18.17-1-5.49-3.56-10.01-8.47-13.34-2.17-1.47-3.2-4.61-4.77-6.99-4.73-7.17-9.65-14.22-14.13-21.54-1.7-2.79-1.62-6.95-3.74-9.13-3.94-4.04-3.2-9.05-3.43-13.42-.19-3.71-.48-7.06-1.94-10.45-4.73-10.94-6.43-22.58-7.52-34.31-.98-10.53-2.12-21.08-2.36-31.64-.13-5.89,1.55-11.81,2.19-17.74.21-1.96-.29-4.01-.47-6.01l-1.19-.14Z"/>
  <path d="M429.81,636.28c-.29,2.48-.74,4.1-.63,5.68.43,6.13,1.34,12.24,1.49,18.37.15,6.11-2.57,8.58-7.34,7.5-.76-.17-1.42-.77-3.06-1.7,1.23,5.77,2.35,10.82,3.35,15.89.26,1.3.51,2.77.15,3.99-1.19,4.03-2.14,4.17-4.94,1.13-5.28-5.73-8.62-12.2-9.88-20.11-1.34-8.38-4.05-16.53-5.95-24.83-1.45-6.33-2.34-12.79-3.9-19.09-.73-2.95-2.68-5.58-3.6-8.5-.42-1.33.29-3.02.49-4.55,1.59.35,4.12.19,4.62,1.12,2.85,5.38,7.03,9.38,11.95,12.69.66.45,2.33.31,2.96-.23,3.35-2.87,6.89-2.62,10.72-1.31,1.34.45,3.05.76,4.31.32,5.35-1.89,9.32.19,12.04,4.43,6.37,9.91,12.69,19.88,18.4,30.19,1.79,3.23,1.75,7.56,2.12,11.43.23,2.4-1.62,3.58-3.39,1.82-2.92-2.91-6.19-5.99-7.7-9.66-2.33-5.67-4.98-10.54-10.2-14.11-3.93-2.68-7.25-6.27-11.99-10.47ZM415.77,646.24c.37-.03.73-.07,1.1-.1.2-2.79.51-5.58.52-8.38,0-.72-.92-1.44-1.42-2.16-.61.75-1.81,1.56-1.74,2.24.3,2.82.99,5.6,1.53,8.4Z"/>
  <path d="M354.81,245.58c-.86-.22-2.54-.68-4.23-1.09-4.14-1.02-7.91-2.5-12.64-1.93-3.94.48-8.54-1.99-12.36-4.05-2.09-1.12-2.3-3.96.64-5.55,1.09-.59,2.01-1.53,3.14-1.97,4.27-1.69,5.5-4.57,4.17-8.94-.35-1.14-.1-3.37.63-3.8,7.59-4.42,15.16-8.96,23.12-12.62,3.37-1.55,7.67-1.29,11.56-1.42,2.25-.07,7.28,6.75,6.99,9.31-.68,5.92-1.28,11.89-2.56,17.69-.8,3.64-2.56,7.13-4.31,10.46-.67,1.28-2.4,2.45-3.85,2.77-3.06.66-6.24.73-10.3,1.13Z"/>
  <path d="M287.86,352.35c-.36,1.13-.57,3.16-1.58,4.64-5.94,8.7-9.25,18.54-12.64,28.36-.26.76-.57,1.51-.84,2.27-1.19,3.27-2.84,5.46-6.84,3.65-4.77-2.15-5.72-4.31-3.83-8.95,4.65-11.38,9.41-22.72,13.77-34.22,1.2-3.17,2.66-6.16,6-5.05,2.32.77,3.91,3.9,5.66,6.12.42.54.18,1.6.31,3.18Z"/>
  <path class="cls-1" d="M416.87,646.14c-.37.03-.73.07-1.1.1-.55-2.8-1.23-5.58-1.53-8.4-.07-.68,1.12-1.49,1.74-2.24.5.72,1.42,1.44,1.42,2.16"/>
</svg>