<?xml version="1.0" encoding="UTF-8"?>
<svg id="Layer_1" xmlns="http://www.w3.org/2000/svg" viewBox="0 0 1024 1024">
  <path d="M625.49,783.05c-.27.66-.38,1.32-.58,1.35-5.32.8-5.26,7.61-10.04,8.95-.95.27-1.9.5-3.08.81-.29.77-.66,1.78-.82,2.2-5.4,0-10.46.02-15.53-.03-.55,0-1.5-.35-1.57-.69-.59-2.68-3.09-2.49-4.84-3.36-2.41-1.18-5.7-1.59-7.16-3.46-2.05-2.62-5.29-4.07-6.46-7.68-1.44-4.47-3.48-8.87-6.02-12.81-1.71-2.64-2.72-5.14-2.72-8.17,0-.35-.11-.81-.34-1.02-3.16-2.73-2.77-6.97-4.4-10.35-.85-1.76-1.36-3.69-1.97-5.38-4.13-.34-2.33,3.02-3.12,4.66-.82,1.7-.99,3.72-1.42,5.61-.44,1.95.26,4.39-2.36,5.41-.15.06-.23.51-.21.76.27,4.88-2.81,8.6-4.48,12.79-1.39,3.51-2.6,7.41-5.03,10.11-3.17,3.51-3.91,8.13-6.71,11.7-.72.92-.48,2.65-1.25,3.47-1.98,2.12-5.03,3.31-5.26,6.84-.02.35-1.19.72-1.87.91-4.23,1.19-7.54,4.79-12.27,4.64-1.45-.05-2.98.2-4.32-.19-3.72-1.07-7.45-2.19-11.01-3.71-4.64-1.98-9.12-4.35-12.48-8.3-.57-.67-.85-1.6-1.23-2.43-.18-.4-.15-1.01-.45-1.23-2.35-1.74-4.7-3.49-7.19-5.03-.7-.43-1.99-.48-2.77-.14-3.7,1.62-7.34,3.38-10.93,5.23-.58.3-1.08,1.26-1.14,1.95-.31,3.61-1.06,7.03-3.56,9.83-.24.27-.54.64-.53.96.13,4.98-4.05,5.77-7.27,7.18-6.65,2.93-13.84,2.31-20.83,2.27-7.79-.04-15.64-.35-23.34-1.45-3.15-.45-6.46-.81-9.5-1.64-3.91-1.08-7.44-3.49-11.18-5.23-1.37-.64-2.88-.98-4.3-1.52-2.61-.98-5.27-1.85-7.77-3.06-4-1.94-7.99-3.94-11.79-6.25-2.63-1.6-4.89-3.81-7.37-5.67-1.24-.92-2.75-1.5-3.92-2.49-3.79-3.18-7.94-6.1-11.07-9.85-2.53-3.03-6.02-5.71-6.34-10.42-.1-1.53-2.36-2.81-3.23-4.42-2.96-5.44-5.87-10.9-5.29-17.47.24-2.75.36-5.59-.04-8.3-.6-4.06,1.11-7.4,2.65-10.83.84-1.87,2.39-1.89,4.98-.12,2.32-3.8,6.09-1.81,9.25-1.98,1.05-.06,2.1,2.27,3.38,3.21,2.88,2.13,3.9,5.01,4.76,8.4.7,2.78,1.69,5.67,4.28,7.92,2.49,2.17,3.6,5.89,6.01,8.2,2.16,2.07,5.29,3.12,7.96,4.67.97.56,1.94,1.19,2.79,1.92,5.01,4.38,10.84,7.09,17.38,8,6.14.86,12.33,1.35,18.51,1.9,6.17.55,12.35,1.37,18.53,1.34,5.83-.02,11.64-1.24,17.48-1.47,5.97-.24,11.21-3.16,16.99-4.08,2.73-.44,5.13-2.61,8.24-2.18.56.08,1.58-.52,1.8-1.05.64-1.59,1.32-3.28,1.39-4.96.19-4.4-.22-8.84.17-13.21.35-3.88,1.11-7.8,2.31-11.5.96-2.95,2.82-5.62,4.4-8.34.43-.74,1.36-1.78,1.98-1.73,3.52.3,6.53-1.73,9.9-1.96,3.02-.21,6.02,2.01,7.14,4.89.63,1.61,2.05,3.07,2.2,4.69.26,2.83,3.06,4.13,3.34,7.12.25,2.73,2.25,5.3,3.51,7.94.91,1.92,1.74,3.89,2.84,5.7.51.83,1.5,1.8,2.37,1.9,1.76.19,3.39-.5,3.82-2.55.4-1.91.72-3.84,1.01-5.77.42-2.76.8-5.53,1.15-8.3,1.05-8.15,2.2-16.3,3.04-24.47.34-3.25-.09-6.58-.04-9.86.03-1.5.51-2.99.57-4.49.06-1.42-.32-2.86-.25-4.27.23-4.34.77-8.67.84-13.01.07-3.75-.52-7.52-.46-11.28.07-4.65.48-9.31.77-13.96.15-2.48.4-4.95.54-7.42.39-7.21.45-14.46,1.19-21.64.64-6.19.34-12.55,2.63-18.51.96-2.5,1.78-5.07,2.9-7.49.33-.71,1.51-1.04,2.3-1.54.21.82.48,1.63.61,2.47.16,1.11.17,2.23.32,3.34.11.79.33,1.57.35,1.66,3.46-2.19,7.33-4.3,10.76-6.96,1.68-1.3,3.11-3.46,3.71-5.51,1.45-4.9,4.15-8.83,7.97-12.03.49-.41,2.06-.11,2.7.4.79.63,1.2,1.8,1.67,2.79.6,1.28,1.35,1.9,2.94,1.77,2.39-.19,4.84.24,7.21-.04,3.31-.4,4.04,1.74,4.09,4.06.06,2.83-.49,5.67-.77,8.5,1.56.1,2.51-.61,3.7-2.02,4.1-4.9,8.44-9.6,12.45-14.57,2.02-2.51,3.57-5.42,5.24-8.21,2.19-3.66,4.28-7.39,6.59-11.41.64.94,1.05,1.56,1.47,2.16,1-1.23,1.94-2.55,3.07-3.68.5-.5,1.9-.99,2.04-.82.56.71,1.01,1.67,1.09,2.57.11,1.32-.15,2.66.14,4.26,4.46-3.75,9.36-.86,14.32-1.85.3-2.3.7-4.75.94-7.21.47-4.95-.05-9.99,1.82-14.82.73-1.88.53-4.13.68-6.22.41-5.72.2-11.55,1.34-17.11.98-4.76,1.84-9.78,4.8-13.99,1.07-1.52,2-3.16,4.1-3.17.89,0,1.78.63,2.68.67,1,.05,2.01-.24,3.06-.39,1.49.33,3.21.71,4.92,1.09.27.06.7.03.78.18,1.42,2.67,4.95,3.95,4.95,7.53,0,15.6.03,31.19-.1,46.79-.02,2.36-.95,4.7-1.25,7.08-.11.83.61,1.74.59,2.61-.04,1.85-.51,3.71-.46,5.55.17,5.48.57,10.96.73,16.44.04,1.44-.31,2.93-.74,4.32-.43,1.39-.47,3.69.21,5.2.11.24.19.6.1.81-1.86,3.97.41,7.94-.03,11.86-.37,3.34-1.62,6.57-2.14,9.91-.34,2.2.21,4.54-.17,6.73-.35,2.05,1.05,3.75.62,5.68-.42,1.89-1.22,3.72-1.44,5.62-.54,4.79-1.13,9.6-1.2,14.4-.12,8.22.3,16.46.18,24.68-.05,3.33-.94,6.64-1.38,9.97-.09.67.18,1.38.19,2.08,0,1.64-.02,3.29-.09,4.93-.05,1.11-.16,2.23-.32,3.33-.23,1.65-.53,3.3-.78,4.95-.13.88-.31,1.77-.27,2.64.21,4.21.51,8.41.69,12.61.03.66-.38,1.36-.63,2.02-.37,1.01-1.03,1.99-1.1,3.02-.24,3.92-.28,7.86-.4,11.79-.01.46.19,1.07-.03,1.36-2.45,3.27-1.14,7.16-1.76,10.73-.44,2.5-.12,5.13-.52,7.64-.29,1.86-1.05,3.68-1.86,5.4-1.31,2.79-2.9,5.44-4.23,8.22-1.87,3.92-3.56,7.92-5.4,11.85-1.45,3.12-4.04,3.47-6.92.61ZM607.05,756.97c.66-2.01.76-4.13,1.88-5.25,1.51-1.51,2.09-3.01,2.14-4.98.02-.71.13-1.47.41-2.13,2.19-5.22,4.14-10.46,3.95-16.28-.05-1.62-.1-3.65.77-4.81,2.93-3.9,1.33-8.38,2.05-12.54.41-2.35-.59-5.02.06-7.25,2.24-7.64,1.49-15.42,1.59-23.15.13-9.79,0-19.58.07-29.37.02-1.93-.09-4.26.89-5.7,1.42-2.1,1.12-4.11,1.2-6.26.1-2.86.28-5.72.51-8.57.26-3.25.74-6.48.9-9.73.12-2.47-.62-5.09-.07-7.43,1.81-7.6,1-15.27,1.23-22.91.12-3.86.02-7.73.02-11.41-1.36.67-2.78,1.27-4.07,2.08-.41.26-.44,1.11-.67,1.67-.9,2.2-1.64,4.49-2.79,6.56-.81,1.46-2.37,2.5-3.27,3.93-1.44,2.31-2.42,4.92-3.95,7.16-2.73,3.97-5.76,7.73-8.6,11.63-1.99,2.73-3.91,5.51-5.78,8.33-1.71,2.59-3.27,5.27-4.97,7.87-1.37,2.1-2.96,4.07-4.24,6.22-.5.84-.71,2.06-.57,3.03.51,3.64,1.26,7.24,1.82,10.87.08.5-.43,1.09-.79,1.91-.43-.71-.72-1.18-1-1.66-.44.57-.41,1.06-.35,1.54.15,1.24.91,2.92.37,3.62-1.39,1.81-1.27,3.03-.1,3.73-1.71,8.53-1.64,16.39,1.16,24.19-1.82-.58-2.8.02-1.98,2.24.35.96,1.09,1.8,1.35,2.77.34,1.27.56,2.63.5,3.93-.11,2.31-.82,4.62-.66,6.89.35,4.89,1.11,9.75,1.68,14.62.04.36.03.75-.03,1.11-.41,2.33,1.57,7.22,2.72,7.94.48,2.52.19,5.39,1.39,6.29,1.79,1.35,1.29,2.71,1.56,4.19.41,2.26.49,4.72,1.48,6.72,2.23,4.51,4.99,8.75,7.41,13.17.97,1.78.75,4.59,4.05,4.01.13-.02.38.59.75,1.19Z"/>
  <path d="M325.41,363.61c.31-4.28,5.19-3.42,6.39-6.06-.27-.78-.83-1.96-.68-2.06,1.4-.93,2.88-2.24,4.41-2.34,2.73-.17,3.58-1.56,3.85-3.86.01-.09,0-.19,0-.28.23-1.72,2.56-3.65,4.11-3.01,1.2.5,1.79.56,2.72-.39,1.17-1.21,3.58-.78,3.83-3.45.14-1.45,5.8-2.29,7.54-1.36.28.15.62.6.77.54,4.42-1.99,8.75,1.2,13.18.2,1.99-.45,2.43,1.01,2.48,2.73.13,4.75-.9,9.28-2.15,13.81-1.18,4.27-2.44,8.57-3.03,12.95-1.03,7.57-4.63,13.64-9.55,19.24-1.94,2.21-3.88,4.76-4.72,7.49-.94,3.08-3.48,3.96-5.39,5.74-2.66,2.49-5.25,5.07-7.92,7.56-2.49,2.33-5.26,4.39-7.52,6.92-2.85,3.19-6.59,5.64-8.3,9.81-.35.86-1.1,1.64-1.85,2.25-3.84,3.12-7.84,6.05-11.57,9.3-1.12.97-1.56,2.72-2.29,4.13-1.08,2.06-2.15,4.12-3.21,6.19-.16.3-.43.66-.37.94.84,3.94-1.87,6.23-4.01,8.8-.27.33-.41.78-.56,1.19-1.12,2.98-2.13,6-3.39,8.93-1.08,2.51-2.43,4.91-3.68,7.35-.21.4-.78.81-.72,1.12.61,3.1-1.29,5.55-2.14,8.24-1.08,3.45-2.44,6.83-3.84,10.17-.83,1.97-1,4.16-3.36,5.55-1.26.74-2.13,3.43-1.93,5.09.53,4.4-2.88,7.44-3.29,11.47-.37,3.69-1.59,7.3-1.85,10.98-.34,4.8,0,9.64-.18,14.45-.1,2.8-1.41,5.73-.88,8.34,1.93,9.5.58,19.03.93,28.53.29,7.7.05,15.43.41,23.13.18,3.71,1.33,7.37,1.82,11.08.51,3.88.27,7.92,1.25,11.65,1.28,4.86,2.34,9.66,2.35,14.69,0,.53.09,1.18.39,1.59,3.28,4.49,3.05,9.77,3.71,14.93.35,2.69,1.98,5.23,3.07,7.82.13.31.74.5.74.76.12,5.03,4.19,8.26,5.79,12.69,1.95,5.39,5.33,10.28,8.34,15.23.54.89,2.28,1.06,3.15,1.43.84,2.49,2.23,4.86,2.32,7.27.14,3.87,2.91,7.94-.94,11.75-1.28,1.27-1.18,3.86-1.95,5.74-1.36,3.28-2.6,6.67-4.52,9.61-.83,1.28-3.14,1.75-4.88,2.24-4.48,1.27-7.86-1.88-11.69-3.18-4.31-1.46-6.95-4.81-9.2-8.53-1.24-2.05-2.06-5.12-3.86-5.89-3.55-1.51-2.58-4.31-3.32-6.71-.33-1.09-1.45-1.91-1.97-2.97-.96-1.96-1.75-4-2.57-6.02-.44-1.07-.73-2.21-1.22-3.26-1.64-3.51-3.17-7.09-5.04-10.48-3.1-5.61-6.47-11.07-9.66-16.63-.9-1.58-1.65-3.25-2.34-4.94-.81-1.96-1.42-3.99-2.23-5.95-.87-2.12-2.72-3.92-1.77-6.58.18-.49-.2-1.26-.48-1.81-2.27-4.45-2.4-9.3-2.84-14.13-.38-4.16-1.27-8.26-1.78-12.41-.75-6.04-1.66-12.09-1.98-18.16-.59-11.14-.89-22.29-1.1-33.44-.05-2.81.71-5.64,1.05-8.46.1-.83-.07-1.7.03-2.53.26-2.07-1.02-4.44,1.35-6.13.52-.37.78-1.51.72-2.26-.49-5.68.9-11.03,2.59-16.35.03-.09.06-.18.07-.27,1-5.21,1.64-10.53,3.1-15.61,1.97-6.86,4.58-13.54,6.91-20.3,1-2.89,1.85-5.84,2.97-8.68,2.07-5.27,4.49-10.42,6.38-15.75,1.19-3.37,1.42-7.09,2.57-10.48,1.57-4.63,3.65-9.09,5.41-13.66.78-2.04,1.67-4.14,1.89-6.27.38-3.76,2.4-6.92,3.33-10.33,1.3-4.75,4.54-8.5,5.53-13.24.05-.25.25-.48.38-.71,2.56-4.37,5.15-8.72,7.66-13.12.76-1.34,1.31-2.8,1.92-4.22.71-1.67.23-4.17,3.11-4.35.2-.01.62-1.07.47-1.46-1.24-3.15,1.43-4.31,2.94-6.1,1.5-1.77,2.99-3.56,4.33-5.44,1.8-2.53,3.18-5.43,5.27-7.68,2.35-2.53,5.17-4.68,8.01-6.67,2.2-1.54,4.76-2.58,7.15-3.86.23-.13.56-.36.57-.57.24-2.89,2.77-2.5,4.48-3.19Z"/>
  <path d="M648.5,273.3c-1.64,3.89-3.15,7.85-4.95,11.66-2.08,4.39-4.41,8.66-6.68,12.97-1.15,2.18-2.42,4.3-3.56,6.48-1.61,3.07-3.17,6.16-4.75,9.25-.12.24-.23.52-.42.7-1.64,1.53-3.19,3.19-5,4.5-1.18.85-2.74,1.2-4.15,1.7-.57.2-1.27.09-1.79.37-3.97,2.12-8.02,3.64-12.64,4.03-4.17.36-8.23,1.82-12.36,2.67-4.95,1.02-10.18,1.27-14.84,3.02-7.2,2.7-14.33,1.17-21.42.71-4.63-.3-9.25-1.9-13.72-3.39-2.99-1-5.81-2.69-6.7-6.26-.12-.49-1-.93-1.61-1.15-2.88-1.03-3.92-2.96-3.77-6.02.06-1.38-1.03-2.8-1.58-4.22-1.26-3.23-1.08-6.56-.63-9.89.45-3.27,4.17-6.38,7.47-5.91,2.65.37,5.18,1.59,7.82,1.93,3.78.48,7.63.81,11.42.66,8.79-.36,17.6-.75,26.34-1.71,5.62-.62,11.12-2.31,16.69-3.42,1.5-.3,3.07-.36,4.6-.34,4.32.07,7.25-2.27,9.06-6.2,1.46-3.16,3.85-5.88,5.62-8.92,2.02-3.47,3.79-7.09,5.71-10.62,1.76-3.23,3.82-6.31,5.3-9.65,2.14-4.82,3.93-9.79,5.77-14.73,1.08-2.89,2.01-5.84,2.95-8.79.24-.77.16-1.64.43-2.4.48-1.37,1.14-2.67,1.67-4.03.39-.99,1.12-2.06,1-3.01-.49-3.86,1.41-6.85,3.21-9.9.23-.39.6-.73.7-1.14,1.07-4.65,1.97-5.68,6.34-4.72,5.26,1.15,10.83,2.48,11.77,9.32,3.76,3.32,2.23,8.45,4.21,12.46,1.18,2.38,1.14,5.44,1.34,8.21.48,6.61,2.25,12.84,4.81,18.92.62,1.47.69,3.18.92,4.8.59,4.07,1.14,8.14,1.69,12.21,1.11,8.33,2.32,16.65,3.26,25,.4,3.56.38,7.18.28,10.77-.13,4.47-.23,8.99-.96,13.39-.3,1.81-1.98,3.92-4.43,3.59-3.77-.51-7.52-.89-10.1-4.67-1.74-2.55-4.6-4.33-6.86-6.55-.57-.56-1.02-1.46-1.13-2.26-1.26-9.04-2.41-18.11-3.68-27.15-.43-3.05-1.14-6.06-1.64-9.11-.15-.92-.02-1.88-.02-2.82-.34-.11-.68-.21-1.01-.32Z"/>
  <path d="M319.35,714.49c.45-.3.91-.6,1.36-.91-.02-.19.02-.47-.07-.54-2.02-1.38-3.75-2.55-3.63-5.71.09-2.25-.54-4.34.43-6.73,1.07-2.63,1.01-5.69,1.76-8.48,1.08-4.09,2.42-8.11,3.7-12.14.12-.38.55-.8.94-.95,2.65-1.01,2.59-3.56,3.45-5.67,1.29-3.15,2.99-6.14,4.5-9.2,1.47-2.97,2.76-6.05,4.41-8.92,2.43-4.24,5.14-8.33,7.67-12.52,1.11-1.83,2.07-3.74,3.08-5.63,2.17-4.07,4.37-8.12,6.47-12.22.86-1.68,1.32-3.58,2.28-5.18,1.44-2.4,3.29-4.56,4.75-6.95,2.8-4.59,5.62-9.2,8.11-13.96,1.28-2.46,1.76-5.33,2.83-7.91,1.43-3.42,3.04-6.76,4.67-10.09,1.85-3.8,3.9-7.52,5.68-11.35,1.54-3.32,2.79-6.76,4.21-10.13.38-.88,1.03-1.65,1.41-2.53.88-2.06,1.66-4.16,2.48-6.25.72-1.83.36-3.84,2.17-5.56,1.35-1.29,1.42-3.98,1.93-6.08.4-1.68.5-3.43.95-5.09.27-.99.95-1.86,1.34-2.6-.29-.52-.87-1.08-.77-1.46.18-.69.74-1.3,1.2-1.91.49-.66,1.29-1.18,1.54-1.91,2.42-7.01,4.75-14.05,7.12-21.08.36-1.08.39-1.04,1.75-1.02.3,0,.6-.35.91-.54.5-.31,1.01-.61,1.51-.92.28.54.82,1.1.77,1.6-.05.51-.69.95-1.03,1.38,1.43.75,1.22.67,1.81-.87.46-1.21,1.37-2.82,2.4-3.11,1.14-.32,3.4.27,3.85,1.15,1.41,2.75,3.15,5.85,3.02,8.74-.26,5.79-1.67,11.53-2.61,17.29-.06.36-.18.73-.14,1.08.62,5.4-1.96,10.2-2.81,15.32-.43,2.58-.61,5.2-1.12,7.76-.47,2.33-1.18,4.61-1.91,6.88-1.54,4.8-3.12,9.6-4.76,14.37-.76,2.21-1.72,4.36-2.54,6.55-.87,2.36-1.62,4.76-2.53,7.1-.47,1.21-.94,2.54-1.81,3.45-1.58,1.66-1.75,3.51-2.15,5.66-.58,3.14-2.54,6.03-3.9,9.03-1.6,3.54-3.14,7.1-4.81,10.61-1.47,3.1-3.08,6.12-4.63,9.19-1.18,2.35-2.25,4.77-3.56,7.04-1.36,2.36-3.61,4.41-4.3,6.92-1.03,3.69-4.08,6.01-5.29,9.45-.12.34-.31.67-.47,1-1.88,3.95-3.66,7.95-5.68,11.83-1.37,2.63-3.08,5.09-4.66,7.61-.23.38-.69.62-.88,1.01-1.14,2.34-1.71,5.25-3.47,6.94-2.48,2.4-2.38,5.59-3.81,8.24-2.18,4.06-4.23,8.19-6.29,12.31-.52,1.05-.98,2.15-1.25,3.29-.39,1.63-.25,3.45-2.4,4.11-.43.13-.69,1.01-.93,1.58-.67,1.63-.98,3.52-2,4.86-1.53,2.01-3.6,3.42-4.47,6.12-.66,2.05-5.22,2.18-7.57.77-2.08-1.25-4.19-2.44-6.35-3.55-.42-.22-1.11.07-1.67.12-.07-.23-.13-.47-.2-.7Z"/>
  <path d="M621.39,434.35c1.58-1.94,3.5-1.66,5.71-1.53,2.75.17,5.56-1.01,8.33-.95,3.96.09,7.18-2.19,10.89-2.71.76-.11.81-2.24,2.04-.67.27-.63.54-1.25.82-1.88,1.58.73,1.87.5,2.02-1.58.03-.41.59-1.12.9-1.11,2.18.03,2.45-1.49,2.79-3.09.88-4.22,2.3-8.39,2.6-12.64.36-4.96-.3-10-.38-15-.03-2.06.46-4.13.4-6.19-.08-2.71-.56-5.41-.73-8.12-.27-4.42-.62-8.86-.53-13.28.03-1.59,1.26-3.15,1.9-4.74.13-.32-.01-.74.07-1.09.81-3.4,1.32-7.17,5.39-8.22,2.1-.54,4.59-1.74,6.87.67-1.14.45-2.07.82-3.01,1.19.07.14.14.29.2.43,2.54,0,5.23.52,7.6-.13,2.8-.77,4.1.82,5.11,2.46,2.99,4.86,4.62,10.24,4.93,15.95.42,7.79.96,15.57,1.03,23.36.04,4.27-.6,8.57-1.27,12.81-.63,4.03-1.39,8.08-2.65,11.95-1.06,3.26-3.02,6.21-4.37,9.38-1.42,3.33-2.27,6.81-4.65,9.83-1.55,1.96-1.37,5.18-2.58,7.52-1.74,3.35-3.53,6.97-6.24,9.45-4.48,4.1-7.33,10.17-13.96,11.84-5.65,1.42-11.22,2.82-17.17,2.1-2.63-.32-4.63-.83-6.6-2.91-1.76-1.85-4.54-2.78-6.94-3.96-2.53-1.24-5.14-2.31-7.71-3.46-.08-.04-.18-.08-.23-.15-2.01-3.4-4.02-6.79-6-10.21-.21-.35-.36-1.14-.22-1.23,2.3-1.52,1.93-3.88,2.39-6.14.39-1.9,1.88-3.95,3.48-5.12,1.28-.94,3.44-.73,5.23-.91,1.41-.14,2.84-.03,4.24-.21.33-.04.57-.84.85-1.28-.18-.13-.36-.27-.53-.4Z"/>
  <path d="M482.47,284.69c-1.42,4.09-2.8,8.13-4.23,12.15-1.51,4.24-2.93,8.52-4.65,12.67-1.23,2.97-3.05,5.69-4.31,8.64-.91,2.12-1.13,4.52-2.04,6.64-.6,1.41-1.86,2.53-3.07,4.1-1.4-1.58-2.43-2.72-3.43-3.88-.29-.34-.52-1.07-.77-1.07-3.11.03-3.22-2.64-4.29-4.52-.89-1.58-1.04-3.82-3.53-4.17-.34-.05-.76-1.21-.75-1.85.11-4.32-.24-8.75.64-12.93,1.74-8.33,4.18-16.52,6.32-24.77,1.01-3.91,1.98-7.83,3.02-11.74.23-.86.69-1.66,1.06-2.49,1.07-2.44-.83-4.49-.89-6.77-.07-2.94-.67-6.13.23-8.78,1.47-4.36,1.25-8.78,1.26-13.1,0-4.28,2.47-7.2,4-10.63.36-.81,2.1-1.62,3.01-1.44,3.51.67,7.67-.35,10.14,3.53.32.51,1.71.26,2.19.76,1.55,1.6,3.14,3.24,4.28,5.13,1.89,3.12,3.54,6.41,5.12,9.71.77,1.61,1.13,3.42,1.69,5.12,1.45,4.39,3,8.75,4.35,13.17.83,2.7,1.19,5.54,2.07,8.21,1.43,4.38,3.24,8.63,4.64,13.02,1.3,4.06,2.18,8.26,3.43,12.34.38,1.24,1.73,2.22,2.01,3.46,1.27,5.65,2.37,11.35,3.44,17.04.48,2.58,1,5.2,1.07,7.81.08,3.09-.28,6.2-.51,9.29-.12,1.55-.85,2.36-2.61,2.49-5.35.4-8.3-3.11-11.12-6.7-2.08-2.64-3.65-5.82-5.55-8.39-2.29-3.11-3.12-6.46-4.77-9.59-2.5-4.73-2.13-10-4.17-14.69-1.14-2.6-2.21-5.24-3.29-7.79Z"/>
  <path d="M697.37,412.02c2.86-3.94,2.2-4.26-.39-6.61-.7-.64-1.12-2.01-1.05-3,.15-2.19.21-4.59,1.17-6.46,1.64-3.17,3.93-6,5.98-8.95.25-.36.68-.65,1.09-.82,4.54-1.94,9-4.15,13.67-5.71,7.54-2.51,15.32-4.18,23.3-4.51,1.13-.05,2.29.97,3.45,1.44.69.28,1.41.6,2.14.67,2.28.21,4.62.06,6.84.51,4.26.87,8.47,2.03,12.69,3.12,1.92.5,3.81,1.1,5.7,1.7,4.42,1.42,7.25,5,9.82,8.39,1.14,1.5.12,4.65.03,7.05-.01.33-.46.63-.5.97-.65,6.25-6.26,7.75-10.32,10.69-.78.56-2.03.92-2.96.77-10.14-1.63-20.34-1.52-30.54-.98-1.56.08-3.09.89-4.63,1.41-3.42,1.15-6.8,2.42-10.25,3.48-4.58,1.41-9.17,2.78-13.83,3.88-1.15.27-2.8-.22-3.79-.95-2.16-1.57-4.04-3.52-6.06-5.28-.39-.34-.93-.49-1.57-.82Z"/>
  <path d="M770.13,476.43c-6.22-.8-12.44-1.67-18.68-2.37-6.41-.72-12.83-1.39-19.26-1.89-6.63-.52-13.28-.85-19.93-1.2-8.54-.45-10.06-9.01-8.61-15.27,1.62-7,7.63-10.4,11.27-15.67,1.28-1.85,4.74-2.53,7.34-3.06,4.26-.87,8.62-1.34,12.96-1.67,2.05-.16,4.17.37,6.25.64,2.99.38,6.02.62,8.94,1.29,1.94.44,3.68,1.68,5.59,2.32,5.29,1.76,10.69,3.19,15.91,5.13,4.01,1.49,7.81,3.55,11.7,5.36.41.19.79.48,1.22.64,3.21,1.19,3.63,2.99,1.82,6.04-.99,1.66-1.44,3.64-2.09,5.49-.85,2.43-.96,5.62-2.62,7.17-2.98,2.79-6.87,4.62-10.41,6.79-.33.21-.91.03-1.37.03,0,.08-.02.16-.03.24Z"/>
  <path d="M443.77,458.37c-.96-.44-1.7-.79-2.72-1.26-.26.95-.49,1.79-.72,2.62-.53,1.9-3.31,3.4-5.01,2.51-.44-.23-.73-1.55-.49-2.12.51-1.23,1.9-2.25,2.01-3.44.12-1.37-.73-2.83-1.26-4.22-.02-.04-1.14.34-2.36.72,0-1.93-.04-3.61.02-5.28.03-.73.29-1.44.39-2.17.71-4.98,1.46-9.96,2.07-14.95.24-1.96.07-3.96.18-5.94.1-1.73.48-3.44.5-5.17.07-5.78-.13-11.57.08-17.34.22-5.77.96-11.52,1.19-17.29.18-4.59-.3-9.21-.06-13.8.18-3.44.99-6.85,1.65-10.26.12-.59.82-1.48,1.32-1.53,2.49-.23,5.01-.2,7.51-.3,1.28-.05,2.56-.07,3.82-.23,4.65-.59,8.62,3.66,8.34,8.55-.06,1.1-.07,2.22,0,3.32.51,8.42-.82,16.69-1.69,25.02-.59,5.64-.23,11.36-.47,17.04-.09,2.17-.71,4.3-.94,6.47-.1.94.2,1.92.31,2.89.53,4.52-1.46,8.59-2.38,12.85-1.32,6.11-3.83,11.93-4.33,18.27-.23,2.92-3.29,5.48-4.63,4.22-1.82-1.71-1.72-.03-2.34.81Z"/>
  <path d="M517.33,401.42c.27-4.94.52-8.77.68-12.6.17-4.07.39-8.14.34-12.2-.07-6.04,2.96-11.07,5.18-16.34.36-.86,2.27-1.4,3.52-1.51,3.42-.32,6.95.44,10.18-1.59.52-.33,1.96.61,2.87,1.15,2.94,1.75,4.63,4.62,6.39,7.4.28.45.73,1.01.66,1.44-.93,5.52-1.37,11.22-3.11,16.49-1.74,5.25-4.83,10.05-7.3,15.07-1.28,2.59-2.25,5.37-3.8,7.77-1.37,2.13-3.15,4.14-5.16,5.65-.77.58-2.84-.06-4.03-.68-1.24-.66-2.43-1.81-3.12-3.04-1.43-2.54-2.5-5.27-3.3-7Z"/>
  <path d="M590.39,358.79c.3-.69.58-2.53,1.25-2.69,2.17-.51,4.6-2.25,6.39.19.43-1.01.61-2.44,1.31-2.78.84-.4,2.12.14,3.28.28-.65,1.6-1.14,2.79-1.63,3.98.16.18.33.36.49.53.74-.5,1.49-1.01,2.37-1.6-.53-.42-.88-.7-1.5-1.19.84-.25,1.79-.8,2.1-.55.49.39.58,1.31.76,2.03.07.28-.08.61-.15.99,2.71.46,2.67-1.39,2.77-3.1.26-.13.51-.27.77-.4.8,1.07,2.21,2.08,2.3,3.21.31,3.82.15,7.67.16,11.51,0,1.57-.17,3.15-.01,4.7.55,5.37-1.5,10.04-3.77,14.67-1.35,2.75-2.52,5.59-4.04,8.24-2.15,3.75-6.2,4.15-9.06,1.09-2.93-3.13-5.51-7.38-5.96-10.39-.23-1.55.15-3.19.07-4.77-.19-3.35-1.01-6.77-.56-10.01.22-1.59,1.32-3.24,1.14-5.1-.18-1.89-.59-3.79-.46-5.65.07-.95,1.1-1.83,1.98-3.19Z"/>
</svg>