<?xml version="1.0" encoding="UTF-8"?>
<svg id="Layer_1" xmlns="http://www.w3.org/2000/svg" viewBox="0 0 1024 1024">
  <path d="M782.35,445.44c-5.43,4.1-14.9,2.76-18.12-3.42-4.9-9.39-8.51-19.44-13.15-28.98-4.35-8.94-8.76-17.94-14.19-26.24-5.55-8.49-13.48-10.74-23.18-7.08-11.05,4.18-21.95,5.46-33.19,1.32-3.16-1.17-6.41-2.27-9.28-3.99-4.41-2.64-8.38-1.17-11.02,1.89-7.95,9.19-18.6,11.34-29.73,12.49-3.12.32-5.35.13-6.67,4.23-1.83,5.68-8.18,8.15-16.84,6.05-8.59-2.09-16.86-5.64-25.12-8.93-5.32-2.12-10.17-5.65-15.62-7.17-3.34-.93-8.02-.32-11.04,1.42-8.17,4.71-13.77,11.87-17.65,20.68-2.17,4.94-4.28,11.1-12.29,9.97-8.74-1.23-14.77-12.51-9.96-19.84,5.61-8.54,11.72-16.75,17.28-25.32.89-1.37.73-5.18-.14-5.66-11.39-6.19-23.88-7.84-36.65-7.75-.79,0-1.58,1.19-4.5,3.54,3.12,2.07,7.03,3.26,7.83,5.54,1.21,3.46,1.85,9.88-.02,11.23-12.51,8.97-18.72,22.45-26.52,34.74-6.37,10.02-12.44,20.32-15.03,32.15-.82,3.74-1.83,7.55-1.84,11.33-.01,4.78-2.62,7.63-6.46,8.47-2.64.58-6.35-.43-8.61-2.08-4.04-2.95-7.37-6.53-7.74-12.42-.43-6.76-2.51-13.4-3.36-20.15-1.61-12.69,6.05-22.41,11.71-32.44,5.3-9.39,12.31-17.82,18.51-26.71.96-1.37,1.63-2.94,3.16-5.75-4.08.62-7.2.62-9.97,1.59-12.01,4.23-23.96,8.66-35.83,13.29-1.54.6-2.95,2.64-3.55,4.32-4.41,12.34-9.46,24.54-12.61,37.21-2.93,11.75-4.21,23.97-5.34,36.07-.59,6.34,1.27,12.9.89,19.29-.2,3.31-2.22,8.56-4.55,9.28-4.88,1.5-11.13,1.57-13.48-5.06-2.09-5.91-4.35-11.97-5.04-18.12-1.46-13.04-1.89-26.2-2.88-39.29-.1-1.26-1.15-2.46-2.25-4.65-2.45,2.72-4.43,4.62-6.07,6.77-5.98,7.84-11.65,15.93-17.85,23.59-3.07,3.79-1.74,7.34-1.4,11.38.87,10.33.83,20.74,1.56,31.09.28,3.96,1.66,7.84,2.51,11.76.89,4.12,2.43,8.26,2.37,12.37-.04,2.67-1.88,6.8-3.93,7.58-2.64,1-6.9.2-9.43-1.42-8.25-5.29-11-14.64-15.06-22.87-1.99-4.03-3-8.63-3.88-13.09-.78-3.94-1.37-7.98-6.61-5.34-9.69,4.88-19.03,10.46-28.69,15.4-5.09,2.6-4.88,6.94-5.29,11.5-.34,3.76-.6,7.92-2.39,11.06-3.62,6.39-5.02,11.95-1.1,19.03,2.45,4.42,2.82,10.19,3.28,15.43.41,4.71-3.92,7.53-7.95,5.13-12.38-7.37-24.49-15.09-23.38-32.41.14-2.14-1.31-5.86-2.78-6.29-2.21-.65-5.24.61-7.64,1.67-4.57,2.02-5.73,6.21-6.6,10.81-.69,3.64-3.29,6.99-3.65,10.61-.91,9.2-.79,18.51-1.63,27.72-.22,2.45-1.91,5.4-3.86,6.85-1.51,1.11-5.6,1.21-6.63.06-4.09-4.58-8.36-9.28-7.66-16.36.62-6.24-2.06-11.39-6.85-15.29-1.16-.94-3.3-1.75-4.54-1.33-12.41,4.21-19.95,15.14-19.96,28.44,0,2.83.53,5.81-.22,8.43-.61,2.15-2.5,5.07-4.3,5.46-2.27.5-5.97-.43-7.41-2.13-8.69-10.28-9.83-6.25-17.62-4.02-11.42,3.27-23.42,4.56-34.75,8.06-7.56,2.33-14.43,6.95-21.46,10.81-.96.53-1.87,3.23-1.39,3.86.85,1.13,2.73,1.84,4.27,2.02,8.28,1.02,16.61,1.58,24.85,2.84,2.79.43,5.25,2.73,8.04,3.61,5.03,1.58,10.13,3.53,15.31,3.89,9.11.63,18.31-.26,27.43.26,21.96,1.27,43.33-1.52,64.21-8.25,6.85-2.21,13.48-5.27,20.45-6.83,5.17-1.15,10.75-.75,16.14-.62,11.07.27,22.13,1.1,33.2,1.19,20.27.17,40.27,1.59,60.18,6.25,18,4.22,36.57,6,54.72,9.63,9.32,1.86,18.19,5.9,27.48,8.07,7.88,1.84,16.03,2.8,24.11,3.43,13.68,1.07,26.64,3.34,39.07,10.24,11.25,6.24,23.94,9.92,36.01,14.67,5.75,2.26,11.59,4.29,17.31,6.61,13.97,5.66,28.31,4.44,42.72,2.57,1.5-.2,3.05-.1,4.57-.05,19.95.69,39.37-3,58.93-6.34,22.41-3.83,43.71-11.09,64.98-18.52,13.39-4.67,26.34-10.6,39.46-16.03,1.15-.47,2.08-1.46,3.06-3.54-3.5,0-7,.06-10.5-.01-15.49-.31-29.29-4.26-40.1-16.45-10.5-11.84-16.54-7.4-25.41-.25-5.14,4.14-12.21,3.18-17.02-2.74-3.33-4.11-1.96-12.78,2.66-15.87,14.72-9.84,29.46-19.65,44.24-29.38,4.65-3.06,9.68-1.69,13.37,3.34,4.11,5.61,4.14,11.92.08,15.7-.32.3-.65.58-.99.85-11.83,9.17-11.33,14.01,2.6,20.33,10.33,4.68,20.31,7.03,31.8.98,6.75-3.56,15.85-3.66,23.86-3.52,6.17.11,10.92,4.62,13.49,12.45,3.72-1.42,7.49-2.48,10.88-4.25,6.23-3.26,12.38-6.73,18.31-10.5,7.55-4.79,14.85-9.96,22.25-14.99,13.34-9.07,26.91-17.83,39.86-27.44,4.35-3.23,8.36-8.12,10.32-13.12,7.45-18.99,14.01-38.33,20.88-57.54,1.14-3.2,2.32-6.39,3.26-9.65,1.2-4.17-3.5-11.25-9.74-13.84-5.07-2.1-10.38-3.93-15.76-4.9-4.72-.85-9.64.06-11.8,5.37-4.16,10.2-8.12,20.48-12.13,30.74-3.08,7.87-5.67,15.97-9.3,23.58-2.26,4.76-9.34,5.68-14.16,2.77-5.01-3.03-2.53-7.07-1.21-10.78,2.97-8.35,6.11-16.64,9.66-26.24-4.15-.83-7.35-2.05-10.53-2.02-12.99.13-25.78-.87-38.08-5.37-3.18-1.16-6.2-2.8-9.29-4.22-7.32-3.37-14.63-6.75-21.95-10.1-3.36-1.54-7.74-2.19-6.73-7.58,14.37-2.58,26.26,4.37,38.77,8.88,12.66,4.57,25.6,7.14,39.04,3.46.82-.23,1.65-.78,2.44-.73,10.57.7,15.58-5.92,18.1-14.62,3.33-11.51,7.03-9.62,16.63-8.53,10.79,1.22,21.49,3.63,32.05,6.24,10.43,2.59,19.41,7.82,22.57,18.98,1.02,3.59.65,7.99-.35,11.67-4,14.74-8.44,29.35-12.84,43.98-1.04,3.44-2.53,6.75-3.87,10.09-3.77,9.47-7.48,18.98-11.44,28.37-.71,1.68-2.35,3.2-3.92,4.24-15.1,10-30.21,19.97-45.44,29.78-15.24,9.81-30.15,20.27-46.06,28.85-14.17,7.64-29.47,13.26-44.38,19.5-12.95,5.42-25.89,10.99-39.15,15.56-16.88,5.81-33.95,11.2-51.2,15.81-16.05,4.3-32.4,7.48-48.68,10.86-5.86,1.22-11.88,2-17.86,2.23-17.99.67-35.99,1.24-53.99,1.3-13.1.04-24.87-5.39-36.75-10.28-5.39-2.22-11.23-3.36-17.37-5.14-1.12,12.85-10.2,18.5-18.01,24.38-5.37,4.04-9.65,10.24-17.63,10.83-8.05.6-16.08,2.09-23.99,3.81-6.76,1.47-13.71,3.01-19.92,5.92-19.02,8.94-39.67,10.91-59.85,14.84-6.08,1.18-12.44.94-18.66,1.42-5.26.4-10.37-.11-12.22-5.9-1.87-5.86-1.33-11.56,3.13-16.59,12.8-14.46,28.62-24.1,46.99-29.64,7.67-2.32,15.16-4.15,16.6-14.02,1-6.88,6.4-10.84,11.75-14.55,1.25-.87,2.38-1.9,5.36-4.32-10.05-3.38-18.17-6.91-26.66-8.77-13.37-2.93-26.98-4.79-40.5-7.01-18-2.96-35.74-7.72-54.31-6.34-8.89.66-12.01,2.08-14.95,10.3-3.64,10.16-8.03,20.2-10.26,30.68-1.9,8.94-2.07,18.49-1.43,27.66.78,11.08-3.07,20.5-7.83,29.82-4.48,8.77-13.39,11.11-21.71,6.15-2.53-1.51-5.09-3.42-7.87-3.97-3.05-.61-6.66-.64-9.5.46-5.63,2.17-10.47,7.77-17.1,5.17-4.51-1.77-8.84-4.76-12.35-8.13-3.54-3.4-7.09-7.57-8.66-12.08-4.57-13.13-1.45-24.93,6.75-36.32,8.9-12.38,16.39-25.77,24.49-38.72-.41-.86-.81-1.73-1.22-2.59-3.24.18-6.53.05-9.7.59-7.09,1.21-14.1,3.76-21.2,3.97-18.94.57-37.91-.03-56.86.28-11.47.19-22.39-1.28-32.03-7.81-8.06-5.45-17.49-3.27-26.15-5.29-1.45-.34-3.2.31-4.53-.21-4.67-1.82-11.68-.39-12.79-7.53-1.29-8.29-.68-16.65,6.6-22.23,12.2-9.34,26.07-14.42,41.33-17.34,15.11-2.89,30.66-6.63,40.85-20.14,2.26-2.99,3.65-8.62,6.18-9.08,16.49-3.04,27.56-15.78,42.05-22.38,15.45-7.03,29.73-16.59,44.81-24.51,8.08-4.25,17.08-6.79,25.09-11.14,14.28-7.77,28.96-15.21,41.93-24.85,13.97-10.39,23.42-25.47,34.2-39.1,8.23-10.41,18.05-19.57,26.34-29.95,10.8-13.53,26.51-19.08,41.31-25.29,18.75-7.87,38.3-14.35,58.05-19.23,27.05-6.67,52.91-1.86,76.08,14.13,13.28,9.16,27.6,16.04,42.76,21.33,1.3.45,3.02,1.07,4.09.59,13.42-6.05,28.25-5.87,42.15-9.72,3.2-.89,6.66-1.84,9.25-3.77,10.01-7.45,20.41-6.61,31.02-2.07,6.32,2.7,12.25,2.56,18.64-.08,10.45-4.32,21.66-4.1,32.55-2.86,8.67.98,13.36,8.77,17.92,15.14,10.61,14.83,17.74,31.51,23.73,48.68,2.01,5.78,4.34,11.44,6.5,17.09ZM271.66,618.67c-.09-.28-.17-.55-.26-.83-3.18,1.02-7.25,1.14-9.36,3.23-5.24,5.2-10.14,10.94-14.19,17.11-9.45,14.42-18.03,29.41-27.53,43.79-4.57,6.93-4.96,13.02-.93,20.22,2.6,4.65,5.06,5.17,9.54,2.9,4.15-2.09,8.64-3.7,13.15-4.83,4.74-1.18,9.17-1.66,13.21,3.23,5.06,6.12,8.51,5.31,12.11-1.99,1.45-2.94,2.22-6.41,2.5-9.7,1.07-12.4.85-24.99,2.97-37.2,1.67-9.65,5.74-18.96,9.36-28.18,2.11-5.39-1.09-6.6-4.74-7.66-1.81-.52-3.89-.09-5.85-.09ZM375.73,707.9c2.91.94,4.54,2.06,5.94,1.83,7.75-1.27,15.61-2.3,23.12-4.48,15.85-4.61,31.48-9.97,47.25-14.87,7.5-2.33,15.01-5.62,22.68-6.15,12.35-.85,21.19-6.32,27.41-16.33,1.3-2.09,1.31-6.36,0-8.43-5.83-9.23-15.79-10.46-25.55-12.23-11.1-2.02-19.88,4.08-29.19,7.82-6.86,2.75-12.13,7.27-13.07,16.26-1,9.54-6.9,14.51-15.61,16.89-12.47,3.41-24.32,9.09-36.34,14.06-2.06.85-3.58,2.98-6.65,5.64Z"/>
  <path d="M562.42,420.22c10.12,2.4,20.2,4.93,30.36,7.16,7.01,1.54,14.67-.23,21.18,4.38.86.61,3.76-.75,5.12-1.9,12.69-10.72,25.33-21.51,37.82-32.47,5.75-5.04,11.51-9.24,19.82-7.17,4.93,1.23,10,7.15,10.29,12.3.26,4.69,1.47,9.44.97,14.02-.31,2.81-2.5,6.02-4.79,7.92-15.24,12.68-30.18,25.63-41.62,42.01-1.01,1.45-.9,4.39-.19,6.21,7.24,18.63,14.61,37.21,22.21,55.7,1.93,4.7,4.97,8.93,7.24,13.5,1.29,2.6,2.78,5.44,2.87,8.21.08,2.38-1.1,5.57-2.87,6.98-1.21.96-4.92.21-6.56-1.03-4.86-3.7-9.79-7.56-13.69-12.2-5.69-6.75-10.65-14.13-15.59-21.47-1.2-1.79-1.36-4.45-1.49-6.74-.23-3.9.85-8.13-.31-11.66-1.39-4.23-4.55-7.88-6.95-11.79-3.05,2.13-6.51,3.85-9.08,6.45-9.27,9.41-18.22,19.13-27.31,28.72-6.24,6.58-12.47,13.17-18.78,19.69-3.56,3.67-10.28,3.51-14.47-.21-4.45-3.95-6.15-11.34-2.83-14.9,6.7-7.16,14.11-13.67,20.64-20.98,6.97-7.81,13.45-16.09,19.77-24.44,3.34-4.4,1.96-8.14-3.37-9.92-5.82-1.95-12.28-2.71-17.45-5.72-11.34-6.61-22.65-13.56-32.77-21.84-5.98-4.9-3.3-13.64-.67-19.42,1.75-3.84,8.31-5.89,13.09-7.82,2.62-1.06,6.02-.19,9.07-.19l.34-1.36ZM633.52,466.96c-2.5-3.19-5.21-5.29-6.07-7.99-2.82-8.93-10.48-11.3-17.9-13.31-5.3-1.43-11.19-.57-16.72-1.38-8-1.17-15.88-3.11-23.87-4.32-1.82-.28-4.88.54-5.56,1.81-.71,1.34.1,4.61,1.39,5.67,3.6,2.97,7.46,6.26,11.79,7.59,12.96,3.97,26.12,7.37,39.34,10.36,5.83,1.32,12.01,1.11,17.59,1.57Z"/>
  <path d="M705.15,507.84c-8.78-.37-15.42-1.31-21.26-6.3-6.07-5.18-7.18-11.56-5.43-18.34,4.19-16.25,13.46-28.93,27.62-38.38,12.93-8.63,34.61-.22,37.53,16.22,2.72,15.3-4.94,24.35-14.38,33.15-5.05,4.71-11.09,8.46-17.03,12.05-2.39,1.44-5.72,1.33-7.04,1.6Z"/>
</svg>