<?xml version="1.0" encoding="UTF-8"?>
<svg id="Layer_1" xmlns="http://www.w3.org/2000/svg" viewBox="0 0 1024 1024">
  <path d="M726.29,538.04c2.41-25.18,5.05-50.33,7.09-75.54.54-6.64-.57-13.46-1.3-20.16-.71-6.49,3.42-9.13,8.28-11.14,5.07-2.09,10.08-3.37,14.16,2.3,4.16,5.78,7.71,11.65,6.8,19.14-2.38,19.53-5.28,39-7.05,58.58-1.67,18.53-1.79,37.19-3.29,55.73-1.43,17.69-3.93,35.3-5.62,52.97-2.03,21.34-7.7,41.69-16.23,61.25-4.68,10.73-10.04,21.18-15.17,31.71-2.61,5.34-6,10.38-7.99,15.93-6.67,18.55-20.49,31.88-33.54,45.46-16.05,16.69-32.57,33.18-50.53,47.71-12.43,10.06-27.03,18.22-41.87,24.23-9.3,3.76-21.02,3.47-31.36,2.31-19.39-2.16-38.56-6.28-57.82-9.57-25.63-4.38-51.35-8.32-75.76-17.97-7.28-2.88-14.85-5.06-22.37-7.26-29.09-8.51-51.37-26.28-69.96-49.77-22.9-28.94-40.68-60.73-53.42-95.16-4.16-11.25-4.49-23.9-6.65-35.9-2.58-14.35-5.96-28.6-7.65-43.05-1.41-12.07-1.02-24.36-1.15-36.55-.15-13.89-.27-27.79.09-41.68.79-30.05,1.42-60.12,3.07-90.13.84-15.24,3.62-30.39,5.86-45.54.27-1.82,2.88-4.88,4.01-4.71,3.98.6,9.04,1.24,11.42,3.9,5.38,6,6.35,13.38,3.24,21.43-2.2,5.68-3.79,11.89-4.14,17.94-.97,16.7-1.08,33.44-1.65,50.16-.85,24.72-2.53,49.43-2.53,74.15,0,33.96,2.87,67.53,10.43,101.02,5,22.14,10.82,43.32,21.33,63.37,11.86,22.62,26.29,43.48,43.24,62.45,12.56,14.06,28.54,23.18,46.66,28.85,19.04,5.96,37.65,13.34,56.79,18.95,11.38,3.33,23.4,4.49,35.15,6.54,14.17,2.47,28.52,4.15,42.48,7.44,23.34,5.51,44.42,3.18,63.2-13.18,10.77-9.38,23.46-16.71,33.48-26.76,27.85-27.94,55.18-56.46,68.95-94.81,5.71-15.9,13.24-31.21,18.03-47.36,5.12-17.28,8.98-35.08,11.55-52.92,2.57-17.88,2.86-36.08,4.14-54.15-.8-.07-1.59-.14-2.39-.21Z"/>
  <path d="M447.67,680.45c-14.65,1.55-30.52,3.22-46.39,4.94-2.59.28-5.41.25-7.69,1.31-7.94,3.69-13.88.19-19.54-4.78-5.22-4.59-5.2-10.04-3.69-16.49,1.07-4.53.52-9.69-.31-14.39-3.06-17.39-5.35-34.8-1.93-52.36.75-3.84,3.6-7.25,4.56-11.09.97-3.88,1.99-8.44.84-12-1.96-6.06-1.08-10.46,3.03-15.17,12.09-13.82,28.37-20.45,44.73-27.18,11.54-4.75,23.5-7.78,35.86-8.19,3.83-.13,9.78,2.5,11.25,5.56,2.83,5.88,7.13,9.08,12.18,12.34,13.12,8.45,9.72,19.56,1.23,30.63-8.76,11.43-21.96,16.06-34.67,20.76-10.65,3.93-21.91,6.34-33.05,8.72-3.52.75-7.57-.53-11.3-1.26-8.79-1.74-15.61,2.83-15.65,12.11-.04,10.31,1.44,20.63,2.19,30.95.27,3.62.43,7.25.52,10.88.24,9.56,1.58,10.42,10.85,9.35,9.59-1.1,19.28-1.24,28.9-2.15,27.68-2.63,55.4-5.22,81.91-14.35,6.25-2.15,11.97-5.83,17.97-8.72,5.86-2.82,11.68-5.77,17.71-8.19,4.71-1.9,14.95,3.66,16.63,8.55,2.15,6.28-.82,12.61-7.49,15.29-7.95,3.2-15.82,6.82-24.06,9.03-8.21,2.2-11.05,7.9-13.83,14.91-5.7,14.35-12.12,28.42-18.29,42.58-5.97,13.72-16.9,23.16-28,32.48-3.64,3.06-6.71,7.38-12.43,4.4-6.3-3.29-12.62-6.61-12.74-15.06-.1-7.37.14-14.74-.09-22.11-.12-3.81-1.45-7.63-1.29-11.4.43-10.05,1.36-20.08,2.08-29.9ZM486.3,676.77c-5.48,7.9-9.81,14.86-14.86,21.25-6.13,7.76-7.69,19.95-1.76,26.07,11.72-14.61,20.89-30.15,26.48-48.69-5.38.75-8.66,1.2-9.86,1.36Z"/>
  <path d="M788.25,300.54c-1.6,28.15-7.15,52.78-17.41,76.59-6.29,14.61-16.67,26.04-25.73,38.57-4.14,5.73-9.79,5.96-15.55,4.31-4.07-1.17-7.89-3.48-11.54-5.73-4.82-2.98-5.2-11.44-.27-13.99,13.31-6.86,21.13-18.14,27.65-31.02,11.74-23.19,19.78-47.19,18.94-73.6-.34-10.69-6.51-15.4-17.02-14.34-14.78,1.49-28.47,5.79-41.03,13.44-8.9,5.42-17.23,11.78-26.01,17.41-6.82,4.37-14.16,7.92-20.87,12.44-6.09,4.1-11.64,1.6-16.86-.84-6.31-2.95-6.66-10.12-.87-14.26,11.82-8.44,23.53-17.12,35.93-24.64,16.5-10.01,33.6-19.02,52.96-22.55,22.59-4.11,41.13,1.19,54.35,20.95,3.38,5.05,2.57,12.9,3.31,17.26Z"/>
  <path d="M267.06,260.53c-.73-24.52,9.45-40.01,28.52-50.32,12.03-6.5,23.88-13.93,38.34-11.72,6.65,1.02,13.58,2.76,19.44,5.93,14.02,7.58,26.25,17.84,34.82,31.35,5.13,8.09,7.9,17.65,12.22,26.3,2.22,4.45-.42,7.21-3.21,8.13-3.25,1.07-8.42,1.38-10.63-.5-5.1-4.33-9.49-9.12-12.46-16.1-4.29-10.06-11.19-19.76-19.18-27.29-11.12-10.48-24.88-7.77-36.77-.56-8.49,5.14-16.68,11.68-23.04,19.25-10.08,12.01-8.77,36.24,3.7,50.44,5.72,6.52,12.2,13.2,12.48,22.67.09,3.08-1.29,6.93-3.38,9.05-1.04,1.05-6.3-.11-7.82-1.86-6.52-7.47-12.41-15.49-18.41-23.4-2.74-3.6-5.52-7.24-7.73-11.17-5.75-10.25-6.88-16.33-6.88-30.19Z"/>
  <path d="M508.25,274.22c-14.96,2.98-30.15,5.14-44.8,9.22-10,2.78-17.43-.49-24.33-6.17-6.44-5.3-5.27-10.57,2.71-12.98,8.27-2.5,16.75-4.66,25.29-5.81,11.92-1.61,23.98-2.91,35.98-2.94,11.05-.03,22.21,1.15,33.11,3.02,6.97,1.2,13.5,4.79,20.34,6.98,3.83,1.23,8.01,1.39,11.78,2.73,10.97,3.89,21.87,7.99,32.69,12.29,5.4,2.15,11.9,15.06,10.53,20.92-.33,1.42-2.63,3.34-4.07,3.38-12.53.33-24.59.77-33.64-11.52-3.53-4.8-11.82-6.72-18.34-8.57-11.64-3.3-23.55-5.66-35.4-8.16-3.75-.79-7.67-.78-11.51-1.14-.11-.42-.23-.83-.34-1.25Z"/>
  <path d="M736.2,337.08c1.61,8.14-1.59,13.34-8,18.56-5.3,4.32-7.88,11.84-12.3,17.43-9.21,11.63-24.69,10.77-33.28-1.5-2.19-3.12-4.06-6.6-6.74-9.22-5.08-4.95-5.58-10.46-1.39-15.46,7.85-9.36,15.51-19.29,25.05-26.65,5.65-4.36,14.71-5.37,22.32-5.68,3.46-.14,8.02,4.45,10.47,8,2.8,4.05,3.8,9.34,5.58,14.09l-1.71.42Z"/>
  <path d="M575.51,481.13c-17.36.1-31.77-6.19-43.61-18.69-5.32-5.62-4.31-13.31,2.32-17.35,9.85-6,19.92-9.36,32.09-8.88,8.57.34,17.64-1.46,24.59,3.76,7.42,5.57,14.83,12.42,19.25,20.37,4.99,8.96-1.73,16.38-15.19,18.68-6.41,1.1-12.96,1.42-19.45,2.1Z"/>
  <path d="M339.51,454.28c-17.36-.23-30.22-11.33-30.94-25.88-.26-5.3,5.32-11.15,8.86-16.33,7.49-10.99,31.29-16.3,42.67-10.19,7.55,4.05,13.52,13.3,12.14,21.85-.21,1.32-.92,2.68-1.74,3.77-3.63,4.83-7.99,9.21-10.94,14.41-5,8.8-13.96,9.58-20.05,12.38Z"/>
  <path d="M329.57,258.31c10.86,1.15,22.61,5.25,29,19.93,2.51,5.76,5.95,10.8,4.87,17.3-.33,1.96-1.52,5.22-2.62,5.36-6.33.78-7.29,4.97-8.56,10.12-1.25,5.09-4.95,7.69-10.44,4.32-9.53-5.84-19.73-10.86-28.3-17.88-3.61-2.96-4.96-10.07-5.15-15.38-.18-4.93,2.04-10.19,4.13-14.89,4.02-9.01,4.29-8.89,17.07-8.88Z"/>
</svg>