<?xml version="1.0" encoding="UTF-8"?>
<svg id="Layer_1" xmlns="http://www.w3.org/2000/svg" viewBox="0 0 1024 1024">
  <path d="M295.61,897.85c-.79,2.04-1.26,2.69-1.26,3.34.04,20.89.67,41.72,7.54,61.78.71,2.07,1.25,4.2,2.14,6.19,2.55,5.69-.56,10.42-6.88,9.13-4.95-1-9.57-3.78-14.2-6.05-.88-.43-1.17-2.2-1.58-3.4-1.82-5.28-2.89-10.95-5.51-15.78-5.5-10.16-7.75-21.09-8.73-32.29-.45-5.18.85-10.52.41-16.12-.67.81-1.43,1.58-2.01,2.45-4.52,6.83-9.02,13.67-13.5,20.52-6.83,10.45-14.65,19.94-25.16,27-4.81,3.23-13.6,1.6-16.29-3.66-.52-1.02-.07-3.35.79-4.14,6.32-5.78,10.13-13.06,13.33-20.81,1.7-4.12,3.8-8.08,5.7-12.12.52-1.11.97-2.25,1.88-4.37-7.09,2.87-13.01,5.56-19.14,7.64-4.34,1.47-9.07,3.22-13.42,2.79-4.3-.42-8.45-3.24-12.41-5.46-.63-.35-.56-3.48.22-4.62,6.39-9.27,15.47-15.31,24.94-21.12,8.3-5.09,15.91-11.32,24.79-17.76-9.37,3.05-17.41,5.77-25.51,8.27-7.41,2.29-14.96,2.48-22.57.96-10.78-2.15-21.58-4.19-32.35-6.39-1.95-.4-3.91-1.12-5.66-2.07-3.93-2.13-3.97-7.51.5-9.28,5.79-2.3,12.07-3.49,18.24-4.7,7.79-1.53,15.63-3.31,23.51-3.66,7.79-.35,15.96-.91,23.63,3.74-2.37,4.23-6.61,3.88-10.1,4.8-8.64,2.28-17.34,4.36-25.2,6.32,7.53,2.2,16.09,1.78,24.49-.76,12.61-3.81,24.26-9.72,34.75-17.67,6.55-4.96,12.76-10.41,18.73-16.06,1.22-1.15,1.17-4.26.83-6.32-1.07-6.5-2.56-12.93-3.89-19.38-1.93-9.38-3.84-18.77-5.82-28.14-3.72-17.59-7.39-34.94-4.13-53.34,4.35-24.54,6.88-49.4,10.45-74.09,1.73-11.99,3.41-24.06,6.31-35.8,1.96-7.92,5.87-15.38,9.14-22.95,4.34-10.04,8.73-20.05,13.43-29.93,3.04-6.39,6.5-12.58,10.04-18.71,8.73-15.11,17.63-30.12,26.44-45.18,5.56-9.5,10.9-19.13,16.68-28.49,9.14-14.81,18.38-29.57,27.94-44.11,10.22-15.55,20.76-30.89,31.38-46.17,6.79-9.76,13.53-19.63,21.15-28.74,7.45-8.91,15.63-17.3,24.15-25.21,8.76-8.14,18.26-15.48,27.55-23.04,1.32-1.08,3.33-1.27,4.93-2.05,1.1-.54,2.16-1.27,3.03-2.13,7.52-7.37,15-14.79,22.48-22.2,7.03-6.97,14.88-12.92,23.69-17.35,8.39-4.22,16.94-8.33,25.81-11.36,11.46-3.91,23.16-7.43,35.01-9.78,11.09-2.19,22.51-2.73,33.8-3.82,6.48-.63,13-.9,20.44-1.39-.88-1.7-1.19-2.74-1.85-3.48-4.8-5.37-3.9-10.81,2.27-14.42,13.13-7.7,26.35-15.25,39.24-23.34,19.15-12.01,38.02-24.49,57.07-36.66,15.25-9.74,30.61-19.31,45.75-28.85-4.92-16.02-8.26-32.6-10.15-49.38-.66-5.86,1-12.11,2.33-18.02.93-4.12,6.65-5.51,10.75-3.2,1.43.81,2.83,1.66,4.81,2.81.86-5.65,1.56-10.64,2.41-15.61.41-2.41.56-5.14,1.84-7.07,1.64-2.48,4.25-5.95,6.51-6.01,2.93-.07,7.49,2.11,8.58,4.56,2.41,5.41,3.2,11.58,4.41,17.48.45,2.21.24,4.55.32,6.84.37.07.74.14,1.11.22,1.67-4.86,4.03-9.61,4.8-14.61.61-3.98,2.27-4.89,5.61-4.79,4.31.13,9.35,4.99,9.3,9.24-.07,6.78-.34,13.56-.5,19.71,3.16,2.36,6.76,4.36,9.43,7.23,2.84,3.05,1.66,6.5-3.29,11.49,1.31.15,2.29.6,2.83.29,7.73-4.56,15.42-9.17,23.05-13.88,1.55-.96,2.65-2.73,4.26-3.51,3.95-1.92,7.43-.17,10.93,4.74,2.58,3.61,1.06,5.89-1.49,8.91-15.03,17.85-35.33,27.97-55.4,38.45-2.29,1.2-4.93,1.91-7.5,2.33-2.53.41-5.17.17-8.49.22.41,6.47.6,12.65,1.23,18.79,1.4,13.61,3.48,27.18,4.39,40.82.63,9.34.39,18.86-.64,28.17-.88,7.95-3.91,15.63-5.14,23.57-1.74,11.15-2.69,22.43-3.99,33.65-1.8,15.48-1.95,31.17-6.2,46.35-1.06,3.79-2.59,5.71-6.67,4.52-.54-.16-1.17-.04-2.38-.05,1.84,3.89,3.19,7.21,4.92,10.3,6.15,10.99,10.82,22.54,13.54,34.87,1.17,5.29,3.12,10.47,3.76,15.81,1.33,11.05,3.25,22.04,1.6,33.34-1.35,9.26-.83,18.81-2.46,27.99-1.22,6.85-3.89,13.67-7.11,19.88-4.44,8.6-9.8,16.76-15.13,24.86-6.95,10.56-16.44,18.79-26.15,26.68-2.8,2.28-2.73,3.45.04,5.14,2.57,1.56,3.56,3.85,2.76,6.7-3.87,13.95-7.89,27.86-11.7,41.82-3.54,12.99-6.61,26.11-10.4,39.03-4.7,16.02-14.28,28.82-28.83,36.93-6.35,3.54-13.66,5.14-21.55.98-7.84-4.14-11.46-11.1-15.71-17.85-9.89-15.67-19.71-31.39-29.33-47.22-3.74-6.15-6.7-12.77-10.29-19.01-2.6-4.52-5.51-8.88-8.65-13.04-.65-.86-3.19-1.13-4.38-.6-5.02,2.24-9.83,4.93-14.77,7.37-10.68,5.27-21.53,10.2-32.02,15.82-7.54,4.05-14.72,8.81-21.85,13.58-15.53,10.38-28.55,23.53-40.75,37.56-5.92,6.81-11.94,13.54-17.57,20.58-3.26,4.07-5.82,8.69-8.73,13.04-8.5,12.73-16.8,25.59-25.58,38.13-7.81,11.16-16.16,21.94-24.26,32.89-.61.83-1.14,1.73-1.74,2.57-9.37,13.18-18.59,26.46-28.15,39.5-6.51,8.87-13.04,17.8-20.34,26-13.67,15.35-28.47,29.62-47.41,38.42-10.89,5.06-19.06,13.32-27.7,21.15-3.6,3.27-7.3,6.44-11.21,9.88,2.04,12.92,6.82,25.16,15.43,35.67,4.46,5.45,9.19,10.72,14.23,15.64,1.69,1.64,4.64,2.3,7.13,2.75,6.45,1.16,10.92,4.04,12.57,10.92.8,3.32-.31,4.46-2.97,3.82-6.69-1.61-13.59-2.99-19.81-5.78-7.95-3.57-15.35-8.4-22.94-12.75-2.79-1.6-5.16-3.23-5.87-7.07-.63-3.38-2.99-6.45-5.13-10.76ZM632.08,248.56c-11.51,1.17-22.68,1.31-33.39,3.61-17.34,3.73-34.46,8.6-51.52,13.52-16.09,4.64-28.87,15.11-41.37,25.64-8.29,6.98-15.72,14.96-23.77,22.23-8.16,7.37-16.51,14.54-24.95,21.59-9.7,8.1-18.78,16.87-26.36,26.9-10.38,13.73-20.18,27.92-29.91,42.13-10.69,15.61-21.06,31.44-31.47,47.25-5.69,8.64-11.41,17.28-16.71,26.16-7.24,12.14-14.04,24.53-21.11,36.76-3.62,6.25-7.44,12.38-11.12,18.6-2.76,4.68-5.59,9.32-8.11,14.13-4.8,9.18-9.44,18.45-14.08,27.71-2.94,5.86-5.85,11.74-8.63,17.68-2.39,5.12-4.64,10.3-6.81,15.51-2.56,6.14-5.89,12.16-7.23,18.57-2.98,14.19-5.08,28.58-7.26,42.93-2.14,14.05-3.89,28.17-5.9,42.24-2.28,15.92-7.03,31.66-3.98,47.99,1.77,9.47,3.87,18.88,5.79,28.32,1.43,7.02,2.94,14.02,4.19,21.07,1.13,6.37,1.95,12.79,2.94,19.4,7.62-3.11,13.7-.92,17.54,5.33,2.65,4.3,3.57,10.51,10.57,10.47,2.57,4.28,5.3,1.13,7.25-.33,9.71-7.25,19.16-14.85,28.79-22.22,1.15-.88,3.28-1.98,4.1-1.51,3.85,2.24,6.45-.23,9.06-2.05,3.65-2.56,7.05-5.5,10.49-8.36,14.44-12.05,25.39-27.22,36.97-41.79,5.39-6.78,10.06-14.14,15.1-21.21,8.47-11.86,17-23.68,25.46-35.55,5.39-7.56,10.78-15.13,16.02-22.79,10.91-15.95,21.69-31.99,32.61-47.93,4.66-6.81,9.49-13.5,14.33-20.19,2.31-3.2,4.51-6.57,7.3-9.31,8.76-8.59,17.68-17.04,26.74-25.32,10.51-9.61,22.22-17.64,34.76-24.31,9.58-5.1,19.64-9.3,29.43-14,7.28-3.5,14.42-7.29,21.72-10.72,8.08-3.8,16.24-7.44,24.44-10.97,4.23-1.82,8.62-3.25,13.32-5-1.37-.9-2.18-1.56-3.09-2.01-7.23-3.6-14.55-6.99-20.08-13.23-6.49-7.33-13.52-14.22-19.61-21.86-3.25-4.07-7.27-8.65-4.79-14.85.61-1.53,1.57-4.05,2.45-4.08,1.67-.07,3.89.9,5.03,2.19,7.45,8.46,14.62,17.16,22,25.69,2.17,2.51,4.34,5.38,7.15,6.9,7.65,4.13,15.6,7.73,23.52,11.35,4.36,1.99,8.76,4.15,13.37,5.24,6,1.43,12.32,1.5,18.35,2.83,12.77,2.81,24.81,0,36.88-3.74,2.96-.92,6.2-.95,9.83-1.46.01-3.16,2.72-5.18,6.29-7.46,13.22-8.43,22.48-20.91,31.62-33.3,6.45-8.75,10.76-19.01,12.85-29.4,2.67-13.2,3.16-26.88,3.9-40.4.3-5.45-1.38-10.98-1.9-16.5-.87-9.29-3.88-17.23-12.62-21.95-1.17-.63-2.25-1.42-3.34-2.18-2.71-1.89-2.95-4.39-.15-6.18,2-1.28,4.57-1.67,7-2.49-3.94-8.17-8.07-16.72-12.25-25.38-2.98.4-6.04.71-9.08,1.22-7,1.18-13.98,3.42-20.97,3.46-9.66.06-19.51-.67-28.95-2.64-8.98-1.88-17.73-5.34-26.24-8.92-8.2-3.45-16.85-6.15-24.06-11.69-3.7-2.84-7.05-6.24-11.03-8.57-9.72-5.66-16.7-14.08-22.68-23.09-5.6-8.44-7.13-18.33-4.62-29.67ZM657.14,226.64c.15.34.3.67.45,1.01,1.58.01,3.22-.25,4.73.08,9.1,1.99,18.21,3.92,27.23,6.25,6.28,1.62,12.97,2.86,18.49,6.01,13.45,7.66,26.4,16.21,39.39,24.65,3.36,2.19,5.82,5.76,9.19,7.93,8.04,5.19,14.98,11.46,21.15,18.74,3.17,3.75,6.82,7.1,10.25,10.63l1.25-.46c1.71-16.42,3.4-32.84,5.13-49.26.47-4.48.95-8.96,1.6-13.42,1.47-10.01,3.4-19.97,4.48-30.01.8-7.43,1.01-14.99.67-22.45-.4-8.81-3.56-17.25-2.98-26.35.45-7.03-1-14.18-1.69-22.36-47.65,28.68-94.52,57.24-139.34,89.01ZM640.18,540.95c2.45,3.67,4.62,6.39,6.22,9.41,4,7.54,7.28,15.5,11.67,22.8,9.72,16.16,19.92,32.02,29.96,47.99,1.38,2.2,2.82,4.38,4.37,6.46,5.03,6.77,12.39,7.97,18.89,2.58,9.49-7.88,16.75-17.41,20.01-29.59,2.99-11.15,6.06-22.28,9.03-33.44,3.63-13.6,7.19-27.21,10.91-41.31-27.58,12.6-54.67,9.65-81.75.3-.1,2.2-.18,3.91-.21,4.68-10,3.47-19.47,6.76-29.1,10.11ZM705.57,277.39c-.02.35-.04.71-.07,1.06.95.24,1.94.81,2.84.68,6.8-.95,13.59-1.98,20.35-3.15.84-.15,1.5-1.31,2.24-2-.9-.7-1.96-2.15-2.68-2-7.59,1.66-15.13,3.57-22.68,5.41ZM648.02,274.92c.46-.09.92-.17,1.38-.26-.15-1.96-.93-4.14-.33-5.84,1.72-4.93-.28-7.46-5.14-9.11-1.55,6.11,2.87,10.2,4.09,15.21ZM281.77,919.47c-1.82,7.88-3.05,15.65,3.34,22.79-1.18-8.06-2.26-15.42-3.34-22.79ZM799.18,120.84c-2.89-3.84-5.73-7.62-8.88-11.82.48,8.95,4,13.56,8.88,11.82ZM284.41,854.44c3.15-3.41,2.36-5.91-2.39-8.01.88,2.93,1.56,5.22,2.39,8.01Z"/>
  <path d="M387.19,510.4c12.6.47,24.71.84,36.81,1.41,7.08.33,14.18.74,21.23,1.5,14.41,1.57,28.76,3.23,43.26.6,4.05-.74,8.36-.19,12.54-.02,4.57.19,6.77,3.65,8.62,7.11,1.54,2.88-.96,7.08-4.18,7-18.09-.44-36.17-1.1-54.26-1.52-4.12-.1-8.25-3.71-12.38-.06-7.99-4.08-16.6-1.02-24.86-2.1-5.42-.71-10.95-1.31-16.39-1.03-7.15.36-13.26-2.69-19.67-4.79-4.79-1.57-7.78-9.47-5.91-14.13,2.27-5.66,3.57-11.81,6.5-17.07,3.77-6.75,7.98-13.6,13.38-19.04,14.29-14.42,31.25-25.68,48.4-36.24,12.48-7.68,26.51-12.87,39.92-19,6.58-3.01,13.34-5.64,20.03-8.4,3.83-1.58,11.45,3.37,11.21,7.44-.07,1.11-1.29,2.69-2.35,3.12-9.54,3.86-19.35,7.11-28.72,11.33-9.25,4.16-18.55,8.54-27,14.08-15.24,9.98-30.44,20.2-44.48,31.75-6.76,5.56-13.8,12.17-15.83,22.02-.88,4.28-3.64,8.16-5.48,12.26-.27.61-.17,1.39-.41,3.78Z"/>
  <path d="M687.99,427.15c-4.65,2.18-8.46,3.91-12.21,5.75-6.56,3.23-16.01.54-20.52-5.67-3.47-4.77-6.08-9.63-4.15-15.79.25-.8.13-1.73.1-2.59-.07-1.86-.98-4.31-.13-5.47,2.35-3.18,5.59-5.43,9.94-5.35,9.05.16,17.97,6.37,20.97,14.95.89,2.55.9,5.43,1.92,7.89.96,2.31,2.74,4.29,4.07,6.27Z"/>
  <path d="M759.55,428.36c-.25.7-.68,1.89-1.29,3.59-3.29-2.16-7.15-3.55-9.18-6.29-3.5-4.72-3.45-10.41-.93-15.88,2.81-6.1,5.63-12.19,11.62-15.99,3.77-2.39,10.24-.38,12.2,3.55,3.9,7.8,2.26,15.09-1.56,22.3-1.08,2.04-1.67,4.65-3.32,5.99-1.77,1.44-4.51,1.7-7.54,2.72Z"/>
  <path d="M710.67,498.4c-5.03-3.39-5.83-6.21-3.43-10.39.52-.91,1.86-2.21,2.53-2.05,5.24,1.23,9.17-1.66,13.29-3.91,4.21-2.3,5.21-1.97,7.23,2.34,3.54,7.56,2.22,8.13-3.7,11.07-3.9,1.94-8.47,2.59-12.8,3.52-1.26.27-2.73-.5-3.11-.58Z"/>
</svg>