<?xml version="1.0" encoding="UTF-8"?>
<svg id="Layer_1" xmlns="http://www.w3.org/2000/svg" viewBox="0 0 1024 1024">
  <path d="M494.15,285.04c-4.31,2.77-6.22,7.53-12.24,7.41-6.62-.13-6.42-6.4-10.26-9.02-.45.37-.96.73-1.4,1.14-2.28,2.15-4.4,4.66-8.1,3.16-4.02-1.63-5.43-5.15-5.92-8.94-.63-4.89-.5-9.88-1.2-14.75-.27-1.88-1.51-4.06-3-5.23-6.02-4.77-6.29-10.57-5.3-17.72,1.32-9.53,1.08-19.29,1.46-28.95.37-9.75.48-19.51,1.1-29.24.25-3.95,8.9-7.01,13.79-5.01,16.87,6.91,34.27,7.55,51.56,2.98,13.77-3.65,27.49-8.09,40.5-13.84,10.84-4.8,22-10.13,30.18-19.16,7.09-7.82,14.35-15.95,19.25-25.16,5.64-10.62,14.89-8.4,19.43-1.12,5.59,8.96,10.79,18.2,16.81,26.87,7.8,11.23,16.06,22.15,24.5,32.91,2.85,3.64,6.72,6.52,10.33,9.5,7.46,6.16,4.25,14.5,4.87,22.11.96,11.76-7.06,22.58-3.49,34.64.26.88-1.57,3.44-2.14,3.35-7.33-1.15-9.82,5.72-14.66,8.58-1.83,1.08-3.58,2.8-5.52,3.06-8.18,1.09-8.48,7.21-9,13.29-.09.99-.03,2-.01,3,.06,3.7-1.25,6.51-5.14,7.36-5.98,1.31-7.97,5.34-8.99,11.04-1.79,9.97-3.82,11.21-13.86,11.33-2.25.03-4.63-.02-6.74.65-8.39,2.7-15.27-1-22.3-4.64-1.31-.68-3.88-.89-4.73-.1-1.91,1.78-1.25,3.4,1.26,4.95,4.43,2.74,4.52,5.19,1.98,9.98-7.83,14.79-15.96,29.46-23.09,44.58-4.35,9.21-7.29,19.12-10.49,28.84-4.53,13.75-9.05,27.52-12.92,41.47-3.35,12.04-5.82,24.33-8.59,36.53-.32,1.41-.04,2.96-.04,4.31,15.96,3.52,30.8,9.74,44.86,17.51,14.96,8.27,29.84,16.84,43.91,26.53,10.59,7.29,17.53,18.36,23.9,29.54,4.67,8.19,7.52,16.8,8.07,26.26.17,2.85.99,5.85,2.25,8.43,6.22,12.76,3.29,25.09-1.38,37.36-1.32,3.47-2.74,6.97-4.69,10.1-3.64,5.83-9.75,7.43-16.03,9-6.08,1.52-11.97,3.87-17.83,6.15-2.71,1.05-3.54,2.97-2.29,6.2,2.63,6.83.62,13.66-2.09,19.9-7.27,16.77-15.45,33.14-22.5,50-7.03,16.82-11.49,34.46-16.02,52.15-4.91,19.14-12.34,37.62-21.2,55.44-3.3,6.64-5.82,13.73-8.01,20.83-2.34,7.58-8.2,11.19-14.32,14.96-11.46,7.06-24.92,7.07-37.26,11-8.16,2.6-16.03,6.36-24.34,8.24-6.95,1.58-14.36,1.63-21.55,1.54-7.19-.08-14.37-1.23-21.56-1.81-16.7-1.36-33.46-2.22-50.1-4.15-8.79-1.02-17.5-3.42-26.01-5.97-10.58-3.17-22.53-18.59-22.69-30.67-.2-15.38,1.93-30.15,5.57-44.95,1.63-6.63,2.18-13.6,2.65-20.45,1.19-17.77,1.72-35.59,3.18-53.33,1.07-13.02,2.71-26.04,5.05-38.89,1.27-6.93,3.2-13.63,2.98-20.82-.08-2.53,1.78-5.16,2.88-7.68,2.21-5.11,1.47-7.44-3.82-8.75-6.76-1.68-13.64-3.04-20.54-3.97-6.48-.87-9.06-4.22-7.93-10.53,2.59-14.6,4.75-29.27,7.35-43.87,1.77-9.96,3.98-19.83,6.02-29.74,2.62-12.76,5.4-25.49,7.81-38.29.74-3.92,2.17-6.23,6.39-5.44,3.91.74,6.16-1.7,8.42-4.08,9.01-9.47,18.26-18.78,30.25-24.33,6.38-2.95,13.37-4.69,20.21-6.51,7.06-1.88,14.35-2.91,21.41-4.8,15.52-4.15,30.94-8.67,46.44-12.88,3.91-1.06,7.96-2.04,11.98-2.19,3.89-.14,4.94-2.03,5.72-5.31,2.84-12.03,5.24-24.23,9.02-35.96,7.89-24.44,15.98-48.84,25.11-72.84,5.93-15.58,13.88-30.39,20.76-45.62.49-1.08-.34-2.76-.59-4.15-.01-.07-.33-.05-.45-.14-.55-.39-18.52-6.87-19.16-7.01-1.58-.35-3.12-.95-4.72-1.15-2.05-.25-4.42-.88-6.16-.16-5.83,2.42-10.82,2.29-14.89-3.12-.47-.63-1.19-1.08-1.92-1.72ZM336.16,836.42l1.22.24c0,2.16.12,4.33-.02,6.49-.4,6.08,6.77,13.63,10.76,15.34,14.57,6.25,30.11,8.24,45.6,9.88,11.31,1.19,22.79.81,34.2,1.2,1.95.07,3.87.54,5.82.75,7,.75,14.12,2.61,20.97,1.87,7.61-.82,14.94-4.1,22.44-6.14,7.17-1.95,14.44-3.55,21.6-5.55,6.49-1.82,13.14-3.4,19.27-6.12,6.6-2.93,10.53-8.62,13.12-15.53,2.84-7.57,6.81-14.72,9.94-22.19,5.42-12.91,11.15-25.74,15.69-38.97,4.26-12.42,6.35-25.59,10.82-37.92,5.6-15.44,12.76-30.3,19.03-45.5,4.65-11.25,9.13-22.58,13.34-34.01,1.75-4.74.07-6.54-4.97-5.39-6.02,1.38-12.25,2.67-17.75,5.33-14.88,7.19-30.46,10.35-46.87,10.64-6.35.12-12.66,1.63-19.02,2.17-8.53.72-17.08,1.59-25.62,1.52-9.19-.07-18.37-1.45-27.56-1.73-10.46-.32-21.01.65-31.39-.3-8.32-.76-16.62-3.05-24.63-5.6-8.7-2.77-16.9-7.15-25.61-9.86-8.25-2.57-11.86-.02-14.12,8.62-1.44,5.51-2.39,11.14-3.66,16.7-1.77,7.76-3.65,15.5-5.46,23.25-5.18,22.21-5.08,44.97-6.99,67.53-.82,9.61-2.09,19.2-3.65,28.72-1.89,11.56-4.3,23.04-6.48,34.55ZM578.03,312.05c-9.34.95-14.7-4.09-20.01-8.51-3.67-3.06-5.54-2.85-7.37,1.27-5.34,11.99-11.15,23.8-15.9,36.03-6.98,17.99-13.78,36.1-19.57,54.51-5.17,16.41-8.5,33.39-13.38,49.91-2.51,8.49-1.98,16.15,1.85,23.9,1.73,3.5.54,5.76-3.29,5.72-4.12-.04-4.85,2.37-5.37,5.56-1.12,6.92-2.49,13.81-3.56,20.74-1.25,8.09-2.3,16.22-3.4,24.33-1.25,9.24-2.46,18.49-3.68,27.73-1.11,8.44-2.41,16.86-3.23,25.33-.48,4.9-1.82,6.43-7.16,6.27-3.99-.12-6.39-3.01-5.81-7.36.59-4.37,1.47-8.7,2.18-13.06,1.93-11.77,4.01-23.51,5.7-35.32,1.07-7.47,1.3-15.07,2.33-22.54,1.32-9.52,3.14-18.98,4.48-28.49.09-.64-2.23-2.46-3.05-2.25-12.28,3.09-24.46,6.58-36.74,9.65-9.61,2.4-19.41,4.04-28.97,6.59-9.03,2.4-18.56,4.29-26.61,8.69-8.56,4.68-15.94,11.72-23.27,18.36-5.14,4.66-10.15,10.12-10.73,17.52-.79,10.1-1.49,20.3-.98,30.4.93,18.37,9.67,32.4,27.68,37.65,11.23,3.27,23.4,3.43,35.19,4.62,8.82.89,17.73.91,26.55,1.81,9.25.94,18.42,3.18,27.67,3.61,26.91,1.24,53.65-.22,80.15-5.78,13.07-2.74,26.38-4.38,39.65-5.99,15.24-1.85,29.27-6.47,41.1-16.51,4.59-3.9,10.07-8.15,9.01-14.88-1.04-6.61-3.11-13.37-6.23-19.27-4.97-9.39-10.78-18.53-20.02-24.51-11.72-7.6-23.45-15.23-35.51-22.27-7.41-4.33-15.32-7.87-23.24-11.22-7.86-3.32-16-5.95-24.65-9.12-.85,1.63-2.37,3.49-2.83,5.59-1.86,8.58-3.59,17.2-5,25.87-1.56,9.54-2.51,19.18-4.09,28.71-1.77,10.62-3.93,21.17-5.99,31.73-.17.89-.85,2.39-1.3,2.39-2.77.01-5.8.28-8.23-.75-1.57-.66-3.37-3.53-3.16-5.16.86-6.58,2.42-13.08,3.8-19.59,1.62-7.64,3.62-15.21,4.91-22.91,1.86-11.12,2.78-22.4,4.91-33.46,2.21-11.47,5.34-22.77,8.15-34.13,3.72-15.03,6.94-30.22,11.44-45.02,4.44-14.61,10.46-28.73,15.35-43.21,5.87-17.37,12.38-34.38,22.87-49.62,2.63-3.83,4.48-8.19,7.34-13.55ZM629.7,270.02c.37-4.25.92-8.16,1-12.07.09-3.91,1.59-6.23,5.61-6.69,7.35-.85,12.68-4.4,15.92-11.29,1.05-2.22,3.02-4.47,5.15-5.61,3.12-1.67,3.29-3.95,3.38-6.9.12-3.91-.48-8.62,1.43-11.54,5.05-7.75,2.33-13.78-2.36-19.94-7.04-9.26-14.17-18.44-21.1-27.77-6.52-8.77-12.83-17.71-19.25-26.56-2.33-3.21-4.29-2.51-6.67.25-5.5,6.41-10.87,13.04-17.05,18.75-5.23,4.82-11.18,9.13-17.43,12.51-10.82,5.86-21.75,11.92-33.32,15.87-12.54,4.28-25.78,6.8-38.89,9.03-11.1,1.89-22.44,2.94-33.31-2.33-5.15-2.5-10.09.98-9.73,6.16.43,6.26.99,12.53.94,18.8-.1,11.76-.59,23.52-.94,35.28-.1,3.38,1.17,5.59,4.86,5.22,5.71-.57,10.62,2.9,12.19,8.55.71,2.56,2.36,5.03,5.25,2.56,4.16-3.55,7.57-2.16,11.59.2,2.96,1.74,6.44,2.75,9.8,3.62,2.2.57,4.89-.29,6.88.58,4.82,2.12,9.01,1.73,13.48-.97,4.39-2.65,8.57-2.08,12.58,1.6,2.02,1.85,5.2,4,7.51,3.65,6.1-.92,9,2.61,12.06,6.55,1.11,1.43,2.29,2.84,3.57,4.13,4.32,4.34,5.41,4.22,8.79-.8,4.05-6.01,9.31-7.41,14.27-2.84,6.25,5.75,12.61,8.43,21.38,6.43,7.18-1.63,9.13-2.53,9.52-9.63q.6-11.08,10.96-14.49c.47-.15.98-.16,1.96-.31ZM341.45,575.17c-4.66.55-3.9,4.67-4.64,7.46-2.92,11.04-6.28,22.02-5.47,33.7.23,3.36.59,6.99-.4,10.08-1.73,5.4.91,7.89,5.15,9.2,8.53,2.63,17.2,4.77,25.79,7.2,12.94,3.67,26.17,6.6,38.68,11.38,9.81,3.75,19.49,6.43,29.95,6.62,18.91.33,37.82.93,56.73,1.15,6.4.07,12.84-.47,19.22-1.08,8.94-.85,17.88-1.87,26.77-3.12,7.94-1.12,16.01-1.99,23.69-4.17,9.8-2.78,19.27-6.72,28.84-10.27,6.07-2.25,12.13-4.56,18.07-7.13,5.21-2.25,10.17-5.1,15.4-7.3,5.07-2.13,11.98-2.31,15.19-5.93,6.97-7.86,12.7-17.14,10.98-29.71-1.9.87-3.6,1.28-4.83,2.28-14.52,11.82-31.63,16.77-49.76,19.31-14.87,2.09-29.67,4.69-44.55,6.77-13.75,1.93-27.53,3.76-41.35,5.03-5.68.52-11.52-.47-17.27-.87-13.77-.96-27.53-1.94-41.29-2.98-17.36-1.3-34.72-2.64-52.08-4.01-11.45-.91-21.95-4.77-31.44-11.08-11.53-7.66-16.5-19.8-21.39-32.55Z"/>
  <path d="M553.83,233.87c9.31,1.07,18.13,1.29,25.67-5.36,2.39-2.12,5.33-3.8,8.28-5.06,3.39-1.45,6.83-4.04,10.66-.1,5.64,5.8,5.93,7.11-.01,12.76-8.94,8.5-18.65,15.7-31.97,14.04-3.59-.45-7.33-1.7-10.45-3.52-4.51-2.63-5.05-7.2-2.18-12.75Z"/>
  <path d="M602.16,190.36c6.22.03,10.78,3.98,10.52,8.57-.27,4.79-4.03,5.32-7.8,5.37-5.91.07-7.74-2.44-8.15-8.99-.37-5.76,3.16-5.06,5.43-4.95Z"/>
  <path d="M513.99,221.4c-.02,4.8-1.5,6.16-6.64,6.11-5.63-.05-8.34-2.44-8.28-7.32.04-3.57,4.02-7.93,7.16-7.85,3.8.1,7.79,4.74,7.77,9.05Z"/>
</svg>