<?xml version="1.0" encoding="UTF-8"?>
<svg id="Layer_1" xmlns="http://www.w3.org/2000/svg" viewBox="0 0 1024 1024">
  <path d="M367.04,547.45c-13.66-10.36-27.54-19.59-39.83-30.6-10.2-9.14-16.67-21.9-18.48-35.32-.81-5.98,4.12-13.66,8.26-19.22,14.46-19.47,35.16-27.37,58.6-29.22,8.49-.67,17.02-.81,25.49-1.6,1.92-.18,3.84-1.88,5.46-3.25,1.01-.85,1.51-2.34,2.11-3.61,5.96-12.69,13.27-24.48,21.22-36.07,6.8-9.91,11.26-21.45,16.68-32.3,12.2-24.43,24.62-48.76,36.42-73.38,7.04-14.71,12.29-30.3,19.74-44.78,9.46-18.4,20.41-36.04,30.58-54.08,6.04-10.72,11.6-21.71,17.78-32.35,2.91-5.02,6.6-9.62,10.22-14.18,9.83-12.38,21.83-4.58,26.31,5.74,2.96,6.8,5.55,13.85,7.48,21,4.6,17.05,8.01,34.45,13.21,51.31,6.36,20.63,14.29,40.78,21.11,61.28,5.64,16.96,10.49,34.18,15.97,51.19,4.49,13.95,9.27,27.82,14.15,41.64,4.11,11.63,8.65,23.11,12.79,34.74,2.87,8.08,5.6,16.22,7.96,24.45,1.59,5.56,3.2,11.31,3.41,17.03.24,6.47,2.58,9.15,8.98,8.67,15.59-1.15,30.08,3,42.39,12.1,18.53,13.7,22.16,25.63,13.14,45.45-5.07,11.15-12.59,20.14-21.88,27.84-3.18,2.64-4.33,4.53-2.01,9.36,2.48,5.16,1.12,12.01,2.43,17.91,4.99,22.49,11.31,44.73,15.38,67.38,4.76,26.47,11.92,52.7,10.5,80.07-.36,7.01.81,14.11,1.3,21.16,1.09,15.53-8.53,27.92-12.52,41.96-.57,1.99-3.63,3.69-5.91,4.71-11.21,5.02-23.11,7.13-34.43,1.86-4.76-2.22-7.76-8.37-11.33-12.92-1.55-1.97-2.08-4.83-3.8-6.55-4.72-4.69-6.52-3.2-9.48,2.72-6.54,13.06-12.99,26.48-21.73,38.04-10.37,13.7-22.41,26.36-35.01,38.09-17.68,16.47-36.63,31.79-59.8,39.96-13.18,4.65-26.68,7.38-41.36,3.43-9.38-2.52-19.97-.57-30.01-.66-7.9-.07-16.15,1.26-23.63-.55-31.94-7.74-61-21.57-82.15-47.54-9.31-11.43-15.97-25.12-23.12-38.18-9.93-18.13-13.78-38.36-18.11-58.29-.97-4.47,1.07-9.58,1.65-14.41.23-1.93.27-3.89.4-5.83-.58-.38-1.17-.75-1.75-1.13-2.54,2.02-5.69,3.6-7.52,6.14-9.94,13.72-24.47,15.92-39.42,14.71-7.46-.6-14.5-5.42-21.91-7.73-10.81-3.38-12.61-12.43-13.37-21.47-1.97-23.18,4.44-44.87,15.91-64.5,8.45-14.47,18.9-28.01,29.91-40.69,12.14-13.99,25.78-26.71,39.1-39.64,7.41-7.2,15.49-13.7,22.56-19.89ZM458.08,569.54c1.44,11.2-7.2,13.39-13.5,17.66-1.93,1.3-3.65,2.91-5.55,4.26-5.59,3.94-11.13,7.96-16.86,11.68-3.17,2.05-7.25,2.95-9.94,5.43-5.11,4.72-9.8,9.99-14.14,15.44-5.36,6.75-9.77,14.28-15.38,20.8-4.57,5.32.73,10.84-1.4,15.57-2.25,4.99-7.31,8.93-8.78,14.02-6.87,23.6-6.76,48.17-8.79,72.44-.16,1.87-.16,3.86.29,5.67,5.2,21.07,11.5,41.82,23.77,59.96,7.24,10.71,13.9,22.25,25.88,28.87,3.67,2.03,7.27,4.2,10.76,6.52,19.78,13.2,41.22,19.29,65.07,15.88,5.79-.83,12.09-2.48,17.43-1.05,9.39,2.51,18.2,4.2,28.13,2.58,14.68-2.4,28.39-7.33,39.51-16.51,18.16-15,35.41-31.19,52.17-47.76,10.54-10.42,19.92-22.25,25.15-36.5,3.99-10.9,6.71-22.28,10.99-33.05,2.41-6.07,2.06-11.46,1.45-17.71-1.38-14.34-1.35-28.83-1.73-43.26-.37-14.3.02-28.65-.96-42.9-.93-13.51-3.45-26.9-4.79-40.39-.63-6.34-.11-12.79-.11-19.57-4.42.84-8.22,1.86-12.09,2.23-9.04.85-18.1,1.79-27.17,1.96-15.94.3-31.89-.12-47.83.07-19.43.23-38.87,1.38-58.28,1.03-17.41-.32-34.8-2.14-53.3-3.37ZM599.72,389.71c5.14-1.48,9.4-4.05,13.28-3.57,8.67,1.08,17.78,2.33,25.57,5.97,11.39,5.33,11.6,18.37.55,24.55-8.98,5.03-18.96,8.37-28.67,11.95-10.75,3.97-13.95,7.71-13.73,18.85.29,13.97,1.07,27.93,1.22,41.9.02,2.25-1.57,5.27-3.39,6.67-6.77,5.22-16.64,3.61-21.81-3.75-6.43-9.15-12.5-18.56-18.27-28.14-3.6-5.98-6.37-12.46-9.12-17.95-8.51,6.46-15.71,12.7-23.69,17.72-6.5,4.09-13.98,6.58-20.91,10.02-7.1,3.53-21.09.38-24.39-6.63-1.91-4.05-2.85-8.67,1.95-13.21,6.31-5.97,13.03-12.77,16.04-20.57,2.4-6.22,5.13-11.25,9.66-15.74,5.55-5.51,6.07-11.45.77-17.34-8.65-9.59-17.82-18.71-26.56-28.23-3.18-3.46-5.75-7.47-9.11-11.89-1.38,2.53-2.95,5.01-4.14,7.67-2.95,6.59-5.16,13.58-8.69,19.83-6.53,11.57-14.24,22.47-20.59,34.13-4.78,8.79-8.4,18.25-12.14,27.58-1.93,4.83-5.38,5.6-9.6,4.74-2.71-.55-5.19-2.32-7.89-2.73-6.08-.92-12.26-1.99-18.36-1.76-5.5.21-10.89,2.37-16.41,3.14-16.17,2.25-28.75,10.76-39.2,22.63-6.46,7.34-6.33,11.71-.88,19.81,11.44,16.99,28.52,27.89,46.17,35.77,26.04,11.62,54.03,17.94,83.04,17.82,8.95-.04,17.91.98,26.87,1.38,22.2.98,44.4,2.23,66.61,2.68,12.77.26,25.57-1.33,38.34-1.17,23.15.29,46.16.12,68.08-8.75,2.37-.96,4.93-2.49,6.4-4.49,7.08-9.64,10.27-10.65,21.04-6.65,2.1.78,5.06.5,7.23-.34,14.98-5.8,26.85-15.22,33.32-30.37,4.39-10.27,5.52-18.38-3.77-23.65-10.2-5.8-21.42-9.83-32.29-14.39-.99-.42-3.36.5-3.99,1.49-2.89,4.58-7.46,7.69-11.8,4.91-4.98-3.2-10.11-8.17-12.11-13.52-2.97-7.92-3.58-16.81-4.61-25.37-2.46-20.44-12.04-38.52-18.65-57.59-4.24-12.24-8.88-24.35-12.85-36.67-3.86-11.97-6.54-24.33-10.71-36.17-8.46-24.05-17.82-47.79-26.3-71.84-3.62-10.27-6.09-20.96-8.84-31.52-3.21-12.32-6.16-24.71-9.53-38.33-2.06,1.73-3.79,2.57-4.54,3.94-1.74,3.21-2.86,6.76-4.5,10.04-4.71,9.39-9.27,18.87-14.43,28.02-8.55,15.16-18.29,29.69-26.11,45.2-7.44,14.76-12.68,30.61-19.6,45.65-8.52,18.49-17.8,36.62-26.68,54.94-.9,1.86-1.27,3.98-1.61,5.11,5.88,0,10.88-.35,15.82.07,13.54,1.16,27.04,2.7,40.57,3.94,1.76.16,3.66-.32,5.4-.82,9.58-2.74,14.08-11.05,19.25-18.34,4.7-6.63,8.13-14.16,12.92-20.71,1.95-2.66,5.87-5.03,9.12-5.37,8.67-.89,14.78,5.73,15.41,15.17.87,13.16,1.75,26.32,2.9,39.46.68,7.85,1.87,15.65,2.99,24.78Z"/>
  <path d="M530.93,788.86c-18.32,2.44-32.16-6.51-45.29-17.23-.92-.75-2.15-1.54-2.45-2.55-4.19-14.06-16.35-21.18-26.15-30.38-5.24-4.92-6.46-12.37-3.05-16.21,4.61-5.17,15.41-5.94,20.13-.71,8.65,9.59,18.14,18.84,24.75,29.76,6.45,10.66,15.86,12.12,25.92,13.2,13.65,1.46,25.24-4.28,36.9-10.93,10.62-6.06,17.81-15.16,24.76-24.31,4.17-5.49,9.15-5.92,13.35-4.25,4.29,1.71,8.37,6.14,10.43,10.4,1.2,2.49-.66,8-2.96,10.4-12.56,13.05-24.54,26.97-41.49,34.78-11.09,5.11-22.29,10.02-34.84,8.02Z"/>
  <path d="M543.91,683.79c12.58.95,16.42,5.69,15.61,19.52-.2,3.37.64,6.99-.31,10.09-1.65,5.43-2.85,11.54-10.11,13.07-2.1.44-4.3,2.15-5.71,3.89-4.5,5.56-8.94,4.97-14.59,1.52-5.64-3.44-11.99-5.74-17.99-8.6-1.68-.8-3.44-1.63-4.81-2.85-4.65-4.14-9.21-10.42-5.88-15.32,3.34-4.91,10.67-7.33,16.56-10.22,5.73-2.81,11.86-4.81,17.8-7.19,3.15-1.27,6.28-2.6,9.41-3.91Z"/>
  <path d="M625.26,652.69c-.01,7.27-2.78,10.24-9.91,10.57-7.46.34-14.7,1.3-21.18,5.58-8.88,5.87-27.9-3.8-24.51-14.35.68-2.13,2.05-5.13,3.76-5.68,11.21-3.58,22.46-7.4,33.98-9.56,10.25-1.92,17.88,4.68,17.86,13.44Z"/>
  <path d="M464.08,632.2c10.16,4.74,21.44,2.63,30.74,9.38,5.64,4.09,4.11,9.96,5.54,14.99.29,1.03-4.15,4.11-6.83,5.04-1.88.66-4.47-.72-6.74-1.19-8.16-1.72-15.89-4.11-24.82-1.98-4.66,1.11-11.04-2.58-15.91-5.39-4.84-2.78-3.71-12.68,1.66-15.24,5.14-2.46,10.83-3.77,16.35-5.61Z"/>
</svg>