<?xml version="1.0" encoding="UTF-8"?>
<svg id="Layer_1" xmlns="http://www.w3.org/2000/svg" viewBox="0 0 1024 1024">
  <path d="M413.53,645.29c-2.27,1.62-4.62,3.81-7.38,5.15-4.6,2.24-7.32.42-8.44-4.59-3.23-14.36-6.87-28.64-9.89-43.05-.89-4.23-3.14-6.62-6.69-5.36-10.96,3.91-22.07.73-32.93,1.68-14.9,1.31-29.87,4.29-44.26,8.44-21.71,6.26-43.6,12.66-64.22,21.71-24.84,10.91-49.04,23.65-72.35,37.54-13.73,8.18-28.42,16-38.57,29.37-.93,1.22-4.44,2.12-5.36,1.4-2.83-2.21-5.98-4.9-7.19-8.1-2.52-6.66,3.4-9.98,7.59-12.6,24.08-15.06,48.06-30.33,72.82-44.21,30.94-17.34,63.53-31.15,98.08-39.72,18.39-4.56,36.32-11.67,55.69-11.37,3.73.06,7.64.33,11.12,1.51,10.5,3.54,22.72-2.96,22.06-16.67-.38-7.9,2.1-15.89,2.36-23.87.14-4.28-1.05-8.9-2.76-12.89-4.15-9.73-5.09-19.78.41-28.58,9.05-14.46,5.41-27.84-.86-41.53-5.82-12.7-5.4-26.33-2.56-39.08,5.48-24.59,13.43-48.62,19.48-73.09,3.2-12.96,4.29-26.42,6.8-39.57,3.44-18,10.72-34.24,22.46-48.58,17.08-20.86,36.92-38.68,58.09-55.22,8.09-6.33,15.86-13.16,23.19-20.35,7.75-7.61,17.64-10.78,27.45-11.31,26.44-1.43,53.03-2.59,79.43-1.22,13.39.7,26.74,6.41,39.67,11.06,19.55,7.03,39.09,14.33,57.95,23.01,15.15,6.98,26.91,18.88,37.92,31.47,8.49,9.71,17.83,18.72,27.16,27.65,17.24,16.5,24.15,36.68,23.43,60.23-.28,9.18,2.74,18.62,1.57,27.59-1.49,11.44,3.85,22.95-1.31,34.21-1.44,3.14-1.32,7-1.85,10.53-2.87,18.87-3.42,37.73-1.62,56.82,2.48,26.41,4.33,52.9,5.39,79.4.36,8.92-2.14,18.05-3.99,26.95-2.46,11.8-6.03,23.38-8.2,35.22-1.16,6.35,4.51,7.64,9.29,7.71,26.94.37,52.14,8.17,75.39,20.66,15.57,8.37,29.41,20.12,43.33,31.22,3.25,2.59,4.49,8.56,5.24,13.21.91,5.59-3.15,6.98-7.14,4.27-7.82-5.3-15.55-10.91-22.53-17.26-12.44-11.32-27.59-17.74-42.45-24.67-20.22-9.44-41.9-10.64-63.74-9.95-2.6.08-6.02,2.27-7.52,4.52-8.8,13.24-17.19,26.76-25.63,40.24-9.28,14.81-22.42,25.09-37.96,32.56-6.42,3.09-8.94,6.52-7.63,14.86,1.46,9.27-1.49,19.2-2.21,28.86-1.25,16.81-1.99,33.65-3.42,50.44-2.03,23.85-4.44,47.67-6.81,71.49-1.26,12.69-2.62,25.37-4.3,38.01-.48,3.57-2.25,6.97-3.43,10.45-4.55-1.89-10.51-2.58-13.39-5.91-7.79-9.03-6.37-9.35-.32-20.11,3.64-6.47,4.76-14.72,5.63-22.33,1.96-17.16,3.1-34.42,4.48-51.64,1.5-18.63,2.72-37.28,4.39-55.89.97-10.8,2.77-21.53,3.76-32.33.34-3.65-.17-7.58-1.28-11.06-.47-1.5-3.46-3.09-5.31-3.09-5.42,0-10.92,1.65-16.23,1.1-13.77-1.44-27.4-4.54-41.19-5.43-13.35-.86-26.95-.87-40.21.68-20.09,2.34-39.66,4.02-59.46-2.83-10.49-3.63-22.03-4.41-33.19-5.74-1.49-.18-4.78,3.85-5.05,6.18-1.25,10.99-6.17,20.14-12.04,29.22-3.52,5.44-5.18,12.05-7.97,18-6.72,14.33-14.1,28.37-20.31,42.9-7.77,18.19-14.6,36.77-21.95,55.14-.86,2.14-2.62,3.9-3.61,6.01-2.05,4.37-6.28,5.88-9.14,3.16-2.97-2.82-9.46-4.81-5.96-11.85,5.32-10.68,9.97-21.69,14.88-32.58,10.59-23.52,20.91-47.16,31.84-70.52,5.96-12.72,13.03-24.92,19.46-37.42,4.79-9.31,2.67-12.8-7.29-16.41-9.35-3.4-18.57-7.54-27.16-12.54-6.34-3.69-11.94-8.92-17.18-14.15-5.14-5.13-9.4-11.13-14.39-17.16ZM790.99,337.43c.4-.03.8-.06,1.21-.1-.68-8.99-1.23-17.99-2.06-26.96-1.26-13.64-7.32-25.08-16.72-34.81-8.99-9.31-18.82-17.89-27.09-27.79-11.53-13.81-24.24-26.56-40.58-33.6-19.27-8.31-40.18-12.76-59.52-20.94-15.56-6.58-31.44-7.52-47.63-8.25-4.67-.21-9.37.45-14.06.67-15.83.74-31.72.86-47.45,2.48-6.39.66-13.45,3.31-18.45,7.27-9.37,7.42-17.14,16.83-26.19,24.7-10.18,8.84-21.16,16.77-31.59,25.33-10.42,8.55-19.4,18.15-26.45,30.04-7.61,12.83-14,25.7-16.63,40.47-2.52,14.11-5.59,28.13-8.64,42.15-1.53,7.05-3.41,14.04-5.41,20.97-1.92,6.64-4.33,13.14-6.3,19.77-1.52,5.13-2.46,10.43-4.05,15.53-5.04,16.25-5.12,32.18,2.11,47.9,7.29,15.85,9.46,31.62-.48,47.5-1.68,2.68-2.37,7.34-1.24,10.2,6.47,16.47-1.09,33.36,2.11,49.89,1.18,6.1.4,12.56,1.19,18.77.7,5.52,2.14,10.97,3.58,16.37,2.04,7.65,4.22,15.28,6.74,22.79.55,1.64,3.13,4.09,4.17,3.83,9.03-2.3,10.84,4.32,13.85,10.12,1.91,3.68,4.61,7.06,7.4,10.17,14.38,16.07,34,22.15,53.88,27.23,13.59,3.47,27.79,4.7,41.17,8.74,20.68,6.23,41.23,7.41,62.24,2.97,18.55-3.92,36.87-2.81,55.33,1.38,19.52,4.43,38.88,5.41,58.34-2.56,21.49-8.8,39.25-21.78,51.47-41.34,11.58-18.53,21.35-37.97,27.14-59.37,5.42-20.05,11.61-39.9,10.57-60.92-.89-17.94-2.93-35.83-4.11-53.76-1-15.19-2.15-30.42-2.01-45.61.1-11.53,2.17-23.03,3.29-34.55,1.03-10.59,2.51-21.18,2.76-31.79.2-8.26-1.19-16.56-1.87-24.85Z"/>
  <path d="M545.26,520.53c21.86-3.23,42.63,2.13,63.24,7.98,5.01,1.42,9.67,4.5,14.14,7.36,12.25,7.86,24,16.56,36.54,23.9,11.78,6.89,13.71,19.82,12.38,30.06-1.25,9.67-9.6,11.95-19.27,5.41-12.1-8.19-25.02-14.87-39.14-18.23-9.32-2.22-19.24-2.04-28.91-2.56-1.86-.1-3.9,1.39-5.71,2.41-9.43,5.34-18.78,10.81-28.21,16.14-5.88,3.32-11.6,7.22-17.89,9.43-6.02,2.11-13.26,4.52-18.95,3-13.91-3.71-27.06-9.77-35.14-23.07-4.71-7.75-4.75-14.68.48-22.53,11.66-17.52,27.93-29.05,46.87-36.85,5.86-2.42,13.02-1.71,19.58-2.43Z"/>
  <path d="M693.33,346.25c7.97.72,12.6,5.92,14.17,11.18,1,3.33-2.73,9.42-6.01,12.44-9.53,8.77-19.65,16.96-30.03,24.71-9.05,6.76-18.62,12.88-28.26,18.79-6.44,3.95-7.44-3.58-10.49-6.19-2.84-2.44-1.3-5.51.43-8.69,6.85-12.58,19.72-18.54,29.62-27.75,6.74-6.27,13.76-12.26,20.85-18.13,2.97-2.45,6.46-4.26,9.72-6.37Z"/>
  <path d="M496.47,328.58c2.55,1.38,7.6,3.39,11.77,6.55,8.45,6.39,16.35,13.51,24.64,20.13,7.14,5.7,9.96,15.81,5.42,23.71-2.67,4.64-8.69,4.24-11.11,1.11-8.48-11-22.81-12.42-32.39-21.16-2.28-2.08-3.83-5.28-4.95-8.26-1.38-3.69-1.6-7.82-2.97-11.52-2.61-7.07-.65-10.32,9.59-10.55Z"/>
  <path d="M477.32,433.48c-10.38,2.11-18.18-8.11-18.53-15.39-.42-8.53,11.12-19.23,19.69-19.04,7.48.16,17.46,8.78,16.81,15.38-1.14,11.68-3.11,19.15-17.97,19.05Z"/>
  <path d="M689.3,430.63c12.15.09,17.22,9.6,12.95,18.02-5.1,10.07-17.29,15.3-27.44,10.39-4.07-1.97-8.04-6.98-9.09-11.32-.67-2.79,3.29-8.2,6.54-10.11,6.13-3.6,13.25-5.51,17.04-6.99Z"/>
</svg>