<?xml version="1.0" encoding="UTF-8"?>
<svg id="Layer_1" xmlns="http://www.w3.org/2000/svg" viewBox="0 0 1024 1024">
  <path d="M453.88,258.11c2.63-2.56,4.55-5.34,7.2-6.85,9.96-5.7,20.87-8.03,32.31-7.98,5.16.02,10.38-.5,15.46.12,7.72.94,15.44,2.28,22.98,4.14,16.79,4.15,31.86,12.34,46.42,21.32,6.36,3.92,11.68,9.51,17.55,14.24,1.89,1.53,3.89,3.06,6.08,4.06,9.33,4.25,16.29,11.58,23.88,18.07,1.45,1.24,2.56,3.01,3.45,4.73,4.47,8.6,6.01,18.06,8.51,27.31,3.49,12.94,9.6,25.15,13.97,37.88,4.27,12.42,8,25.04,11.53,37.7,2.65,9.5,4.65,19.19,6.79,28.83.42,1.91.62,4.08.15,5.94-1.5,5.89.77,11.21,2.24,16.58,2.04,7.43,1.37,9.19-4.92,13.14-10.35,6.51-21.65,10.5-33.36,13.69-3.89,1.06-7.59,3.03-11.15,5-3.5,1.94-6.67,1.48-10.1.04-1.61-.68-3.47-1.15-5.21-1.12-9.45.21-18.93,1.27-28.33.75-9.76-.54-19.42-2.72-29.16-3.86-6.57-.77-13.19-1.05-19.8-1.28-.39-.01-1.51,2.49-1.2,3.48,1.67,5.31,1.36,5.66-4.3,6.91-6.52,1.44-12.89,3.62-19.44,4.92-8.14,1.62-16.38,2.69-24.58,3.99-6.95,1.1-13.89,2.28-20.86,3.24-5.19.72-10.4,1.45-15.62,1.63-8.83.3-17.68.22-26.52.22-7.25,0-14.51-.06-21.76-.22-1.92-.04-3.82-.71-5.75-.84-6.27-.41-12.62-.22-18.8-1.18-5.07-.79-9.92-2.99-14.92-4.34-1.15-.31-2.97-.12-3.78.61-2.77,2.52-5.02,5.64-7.86,8.07-7.86,6.73-15.99,13.13-23.86,19.85-5.09,4.35-9.67,9.09-11.84,15.82-4.07,12.66-9.85,24.93-12.45,37.86-2.84,14.14-8.16,27.69-8.38,42.6-.19,12.6,1.97,24.04,7.29,35.18,1.26,2.64,1.99,5.58,3.51,8.05,3.23,5.26,6.58,10.49,10.33,15.39,4.67,6.11,9.56,12.11,14.81,17.73,3.32,3.56,7.39,6.46,11.28,9.46,6.01,4.63,11.95,9.4,18.29,13.55,7.21,4.72,15.38,8.11,22.12,13.37,10.18,7.94,23.03,11.7,32.02,21.44,6.14,6.65,12.56,13.11,19.4,19.03,8.63,7.48,19.48,10.49,30.46,11.93,14.79,1.94,29.71,3.74,44.59,3.92,14.43.18,28.99-1.04,43.3-3.01,10.21-1.41,20.04-5.37,30.17-7.67,13.01-2.95,26.25-4.96,39.19-8.17,9.22-2.29,18.06-6.04,27.15-8.87,10.06-3.14,20.27-5.79,30.29-9.05,3.56-1.15,6.67-3.59,10.12-5.18,3.37-1.56,6.79-3.41,10.38-4.02,10.28-1.74,18.41-7.48,26.02-13.81,8.3-6.91,16.16-14.42,23.69-22.17,6.14-6.32,8.18-14.83,9.18-23.26,1.19-9.95,2.54-20.08,1.87-30-.85-12.46-3.64-24.8-5.66-37.18-1.63-9.98-2.77-20.08-5.23-29.86-2.2-8.74-5.4-17.32-9.06-25.57-4.83-10.89-10.32-21.51-15.99-32-2.3-4.25-5.85-7.81-8.75-11.75-6.99-9.49-13.82-19.1-20.95-28.48-2.31-3.04-5.1-5.83-8.09-8.23-4.14-3.33-5.8-7.49-3.67-10.76,3.37-5.17,6.05-5.09,11.68-2.43,6.08,2.87,9.19,8.26,12.88,13.04,10.16,13.17,20.07,26.55,29.56,40.21,3.95,5.7,6.9,12.17,9.73,18.55,5.27,11.89,9.86,24.08,15.21,35.94,4.5,10,5.57,20.7,7.55,31.24,1.8,9.6,3.76,19.16,5.36,28.79,1.13,6.78,2.17,13.62,2.53,20.47.43,8.18.85,16.48-.07,24.57-1.54,13.6-4.18,27.1-11.88,38.87-1.37,2.1-3.68,3.62-5.64,5.31-8.46,7.29-16.85,14.66-25.46,21.77-8.67,7.16-18.96,11.36-29.46,14.96-18.72,6.42-37.5,12.68-56.29,18.93-10.32,3.43-20.55,7.26-31.08,9.92-15.28,3.85-30.97,6.13-46.14,10.32-14.81,4.09-29.62,6.91-44.99,6.8-13.02-.09-26.12.91-39.03-.27-15.65-1.43-31.8-2.33-46.03-9.9-8.27-4.4-15.69-10.53-23.16-16.32-8.93-6.92-18.04-13.76-26.07-21.65-9.75-9.57-22.91-13.09-33.59-20.79-10.88-7.86-21.74-15.81-32-24.44-5.48-4.61-9.53-10.87-14.47-16.16-7.25-7.77-13.55-16.13-18.01-25.85-4.52-9.86-9.05-19.56-12.22-30.12-3.45-11.49-1.47-22.97-3.25-34.34-.68-4.34,1.69-9.16,2.73-13.76,2.96-13.09,5.78-26.21,8.98-39.25,3.39-13.79,8.95-26.78,16.16-38.97,1.79-3.03,4.93-5.32,7.68-7.7,6.27-5.42,12.72-10.64,18.98-16.06,1.11-.96,1.68-2.53,3.09-4.75-5.96-1.91-11.29-3.17-16.23-5.32-8.02-3.49-16.02-7.18-23.6-11.52-7.44-4.27-8.8-19.15-2.68-25.18,7.38-7.27,15.18-14.12,22.33-21.61,3.67-3.85,6.51-8.55,9.39-13.08,4.53-7.11,11.31-11.04,18.65-14.54,2.07-.99,4.62-3.32,4.88-5.3.65-5.05,3.5-7.03,7.9-7.97-2-16,1.38-31.47,4.43-47.03,1.47-7.52,2.45-15.2,2.8-22.85.55-12.33,3.85-23.02,14.46-30.52,2.35-1.66,4.24-4,6.22-6.13,11.2-12.06,25.65-19.81,39.48-27.95,11.34-6.68,24.53-8.78,36.09-3.02ZM626.09,345.14c-1.16,1.93-2.39,3.16-2.68,4.58-1.79,8.76-3.31,17.57-5.04,26.34-4.55,23.16-12.35,45.2-22.73,66.38-1.55,3.16-2.26,6.73-3.31,10.13-2.49,8.07-4.22,16.49-11.86,21.86-3.12,2.19-7.74,2.54-10.5-.96-1.23-1.55-.96-5.18-.07-7.32,1.93-4.64,5.27-8.71,7.04-13.39,8.35-22.18,16.56-44.42,24.39-66.79,2.94-8.41,4.82-17.2,6.99-25.86,2.73-10.87,4.98-21.86,7.98-32.65,2.94-10.57,2.74-16.36-8.57-23.26-5.71-3.48-11.33-7.14-16.78-11.01-7.76-5.51-15.05-11.73-23.08-16.8-6.86-4.34-14.48-7.46-21.74-11.16-6.27-3.2-11.88-2.81-16.92,2.55-1.41,1.5-3.51,2.33-5.22,3.56-15.09,10.86-32.03,19.12-45.52,32.28-.84.82-2.8,1.41-3.78,1-7.68-3.25-8.99-11.89-2.27-16.62,9.59-6.75,19.54-12.98,29.35-19.43,4.39-2.89,8.78-5.77,13.17-8.66-.19-.62-.38-1.24-.57-1.86-4.71-.37-9.43-1.14-14.13-1.02-12.38.3-24.16,3.15-35.5,8.35-4.49,2.06-9.65,3.49-14.55,3.66-13.49.48-24.74,6.13-35.46,13.54-4.02,2.78-8.36,5.15-12.13,8.22-8.71,7.1-17.69,13.98-25.52,21.98-5.41,5.53-6.75,13.49-7.45,21.28-.74,8.15-1.74,16.28-2.95,24.38-1.1,7.39-3.35,14.68-3.81,22.09-.67,10.61-.24,21.29-.1,31.94.03,1.86.43,4.19,1.59,5.48,3.24,3.6,6.72,7.1,10.56,10.04,7.25,5.55,14.72,10.83,22.27,15.95,7.35,4.99,15.62,7.99,24.26,9.91.83.19,2.63-.67,2.79-1.32.64-2.66,1.53-5.57,1.02-8.12-1.25-6.26-.8-12.03,2.41-17.61,1.2-2.08,2.47-4.29,2.94-6.6,3.12-15.49,6.93-30.92,8.76-46.57,1.68-14.41,4.34-28.38,10.41-41.49,3.49-7.53,7.93-14.65,12.3-21.74,2.67-4.33,5.54-4.3,8.85-.58,4.83,5.43,4.75,9.07-.71,15.13-9.28,10.31-13.62,23.06-16.41,36.07-3.55,16.57-5.31,33.51-8.28,50.21-2.25,12.63-5.25,25.12-7.81,37.7-.47,2.32-.94,4.87-.46,7.11,1.62,7.44,8.63,6.58,13.74,7.78,12.02,2.82,24.2,4.98,36.37,7.13,7.23,1.28,14.52,2.3,21.83,2.93,6.42.55,12.9.42,19.35.53.57,0,1.3-.33,1.68-.76,4.1-4.47,8.38-2.91,12.97-.79,9.98,4.61,20.51,8.13,31.5,7.91,16.96-.33,34.03-.87,50.79-3.25,8.9-1.26,17.39-6.23,25.73-10.22,3.72-1.78,5.06-5.3,3.38-10.09-1.59-4.52-1.74-9.59-2.25-14.44-.82-7.85-.6-15.9-2.26-23.54-2.8-12.83-6.28-25.57-10.34-38.06-3.84-11.83-8.78-23.3-13.66-36.01ZM504.18,491.72c-.03-.53-.06-1.07-.09-1.6-4.1-.53-8.25-.83-12.29-1.62-6.96-1.37-13.82-3.3-20.8-4.54-14.72-2.61-29.75-3.54-43.67-9.91-6.44-2.94-13.92-3.83-20-7.28-14.41-8.16-28.5-16.94-42.2-26.24-4.5-3.05-7.2-8.64-11.11-12.7-1.97-2.04-4.92-4.69-7.23-4.51-3.77.3-8.27,1.78-10.91,4.35-12.42,12.07-24.33,24.67-36.37,37.13-1.19,1.24-1.98,2.87-3.53,5.16,7.44,3.5,14.16,7.09,21.2,9.87,12.27,4.84,25.8,5.47,37.93,11.04,9.19,4.22,19.2,5.04,29.08,6,15.16,1.47,30.29,3.42,45.62,2.13,12.48-1.05,25.04-1.15,37.53-2.19,11.09-.92,22.12-2.54,33.17-3.92,1.26-.16,2.46-.76,3.69-1.16Z"/>
  <path d="M351.76,690.25c-1.03-6.79,4.66-9.22,10.97-7.01,9.19,3.23,18.11,7.25,27.31,10.42,13.13,4.53,27.1,4.68,40.27,2.52,20.68-3.39,39.1-13.06,55.13-26.88,3.22-2.77,6.39-5.73,10.01-7.86,1.87-1.1,5.12-1.48,7.01-.6,8.52,3.97,16.63,8.85,25.19,12.73,6.78,3.07,14.03,5.09,21,7.73,17.18,6.5,34.9,10.62,53.25,11.22,10.26.34,20.66.19,30.81-1.17,6.93-.92,13.42-4.85,20.32-6.47,14.15-3.32,28.01-7.31,40.91-14.16,2.59-1.37,5.2-2.71,7.73-4.17,4.11-2.36,9.98-.7,12.25,3.55,2.66,4.99,1.48,8.31-3.96,11.16-15.17,7.96-30.69,14.91-47.62,18.48-13.46,2.84-26.6,7.8-40.17,9.4-13.7,1.61-27.83,1.96-41.55-1.89-12.03-3.38-24.32-5.96-36.17-9.88-11.08-3.66-22.09-7.94-32.46-13.24-7.18-3.67-12.04-1.55-17.91,2.21-12.19,7.8-24.28,16.01-37.31,22.17-13.73,6.49-28.92,8.55-44.18,6.95-11.97-1.25-23.91-2.76-35.01-8.28-4.72-2.35-10.2-3.24-15.38-4.6-6.54-1.72-10.49-6.24-10.46-12.34Z"/>
  <path d="M426.41,620.9c-13.81-1.92-24.5-6.71-30.9-18.14-.93-1.66-.39-4.99.72-6.76,2.08-3.3,4.96-6.13,7.73-8.93,1.87-1.9,2.32-3.36.2-5.38-2.74-2.61-2.83-6.3-3.96-9.61-.78-2.3-6.08-2.67-8.4-4.9-5.58-5.37-5.57-10.07,2.82-13.41,2.76-1.1,5.17-2.12,5.24-6.12.08-4.62,4-7.35,9.1-6.71,4.98.62,9.92,1.72,14.81,2.92,11.12,2.73,18.59,9.99,23.21,20.11,1.36,2.98.77,6.79,1.72,10.02,2.24,7.58,5.4,14.92,5.82,22.94.17,3.24.59,6.58-4.38,7.2-1.63.2-3.18,2.5-4.4,4.11-5.26,6.94-12.34,10.74-19.34,12.66Z"/>
  <path d="M663.04,600.91c-1.31,5.24-2.58,10.29-3.81,15.34-.84,3.41-7.41,4.75-11.48,2.41-9.11-5.24-15.27-13.26-20.85-21.85-.8-1.24-1.26-2.78-2.27-3.79-7.34-7.35-3.86-13.91.21-21.58,5.27-9.91,13.61-16.54,21.31-24.02,3.98-3.86,7.72-7.99,11.33-12.2,2.95-3.43,6.23-6.02,10.96-5.18,3.21.57,7.18,7.14,7.85,11.19.78,4.78,2.15,9.46,3.12,14.21.35,1.69.92,3.76.3,5.16-4.3,9.57-3.47,14.52,2.81,22.22,2.08,2.56,3.3,6.45,3.38,9.78.05,2.01-2.5,5.34-4.49,5.9-5.01,1.4-10.37,1.57-15.59,2.22-.65.08-1.31.09-2.78.18Z"/>
  <path d="M536.18,595.96c-1.98,3.1-3.96,6.57-6.31,9.77-2.68,3.64-5.63,7.08-8.6,10.48-.66.76-1.87,1.25-2.91,1.45-5.23,1-9.29-2.1-10.85-5.99-1.18-2.97.02-7.79,1.78-10.85,2.97-5.15,7.12-9.63,10.95-14.25,3.94-4.76,10.03-4.25,13.08,1.17,1.24,2.2,1.7,4.84,2.83,8.22Z"/>
</svg>