<?xml version="1.0" encoding="UTF-8"?>
<svg id="Layer_1" xmlns="http://www.w3.org/2000/svg" viewBox="0 0 1024 1024">
  <path d="M302.56,657.08c1.29-8.29,2.69-17.81,4.28-27.3,1.1-6.53,1.92-12.07-6.33-15.52-9.04-3.77-13.6-12.45-15.32-21.58-3.79-20.03-8.32-39.91-8.85-60.54-.45-17.5,2.95-33.65,9.95-49.59,8.51-19.39,16.05-39.22,23.85-58.92,4.37-11.05,12.11-19.4,20.15-27.89,12.12-12.78,26.93-21.47,42.73-27.8,15.32-6.13,31.61-10.2,47.8-13.68,15.64-3.36,31.65-5.16,47.57-6.95,6.6-.74,13.4.52,20.11.55,4.54.02,9.12-1.05,13.62-.74,17.02,1.15,34,3.63,51.02,3.82,25.54.29,46.84,12.91,69.83,21,23.04,8.1,39.97,23.36,55.89,40.53,4.51,4.86,8.61,10.2,12.26,15.74,2.64,4.01,5.5,4.31,9.9,3.9,3.33-.3,8.3.79,10.11,3.13,11.46,14.84,22.75,29.86,33.1,45.49,10.05,15.18,16.73,32.14,19.57,50.13,1.1,6.94.45,14.86-1.88,21.47-3.62,10.25-1.31,19.38,1.68,28.81,3.8,11.96,7.89,23.83,11.47,35.86,1.92,6.44-.04,8.18-6.59,8.76-9.8.87-17.63-3.23-25.76-7.95-8.8-5.09-18.34-8.95-27.77-12.84-1.15-.48-4.99,1.94-5.23,3.41-2.69,16.24-4.65,32.61-7.36,48.85-1.53,9.18-3.81,18.28-6.3,27.26-1.57,5.68-8.81,10.22-14.13,9.8-6.1-.48-15.58-8.28-15.6-14.45-.04-13.65-8.28-24.51-11.46-37.04-1.51-5.95-3.89-11.67-5.56-17.59-1.49-5.27-4.05-9.1-10.12-7.87-5.94,1.2-12.21,2.16-17.53,4.82-9.85,4.93-19.89,7.41-30.87,8.74-9.19,1.11-18.18,5.52-26.8,9.46-20.21,9.24-40.1,19.15-60.24,28.54-2.19,1.02-5.34,1.12-7.71.46-10.45-2.91-14.47-.95-20.69,8.09-6.76,9.82-14.39,19.06-21.93,28.31-4.56,5.6-9.12,11.45-14.69,15.93-10.41,8.39-15.76,5.87-20.97-6.16-3.94-9.1-2.15-17.81-.84-26.43,1.88-12.36-6.85-21.09-9.32-31.88-.23-1.02-5.85-2.26-7.68-1.19-6.29,3.65-11.76,4.22-17.62-.65-3.17-2.63-6.15-1.82-8.89,1.49-7.47,9.06-14.48,18.67-23.02,26.62-7.52,7-14.03,16.3-25.37,17.84-2.88.39-7.08-.33-8.91-2.23-6.4-6.67-11.35-14.3-11.62-24.19-.15-5.5-1.17-10.98-1.96-17.87ZM744.75,597.85c.85-.57,1.71-1.13,2.56-1.7-3.22-6.83-5.52-14.31-9.85-20.35-8.27-11.54-9.21-15.02-2.14-26.95,5.48-9.24,5.67-19.93,2.79-28.79-4.66-14.3-12.32-27.7-19.57-41.02-1.85-3.4-4.62-7.95-11.33-6.52-3.28.7-8.77-2.56-11.24-5.64-11.31-14.1-21.03-29.54-33.04-42.97-9.07-10.14-20.04-19.04-31.46-26.5-9.49-6.2-21.24-8.82-31.35-14.23-12.17-6.51-25.06-9.58-38.52-10.95-10.77-1.09-21.58-1.77-32.34-2.87-4.25-.43-8.46-2.28-12.64-2.16-9.62.29-19.2,1.77-28.83,2.1-11.94.41-24.32-1.8-35.75.64-15.74,3.36-32.13,4.18-47.21,10.64-10.25,4.39-21.11,7.54-30.89,12.76-26.18,13.96-42.19,37.03-53.51,63.57-6.6,15.47-12.72,31.21-17.88,47.22-3.26,10.1-6.34,20.98-5.94,31.38.65,16.84,4.4,33.55,6.45,50.37.69,5.7,3.64,8.98,8.48,11.13,3.75,1.67,7.52,3.32,11.33,4.86,7.87,3.17,11.15,9.58,9.47,17.48-2.89,13.6-5.62,27.24-8.01,40.94-.57,3.26.45,6.79.91,12.09,14.7-11.97,27.32-22.39,33.69-38.6,2.79-7.1,9.75-10.12,14.61-5.16,8.8,8.97,17.68,10.01,28.37,5.54.2-.08.47.02.7-.02,8.62-1.4,15.43,3.59,22.8,6.53,9.85,3.93,12.24,7.52,12.26,18.08.01,7.82,0,15.65,0,23.47.82.4,1.64.8,2.46,1.2,7.6-10.97,16.2-21.39,22.5-33.05,6.18-11.43,16.3-15.42,26.27-7.73,3.7,2.86,7.09,3.06,11.4,1.01,16.51-7.86,32.91-16.1,49.89-22.84,22.55-8.96,45.67-16.46,68.4-24.96,14.37-5.37,28.51-8.19,43.09-.91,7.15,3.57,13.33,12.14,10.86,17.45-5,10.75.53,20.12,2.66,29.96.15.69,1.75,1.07,3.37,1.97,1.49-17.2,2.76-33.7,4.5-50.14.3-2.85,1.86-6.75,4.07-8.01,8.72-4.99,17.79-8.07,27.92-2.58,9.65,5.22,19.78,9.54,29.7,14.25Z"/>
  <path d="M369.24,504.22c15.67,2.25,31.31,4.75,47.03,6.67,14.15,1.73,28.36,3.03,42.57,4.12,6.75.52,12.03,2.89,15.31,8.89,2.63,4.82,0,10.64-5.37,10.58-12.09-.13-24.23-.55-36.24-1.84-14.77-1.59-29.38-4.84-44.17-6.07-7.71-.64-15.71,1.18-23.47,2.48-8.2,1.37-17.04-2.67-20.69-10.19-3.05-6.31,3.95-14.31,12.38-14.03,4.16.13,8.32.46,12.48.71.06-.43.11-.87.17-1.3Z"/>
  <path d="M384.14,435.89c-.47,2.2-.07,6.88-2.22,9.02-4.82,4.81-10.44,10.2-16.63,11.74-3.77.93-9.4-4.61-13.81-7.78-1.67-1.2-2.08-4.02-3.38-5.89-6.4-9.18-3.75-12.22,5.3-16.49,6.88-3.25,14.15-6.52,22.09-3.75,5.27,1.84,8.03,5.81,8.64,13.14Z"/>
  <path d="M490.08,436.06c-.71,2.67-.62,4.63-1.47,5.18-6,3.91-11.87,8.24-18.39,11.02-6.04,2.58-16.66-5.19-17.76-13.15-.84-6.11,4.23-9.44,9.51-10.68,7.25-1.7,14.87-6.22,22.03-.03,2.59,2.24,4.35,5.44,6.07,7.66Z"/>
</svg>