<?xml version="1.0" encoding="UTF-8"?>
<svg id="Layer_1" xmlns="http://www.w3.org/2000/svg" viewBox="0 0 1024 1024">
  <path d="M311.92,903.07c5.96-1.89,7.62-6.53,7.75-11.92.18-6.99-.16-13.99.08-20.97.54-15.36,1.14-30.71,2.01-46.06.77-13.63,1.49-27.29,3.08-40.84,1.37-11.66,3.38-23.32,6.16-34.72,2.69-11.02,6.73-21.71,10.15-32.56.33-1.06.41-2.2.42-2.26-3.8-3.2-7.2-5.68-10.07-8.68-1.06-1.1-1.7-3.75-1.11-5.08,2-4.59,4.78-8.83,6.99-13.34,4.85-9.94,10.77-19.57,14.03-30.02,8.41-26.99,15.62-54.36,23.29-81.58,5.64-20.03,10.81-40.22,17.01-60.08,6.05-19.37,12.69-38.59,19.97-57.53,4.43-11.53,10.83-22.28,15.91-33.57,8.2-18.2,16.23-36.49,23.97-54.9,2.75-6.55,9.57-9.95,13.93-6.64,3.96,3,5.01,8.73,2.69,12.96-3.59,6.57-6.46,13.53-9.72,20.29-7.92,16.43-16.31,32.65-23.7,49.31-8.43,19-16.36,38.25-23.77,57.67-4.68,12.26-8.31,24.95-11.85,37.6-4.82,17.19-8.89,34.58-13.68,51.78-5.62,20.17-11.46,40.29-17.59,60.31-2.99,9.78-6.5,19.45-10.45,28.88-2.68,6.41-6.35,12.45-9.95,18.43-2.72,4.53-2.3,5.91,3.06,6.97,4.24.83,6.54,7.45,4.37,13.64-2.2,6.29-5.09,12.34-7.16,18.66-4.57,13.99-7.8,28.32-9.09,43.01-1.14,12.93-1.97,25.88-3.03,38.81-.69,8.34-1.96,16.66-2.27,25.01-.69,18.95-2.33,37.95,1.33,56.8.67,3.47,3.46,4.36,6.22,4.21,9.08-.51,18.13-1.34,27.19-2.13,2.76-.24,5.49-.9,8.26-1.08,9.84-.63,13.01-8.68,17.14-15.49,8-13.19,12.76-27.63,17.42-42.32,4.84-15.26,12.33-29.69,18.97-44.34,1.57-3.47,7.11-6.1,9.67-2.61,3.29,4.5,6.91,3.8,10.97,2.17,7.37-2.95,14.75-5.87,21.99-9.11,1.33-.6,2.74-2.67,2.79-4.11.13-3.64,1.61-5.69,5.08-4.64,2.21.67,5.28,2.58,5.68,4.43,1.88,8.59,3.48,17.31,4.23,26.06,1.63,19.09,2.13,38.35,8.22,56.72,2.76,8.31,5.16,16.48,4.96,25.34-.07,3.02,1.52,4.4,5.22,3.68,6.58-1.27,13.33-1.64,19.99-2.5,2.57-.33,5.4-.39,7.59-1.55,11-5.84,21.89-11.81,28.58-23.18,1.52-2.58,3.83-6.1,8.27-4.05,4.06,1.87,7.79,8.52,5.64,12.37-2.81,5.04-6.13,10.53-10.71,13.71-11.72,8.16-24.15,15.33-36.54,22.44-2.48,1.42-6.08.98-9.18,1.19-2.5.17-5.02.15-7.52-.01-2.48-.17-5.02-.35-7.39-1.04-2.14-.62-4.01-2.11-6.12-2.88-3.89-1.44-9.32-1.14-10.6-5.87-1.52-5.59-1.64-11.58-2.19-17.42-.28-2.99.47-6.19-.32-9-5.33-18.98-8.6-38.23-8.8-57.99-.05-5.04-.88-10.08-1.44-16.04-3.07,1.11-5.97,2.3-8.96,3.21-9.17,2.79-18.39,5.39-27.53,8.26-1.63.51-3.46,1.58-4.38,2.95-8.43,12.53-12.67,26.77-16.21,41.24-2.95,12.05-8.82,22.65-15.15,33.17-3.73,6.2-6.61,12.99-9.19,19.78-2.06,5.43-5.96,4.84-10.26,4.71-5.85-.17-11.85-.84-17.52.19-14.98,2.72-29.65,2.2-44.29-1.82-9.71-2.67-13.02-6.59-12.55-16.06Z"/>
  <path d="M649.93,366.9c-2.52,8.82-6.09,15.48-13.71,20.24-8.91,5.57-17.62,10.94-28.29,12.24-3.27.4-4.72,2.03-4.86,5.93-.68,19.27-1.88,38.53-2.87,57.79-.1,2-.01,4-.01,6.52,3.8-1.62,6.4-3.15,10.47-1.57,5.65,2.19,6.33,5.84,5.45,10.42-2.5,13.1-.31,25.83,2.49,38.54,3.47,15.75,7.6,31.38,10.31,47.25,2.02,11.84,2.2,23.99,3.28,36,.29,3.24-1.14,5.18-3.82,6.81-2.46,1.49-4.75,3.36-6.85,5.34-8.48,8.03-17.2,15.7-29.26,17.66-7.66,1.25-14.89.26-21.79-7.02-.84,6.17-1.48,11.2-2.2,16.22-.6,4.16-1.2,8.33-1.99,12.45-.15.81-1.37,2.17-1.74,2.07-3.51-1-7.31-1.71-10.31-3.62-3.04-1.94-5.24-4.7-4.04-9.42,3.39-13.37,6.22-26.89,9.01-40.4.33-1.62-.48-3.99-1.59-5.31-2.91-3.47-3.41-6.57-1.85-11.1,4.26-12.4,7.04-25.33,11.68-37.57,5.39-14.22,9.39-28.75,12.5-43.56.7-3.35.51-6.97.19-10.42-.12-1.29-1.57-3.06-2.81-3.52-4.94-1.83-5.32-5.76-4.91-9.94.26-2.59,1.41-5.09,1.82-7.68,1.12-7.07,1.85-14.2,3.14-21.23,1.23-6.68,2.96-13.27,4.53-19.88,2.08-8.7,4.3-17.36,6.3-26.07.8-3.48-.47-5.27-4.44-5.86-12.07-1.81-24.08-4.06-36.1-6.23-5.6-1.01-10.97-2.64-16.77-.07-4.33,1.92-10.23-.89-11.4-4.43-1.15-3.49,2.01-7.93,6.97-10.07,6.06-2.62,12.15-1.61,18.04.13,14.3,4.21,28.91,6.22,43.67,8.16,14.6,1.92,26.26-3.12,37.17-11.23,3.62-2.69,6.06-7.09,8.59-10.99.43-.67-1.29-2.88-2.21-4.25-2.47-3.73-5.06-7.4-7.58-11.1-1.97-2.9.37-4.14,2.33-4.54,3.51-.72,7.29-.34,9.26,3.1,4.1,7.19,11.38,9.59,18.21,12.51,6.51,2.78,13.53,4.4,19.99,7.27,13.99,6.2,28.52,9.22,43.77,8.92,5.75-.12,7.02-1.8,5.68-7.29-1.97-8.1,1.01-13.71,9.85-18.72,2.83-1.6,5.64-3.27,8.27-5.17,1.09-.79,2.24-2.27,2.28-3.46.03-.77-1.81-1.93-3.01-2.35-6.89-2.42-13.96-4.36-20.72-7.08-4-1.61-7.83-3.99-11.25-6.65-12.89-10.05-26.52-18.96-40.86-26.75-7.99-4.33-11.8-12-16.36-19.13-.7-1.09-1.67-2.18-1.85-3.37-.22-1.49-.16-3.33.56-4.55.45-.77,2.34-.89,3.6-.94,5.65-.2,8.51,3.2,11.29,7.77,6.55,10.77,15.9,18.25,27.63,23.43,7.04,3.11,13.2,8.4,19.43,13.14,8.24,6.27,17.75,9.4,27.46,12.25,10.94,3.2,21.79,6.53,31.01,13.78,2.67,2.09,3.84,3.9,1.94,6.76-4.28,6.45-8.35,13.1-13.21,19.09-2.98,3.67-7.15,6.42-10.99,9.32-2.83,2.14-6.48,3.37-8.88,5.86-7.85,8.14-17.35,6.34-26.72,4.97-9.52-1.39-19.08-2.8-28.41-5.08-5.94-1.45-11.51-4.45-17.22-6.84-5.68-2.38-11.31-4.87-17.28-7.45ZM599.77,475.9c-.31-.07-.62-.15-.93-.22-.54,2.87-1.24,5.72-1.58,8.62-.71,6.03-1.05,12.1-1.87,18.11-1.24,9.06-3.67,18.07-3.9,27.14-.22,8.82-1.59,17.24-3.77,25.66-4.44,17.16-8.9,34.31-13.2,51.5-.33,1.31.05,3.81.9,4.26,5.6,2.98,11.16,7.26,17.86,2.18,3.36-2.55,7.4-4.35,10.37-7.27,6.78-6.67,12.69-13.73,12.72-24.35.05-16.58-4.02-32.37-7.56-48.33-2.74-12.4-5.33-24.84-7.46-37.35-1.11-6.55-1.09-13.29-1.58-19.95Z"/>
  <path d="M496.62,257.05c2.6-5.71,5.05-11.5,7.85-17.11,3.56-7.11,6.91-14.4,11.31-20.98,3.17-4.74,7.44-4.14,12.12-.45,4.36,3.43,8.9,5.98,15.25,4.48,2.55-.6,6.16,2.19,8.93,3.98,2.73,1.77,5.33,3.97,7.39,6.47,1.42,1.73,2.92,4.56,2.49,6.45-3.98,17.29-8.01,34.58-12.74,51.67-5.11,18.45-12.5,35.95-23.71,51.72-2.75,3.86-6.32,6.09-10.28,6.85-8.35,1.62-16.88,2.78-25.38,3.07-9.07.32-17.81-1.74-25.44-7.27-1.67-1.21-3.86-2.4-5.8-2.37-6.9.09-10.9-4.88-15.74-8.36-4.28-3.07-4.61-7.67-4.35-12.42.25-4.68.33-8.87-5.22-11.37-3.91-1.77-3.51-5.93-1.87-9.53,6.93-15.26,13.66-30.62,20.95-45.72,5.29-10.96,11.16-21.66,17.13-32.28,2.02-3.6,5.4-5.88,10.11-5.39,3.36.35,6.54.44,8.93-3.3,1.88-2.95,8.48-2.19,12.65.76,3.49,2.47,3.71,5.46,2.34,9.51-2.45,7.21-4.12,14.68-6.14,22.04-.8,2.93-1.66,5.85-2.5,8.77.58.25,1.15.5,1.73.76Z"/>
  <path d="M477.21,197.43c2.98,3.26,5.03,5.51,7.18,7.86-1.48,4.38-5.35,3.77-8.2,3.04-2.77-.71-6.22-2.51-7.39-4.83-1.62-3.22.66-5.93,5.45-6.27-6.28-5.26-11.57-9.88-19.02-11.94-9.75-2.7-12.96-9.26-10.71-19.07,1.02-4.44,1.09-9.4,3.23-13.21,3.57-6.33,8.19-12.15,12.98-17.66,1.1-1.27,4.79-.9,7.1-.39,7.02,1.55,13.75,3.24,21.25,1.97,5.87-.99,12.14.4,18.23.7.61.03,1.23-.19,3.49-.58-2.56-2.41-4.02-4.62-6.07-5.55-5.12-2.33-5.89-6.93-6.16-11.4-.25-4.17,3.88-4.77,6.76-6.62,7.25-4.66,14.95-5.99,23.39-5.94,5.91.04,10.8,2.13,15.73,4.78,7.46,4,14.84,8.2,22.5,11.78,5.26,2.46,14.14-1.07,17.25-5.97,3.03-4.79,6.16-9.51,9.33-14.2,4.36-6.45,14.07-7.67,21.77-5.44,11.43,3.32,17.13,10.35,17.99,21.81.46,6.13,3.83,8.24,9.61,10,12.03,3.67,18.45,13.29,22.32,24.89.7,2.1,2.5,4.18,4.34,5.48,3.06,2.17,3.43,5.09.7,8.33-2.19,2.59-4.05,5.45-6.8,9.2,7.03,1.52,12.32,2.41,17.48,3.83,13.6,3.72,22.83,12.4,27.01,25.81,2.02,6.48,3.11,13.31,4.04,20.06,2.39,17.32-2.22,34.17-3.89,51.22-.43,4.42-.86,8.85-.99,13.28-.1,3.56-1.64,5.18-5.17,5.05-1.83-.07-3.66.03-5.49-.02-4.5-.12-6.8-2.96-6.33-7.39,1.07-10.11,1.98-20.23,3.01-30.34.58-5.69,1.31-11.36,1.86-17.06.1-1.07.02-2.61-.64-3.22-3.4-3.14-2.05-6.22-.86-9.88,3.78-11.58,1.43-22.51-6.1-31.71-2.33-2.84-7.43-3.68-11.44-4.82-6.97-1.97-14.04-3.61-21.15-5.01-1.13-.22-2.74,1.47-4,2.45-5.95,4.63-11.26,10.56-17.9,13.72-13.07,6.22-26.19,13.34-41.48,12.32-5.54-.37-11.04-1.79-16.57-1.86-8.47-.12-16.95.78-25.42.75-7.57-.03-15.16-1.25-22.71-.99-6.15.22-8.53-4.79-12.17-7.65-3.6-2.82-6.67-3.76-11.18-4.09-7.53-.55-14.92-2.96-22.37-4.57-.75-.16-1.51-.26-3.79-.66ZM514.47,125.88c1.43.39,2.33.73,3.26.88,6.09.92,8.07,4.4,8.94,10.55,1.18,8.37,2.66,16.98,7.58,24.38,2.88,4.33,5.59,8.79,8.12,13.33,1.42,2.54,2.49,5.99-1.82,6.41-6.67.65-13.44.38-16.86-7.13-3.37-7.39-6.6-14.84-10.18-22.12-.88-1.79-2.8-4.17-4.4-4.3-6.21-.49-12.48-.29-18.73-.13-5.26.13-10.52.41-15.75.91-2.21.21-4.83.57-6.45,1.88-6.42,5.19-6.74,12.72-6.5,20.15.04,1.38,1.74,3.09,3.11,3.97,6.02,3.88,12.12,7.65,18.33,11.21,7.84,4.5,15.93,7.63,25.19,3.94,1.67-.67,4.08-.39,5.86.25,9.45,3.38,18.73,7.25,28.24,10.44,3.33,1.12,7.2,1.36,10.73,1,7.13-.73,13.48-2.59,21.3.52,9.81,3.9,20.93,5.14,31.7-.28,8.93-4.5,19.2-6.42,26.51-13.94,5.23-5.39,10.15-11.09,15.42-16.45,2.69-2.73,5.17-4.97,1.25-8.65-.89-.83-1.17-2.76-1.06-4.13.5-6.33-2.23-11.16-6.82-15.04-1.41-1.19-3.54-2.35-5.22-2.21-3.27.28-3.44,3.21-2.99,5.72.94,5.27-2.42,6.62-6.41,7.32-2.85.5-9.35-3.31-9.5-5.75-.31-5.17-.64-10.41-.11-15.53.73-7.03,2.03-13.73-1.73-20.58-2.02-3.68-3.94-3.42-5.96-1.37-2.49,2.52-4.57,5.6-6.27,8.75-9.47,17.57-27.89,21.98-44.12,15.3-9.68-3.98-17.99-11.28-26.93-17.06-.82-.53-1.72-1.16-2.64-1.27-3.94-.48-12.76,4.72-15.09,9.08Z"/>
  <path d="M476.75,727.37c-5.14,9.13-15.47,11.63-25.97,12.26-5.78.35-11.78-1.97-17.58-3.5-5.17-1.37-10.11-3.59-15.29-4.92-4.22-1.08-8.16-.38-10.39,4.21-2,4.12-4.23,8.11-6.27,12.21-2.2,4.43-5.17,5.08-8.77,1.61-1.52-1.46-2.62-3.35-4.07-4.9-2.96-3.16-2.34-6.14.15-9.2,11.1-13.62,16.72-29.22,18.15-46.75,1.37-16.79,3.76-33.5,5.86-50.23,2.26-17.95,5.86-35.64,11.38-52.89,1.15-3.59,6.12-7.18,8.77-5.93,3.56,1.67,4.96,4.67,3.85,8.81-3.21,11.95-6.35,23.91-9.31,35.92-3.53,14.35-5.41,28.89-5.94,43.72-.43,12.1-2.43,24.15-3.75,36.22-.28,2.59-.98,5.22-.73,7.75.11,1.16,1.88,2.61,3.2,3.12,7.27,2.76,14.61,5.38,21.99,7.84,6.48,2.16,12.82,1.93,18.96-1.56,2.64-1.5,5.56-2.54,8.42-3.61,3.65-1.36,4.18-4.56,5.16-7.72,4.55-14.6,9.77-29.02,13.77-43.76,4.56-16.77,8.24-33.78,12.01-50.75,3.71-16.69,6.93-33.49,10.59-50.19,2.99-13.65,6.3-27.24,9.49-40.85,1.38-5.89,5.65-8.71,10.9-6.94,4.03,1.35,6.48,5.98,4.98,11.54-3.69,13.64-7.61,27.23-10.81,40.99-4.97,21.4-9.37,42.93-14.12,64.38-2.91,13.17-5.65,26.39-9.15,39.41-3.41,12.69-7.79,25.12-11.5,37.73-.91,3.1-.56,6.57-1.45,9.68-.73,2.56-1.89,5.83-3.89,6.96-1.86,1.06-5.08-.28-8.67-.67Z"/>
  <path d="M567.28,668.63c0,8.18-.13,16.35.04,24.53.15,7.12.73,14.22.92,21.34.16,6.18.02,12.37.04,18.56.04,7.89.77,15.48,4.2,22.94,1.89,4.1,1.34,9.34,1.77,14.07.43,4.75.68,9.51,1.05,14.27.3,3.93.68,7.85.96,11.78,1.01,14.1,2.1,28.2,2.86,42.32.11,2.06-.81,5.46-2.19,6.06-3.1,1.33-5.22-.7-6.43-4.01-1.55-4.24-3.46-8.39-5.59-12.37-2.69-5.02-3.67-9.98-3.01-15.81.67-5.96-.2-12.12-.68-18.17-.43-5.38-1.14-10.74-1.91-16.08-1.4-9.68-3-19.32-4.39-29-.67-4.7-1.36-9.43-1.51-14.16-.25-7.98.17-15.97-.12-23.95-.51-14.34-1.36-28.67-2.02-43.01-.1-2.22-.44-4.63.27-6.62.59-1.68,2.44-3.93,3.91-4.07,2.81-.28,6.74-.21,8.4,1.49,2.28,2.33,2.89,6.31,4.21,9.58-.26.11-.52.22-.79.33Z"/>
  <path d="M593.05,250.34c3.41,2.26,6.94,4.36,10.14,6.88.8.63,1.02,2.81.63,3.99-3.3,10.06-13.39,15.39-23.65,12.72-.94-.24-1.94-.27-2.88-.49-4.65-1.1-6.26-4.55-3.15-8.15,3.93-4.55,8.47-8.6,12.99-12.58,1.2-1.06,3.32-1.07,5.02-1.56l.91-.81Z"/>
  <path d="M665.44,229.56c6.37-.02,13.55,4.34,13.58,8.25.06,7-5.03,13.45-10.7,13.58-7.54.17-15.4-5.75-15.06-11.68.26-4.46,4.21-10.5,12.18-10.14Z"/>
</svg>