<?xml version="1.0" encoding="UTF-8"?>
<svg id="Layer_1" xmlns="http://www.w3.org/2000/svg" viewBox="0 0 1024 1024">
  <path d="M755.34,682.35c11.61,6.41,22.35,11.58,32.29,18,14.23,9.19,20.75,24.05,26.34,39.27,5.59,15.21,10.89,30.52,16.51,45.71,6.3,17.03,12.06,34.2,11.31,52.65-.24,5.93-1.75,11.88-3.24,17.68-1.24,4.84-10.52,5.87-14.38,1.02-6.23-7.81-11.92-16.12-17.16-24.63-9.63-15.66-19.69-30.72-33.23-43.56-8.74-8.28-14.76-19.37-23.08-28.19-9.54-10.12-20.21-19.18-30.51-28.58-4.81-4.39-9.77-8.63-14.88-12.65-4.07-3.2-7.83-4.21-12.38.47-21.51,22.1-50.49,26.59-78.76,32.71-20.98,4.54-41.84,9.66-62.88,13.91-19.54,3.94-38.93,8.04-59.38,5.54-15.22-1.86-30.87.21-46.28-.58-11.96-.61-24.06-1.97-35.69-4.72-21.38-5.05-42.48-11.3-63.64-17.24-3.19-.89-6.23-2.58-9.09-4.3-12.58-7.58-24.72-5.31-36.19,2.07-13.67,8.79-27.02,18.09-40.36,27.4-9.82,6.86-19.3,14.22-29.1,21.12-18.3,12.89-39.19,13.84-60.45,12.45-5.76-.38-11.37-10.42-10.72-16.26,1.63-14.63,12.64-22.82,21.78-31.96,14.65-14.64,29.18-29.22,42.06-45.56,9.23-11.71,20.7-21.65,31.22-32.35,2.74-2.78,5.68-5.36,8.44-8.11,11.88-11.85,10.73-9.73,2.55-22.04-8.7-13.08-13.47-26.9-17.69-41.74-3.73-13.13-10.25-25.79-17.36-37.56-12.94-21.41-27.56-41.79-40.8-63.03-6.26-10.04-10.52-21.3-16.44-31.57-6.66-11.56-14.1-22.67-21.35-33.89-4.51-6.98-3.81-17.94,3.1-22.6,3.1-2.09,9.14-2.26,12.75-.73,17.51,7.46,34.15,16.05,47.53,30.61,12.71,13.84,27.42,25.83,41.17,38.72,4.06,3.81,8.18,5.63,13.65,2.79,5.72-2.96,5.2-8.22,4.3-12.78-1.9-9.59-4.15-19.19-7.33-28.42-5.03-14.61-4.93-29.22-2.93-44.27,2.07-15.54,2.39-31.32,4.84-46.79,2.2-13.9,5.66-27.68,9.6-41.22,6.27-21.53,13.53-42.77,20.06-64.22,1.36-4.45,3.27-6.33,8.07-6.1,4.56.22,8.87-.12,10.28,5.56.98,3.93,3.28,7.98,2.87,11.74-2.03,18.52,5.25,34.98,10.39,51.96,3.74,12.37,6.28,25.16,10.9,37.18,6.93,18.06,14.91,35.73,23.06,53.28,3.1,6.68,8.73,11.97,16.75,11.87,5.9-.07,11.79-1.79,17.68-2.76,11.8-1.95,23.64-3.69,35.36-6.02,2.3-.46,4.44-2.93,6.14-4.92,2.63-3.08,4.6-6.71,7.23-9.79,4.63-5.42,9.82-10.37,14.29-15.91,11.88-14.72,23.5-29.64,35.22-44.48.87-1.1,1.61-2.34,2.6-3.31,9.37-9.18,8.5-18.6,2.44-29.56-9.46-17.12-18.09-34.77-20.99-54.52-1.26-8.54-2.92-17.05-3.69-25.64-1.23-13.88-1.76-27.88,2.95-41.28,1.48-4.22,4.4-8.05,7.16-11.68,5.83-7.64,11.95-15.06,18.02-22.51,7.79-9.54,16.49-11.25,28.04-6.6,12.92,5.2,23.53,13.65,33.98,22.46,15.51,13.07,31,26.18,46.64,39.09,12.48,10.3,14.63,22.52,11.17,38.41-4.38,20.15-9.36,40.2-12.94,60.49-2.12,12.03-5.54,22.88-13.24,32.57-2.35,2.96-3.86,8.56-2.73,11.94,3.6,10.79,3.31,21.54,2.64,32.54-.41,6.82.05,13.69-.15,20.53-.07,2.34-.24,5.24-1.58,6.89-7.72,9.46-4.77,21.2-5.84,31.63-.62,6.06,5.58,13.41,9.94,19.26,6.53,8.77,11.9,8.45,23,1.3,18.81-12.13,25.41-30.98,34.68-48.92,7.65-14.81,16.26-29.12,24.49-43.62,12.1-21.3,28.2-39.1,47.96-53.45,3.09-2.25,9.18-4.27,11.54-2.76,4.25,2.74,8.14,7.81,9.58,12.68,1.75,5.88-.33,11.77-4.01,17.66-4.74,7.58-6.94,16.73-10.44,25.12-6.53,15.62-14.16,30.85-19.52,46.85-4.5,13.42-9.12,27.45-1.36,41.9,2.12,3.95,1.53,9.42,1.92,14.21.43,5.29,3.04,6.93,8.26,6.52,10.19-.79,20.44-.81,30.63-1.53,6.89-.49,13.91-.96,20.57-2.62,15.73-3.92,31.08-9.62,46.97-12.55,14.77-2.73,29.72-.61,44.06,4.81,5.75,2.17,11.88,3.52,17.95,4.65,9.28,1.73,15.2,6.59,15.94,16.26.14,1.82-2.21,5.54-3.27,5.49-10.29-.49-18.5,4.88-26.97,9.21-10.67,5.45-21.77,10.54-31.25,17.69-10.62,8.01-19.35,18.46-29.42,27.26-7.96,6.97-16.42,13.45-25.14,19.44-14.77,10.15-26.7,22.77-36.56,37.7-5.26,7.97-5.19,15-2.99,24.35,3.83,16.25,4.53,33.24,6.41,49.93.33,2.89.05,5.84.05,7.5ZM720.49,351.7c-7.3,10.02-14.47,18.71-20.36,28.2-9.43,15.22-18.36,30.79-26.83,46.57-5.31,9.89-7.87,21.55-14.37,30.44-8.53,11.67-19.61,21.51-29.8,31.93-5.13,5.25-11.3,5.04-17.3,1.61-6.43-3.67-12.53-7.94-18.98-11.56-8.14-4.57-14.93-9.43-18.49-19.21-5.83-16.01-5.96-31.6-.45-47.2,5.5-15.59,10.35-31.13,8.28-47.93-.26-2.09-.57-4.52-1.77-6.11-7.8-10.33-4.33-20.67.2-30.61,5.13-11.27,13.13-21.24,15-33.97.55-3.77,1.21-7.54,2.09-11.25,3.53-14.89,7.58-29.67,10.57-44.67,1.55-7.76-.09-14.54-7.51-20.34-14.62-11.41-28.05-24.33-42.15-36.42-6.36-5.45-12.83-10.88-19.79-15.49-8.31-5.52-14.27-4.77-20.72,3.05-5.16,6.25-8.6,13.88-13.5,20.38-7.23,9.57-8.82,19.89-6.44,31.35,1.07,5.18.81,10.64,1.93,15.81,2.57,11.84,4.3,24.12,8.81,35.23,5.53,13.62,13.45,26.28,20.54,39.25,5,9.15,3.46,19.38-3.13,27.22-15.52,18.45-30.57,37.29-45.83,55.96-2.58,3.15-4.97,6.53-7.93,9.28-9.02,8.37-17.8,16.63-20.86,29.45-.67,2.82-5.09,5.73-8.35,6.71-3.9,1.17-8.46-.08-12.65.42-9.46,1.14-18.85,2.85-28.31,4.07-9.3,1.2-18.69,3.09-27.94,2.68-4.59-.2-10.73-3.81-13.14-7.74-8.74-14.23-17.87-28.62-23.74-44.13-9.29-24.54-15.98-50.06-24.02-75.08-1.55-4.81-4.27-9.24-6.46-13.85-.81.24-1.62.48-2.44.72-3.85,11.95-7.71,23.9-11.56,35.85-1.46,4.54-3.8,9.01-4.22,13.66-2.27,25.02-4.12,50.07-5.95,75.13-.19,2.55.47,5.25,1.12,7.77,3.04,11.78,6.01,23.59,9.38,35.28,4.36,15.13,3.89,29.29-6.84,41.9-1,1.17-1.31,3.88-2.23,4.02-11.23,1.71-22.9,3.59-32.26-4.95-15.45-14.1-30.32-28.82-45.57-43.14-5.61-5.27-11.61-10.14-17.43-15.19-.53.54-1.06,1.09-1.58,1.63.51,1.28.87,2.64,1.54,3.83,9.47,16.96,18.6,34.13,28.62,50.77,8.08,13.44,16.62,26.7,26.09,39.18,11.38,15.01,19.37,31.85,23.81,49.55,3.98,15.87,11.34,29.52,20.04,42.47,6.44,9.59,6.45,18.72,4.07,28.79-2.95,12.47-13.18,19.43-21.47,27.82-13.35,13.52-26.84,26.91-40.18,40.44-9.29,9.43-18.44,18.99-27.63,28.51-2.3,2.38-4.52,4.82-6.78,7.24.47.63.94,1.27,1.4,1.9,3.3-.4,7,0,9.83-1.36,11.35-5.48,22.77-10.95,33.48-17.53,7.71-4.73,14.08-11.58,21.51-16.82,11.55-8.13,23.52-15.66,35.26-23.51,13.28-8.88,26.99-11.94,42-4.12,6.35,3.31,12.92,6.51,19.76,8.5,15.15,4.4,30.46,8.34,45.85,11.84,15.9,3.61,31.42,8.78,48.3,7.8,14.01-.81,28.33-.46,42.2,1.53,19.77,2.83,39.02,1.18,58.22-2.91,22.39-4.77,44.68-10.02,67.01-15.09,10.95-2.49,22.31-3.93,32.73-7.83,13.98-5.23,25.02-15.56,35.95-25.49,6.87-6.24,13.29-6.84,19.92-.39,6.72,6.53,13.11,13.4,19.98,19.77,6.36,5.9,13.81,10.74,19.63,17.11,10.22,11.19,19.92,22.9,29.16,34.91,12.82,16.67,25.03,33.8,37.47,50.76,2.42,3.3,4.69,6.7,8.13,11.62.61-3.28,1.05-4.21.9-5.02-2.66-14.11-4.95-28.29-12.28-41.05-2.36-4.11-3.9-8.73-5.59-13.2-5.4-14.25-7.52-29.85-17.24-42.33-6.03-7.73-11.84-15.88-22.39-17.88-6.35-1.2-12.85-1.65-19.14-3.07-15.47-3.5-19.56-11.38-13.87-25.93.43-1.1,1.04-2.27,1-3.38-.61-15.89,1.61-31.83-3.69-47.59-4.29-12.75-7.98-26.32,2.21-38.71,2.73-3.32,4.53-7.47,7.52-10.48,9.73-9.83,18.85-20.65,30.02-28.53,11.09-7.83,22.99-14.21,32.55-24.32,14.45-15.29,31.72-27.03,50.41-36.71,4.31-2.23,8.18-5.3,12.25-7.99-.11-.97-.21-1.95-.32-2.92-7-1.71-14.21-5.42-20.95-4.71-14.7,1.54-29.27,4.86-43.69,8.34-14.82,3.57-29.24,8.89-44.12,12.13-10.95,2.38-22.07,3.05-32.59,8.03-7.01,3.31-15.46-3.01-17.43-10.99-1.77-7.19-3.21-14.5-5.57-21.5-6.22-18.44-6.8-37.25-.89-55.42,4.93-15.17,12.74-29.4,19.13-44.11,2.31-5.31,5.65-10.67.86-18.68Z"/>
  <path d="M386.69,632.23c-8.34-2.48-18-3.11-24.71-7.88-9.61-6.84-14.5-18.26-12.78-30.37,2.03-14.27,6.21-27.81,17.69-38.33,7.58-6.94,16.69-9.01,25.77-11.65,17.86-5.19,31.52,4.06,44.43,14.22,9.05,7.12,6.55,22.79-2.11,27.95-1.26.75-2.13,2.85-2.36,4.45-.39,2.63-.37,5.39-.07,8.04,2.18,19-10.46,26.92-25.84,30.16-6.33,1.33-12.93,1.42-19.41,2.07-.2.45-.41.9-.61,1.35Z"/>
  <path d="M650.39,584.45c7.68.73,15.39,1.17,23.02,2.25,12.28,1.74,14.5,21.84,7.8,30.53-16.8,21.78-41.16,28.95-66.63,25.02-11.05-1.7-21.58-11.11-23.12-24.11-.37-3.09,1.38-7.2,3.49-9.71,13.64-16.19,31.25-23.94,52.45-23.44.98.02,1.95,0,2.93,0,.02-.18.04-.37.06-.55Z"/>
  <path d="M391.46,701.64c7.72.74,15.44,1.52,23.18,2.15,1.09.09,2.67-.22,3.3-.97,9.53-11.17,21.25-8.03,32.88-5.06,3.67.94,7.37,2.09,10.74,3.78,6.54,3.28,13.05,3.69,19.35.09,8.85-5.06,18.16-7.32,28.33-6.62,16.16,1.12,32.35,1.85,48.5,3.08,6.41.49,13.11.97,18.99,3.23,3.07,1.18,4.66,6.2,6.91,9.49-2.49,1.57-4.92,4.37-7.47,4.48-6.47.26-13-1.19-19.48-1.05-11.87.24-23.88.15-35.54,2.02-12.81,2.05-25.07,3.25-37.57-1.5-8.23-3.13-16.46-1.83-25.31-.13-14.83,2.85-30.27,3.75-45.4,3.36-7.62-.2-14.62-6.75-23.29-5.75-1.12.13-3.91-3.18-3.67-4.46.58-3.02,2.53-5.77,3.92-8.63.54.83,1.08,1.66,1.62,2.49Z"/>
</svg>