<?xml version="1.0" encoding="UTF-8"?>
<svg id="Layer_1" xmlns="http://www.w3.org/2000/svg" viewBox="0 0 1024 1024">
  <path d="M352.24,250.22c10.05-3.05,18.63-2.39,26.41,2.35,8.96,5.47,17.95,11.09,26.04,17.72,4.52,3.7,8.1,9.17,10.67,14.53,10.32,21.54,19.94,43.43,30.1,65.05,6,12.77,13.85,24.29,23.24,35,6.11,6.96,11.07,15.3,14.99,23.75,6.62,14.28,12,29.13,17.92,43.73.56,1.37,1.2,2.72,1.95,4,8.74,14.81,17.5,29.61,26.3,44.39.65,1.1,1.44,2.2,2.41,3.02,6.76,5.74,11.07,13.21,13.1,21.54,4.48,18.33,17.22,28.31,33.52,34.98,10.96,4.48,22.2,8.29,33.06,12.99,11.38,4.92,18.96,12.75,21.93,25.8,4.85,21.36,10.1,42.56,9.57,64.64-.12,4.97-1.02,9.93-1.77,14.86-.8,5.22.4,5.8,5.62,5.02,7.26-1.1,14.71-1.73,22.04-1.52,21.12.62,42.22,1.61,63.32,2.76,12.23.66,21.65-5.83,31.09-11.85,6.81-4.35,12.64-10.21,19.18-15.03,14.04-10.34,29.61-16.94,46.92-19.97,9.78-1.71,19.07-1.3,28.42,1.52,1.06.32,2.22.43,3.2.9,9.67,4.63,19.2,9.56,28.98,13.93,12.13,5.42,24.05,12.13,36.81,15.18,28.81,6.87,41.06,27.47,48.35,53.16,1.46,5.15,2.69,10.39,3.55,15.67.26,1.64-.6,3.97-1.76,5.25-4.71,5.16-10.23,9.65-14.54,15.1-7.16,9.05-16.57,9.59-26.72,4.3-5.48-2.86-11.66-4.74-17.74-5.97-13.95-2.82-26.56-7.58-36.08-18.93-2.01-2.4-5.84-3.51-9.04-4.64-4.32-1.52-9.19-1.77-13.18-3.83-4.82-2.49-8.81-1.38-13.66-.37-15.02,3.13-25.8,13.17-37.57,21.62-13.67,9.81-28.93,14.4-45.65,14.94-16.1.52-32.16,1.85-48.1-2.14-8.92-2.23-18-3.94-27.1-5.32-8.54-1.29-17.23-1.51-25.77-2.81-5.62-.86-11.03-3.02-16.62-4.2-8.19-1.72-8.77-1.27-9.03,6.75-.42,12.94-4.4,24.61-11.28,35.54-3.54,5.62-5.06,12.91-9.51,17.49-17.15,17.65-24.04,23.34-49.65,10.48-9.98-5.01-20.03-9.39-31.66-8.95-18.66.71-35.7-5.84-52.39-13.07-13.68-5.93-27.38-9.85-42.55-7.44-3.73.59-7.91-1.33-11.79-2.43-.66-.19-1.48-2.29-1.15-3.02.73-1.62,1.85-3.64,3.33-4.27,7.23-3.07,14.09-6.66,22.68-5.98,13.31,1.06,25.28,5.54,36.86,11.5,13.17,6.77,27.24,8.92,41.83,9.76,15.66.9,30.91,3.87,43.76,13.94,7.93,6.21,16.26,2.53,21.44-6.12,6.78-11.33,11.85-23.8,16.63-36.17,2.2-5.71,2.21-12.34,2.79-18.59,1.12-12.18,2.19-24.37,2.84-36.58,1.21-22.71,3.84-45.54,2.58-68.13-.98-17.68-6.61-35.17-10.89-52.56-1.25-5.1-5.81-7.43-11.66-8.63-17.56-3.59-34.53-8.54-48.72-20.91-12.04-10.49-22.44-21.35-25.78-37.67-.81-3.96-3.75-7.56-6-11.14-8.92-14.23-17.54-28.66-27.04-42.49-13.23-19.25-19.01-41.66-28.14-62.66-2.9-6.68-6.87-13.5-12.05-18.48-12.25-11.75-19.69-26.36-26.76-41.22-8.75-18.39-17.08-37-25.06-55.74-5.36-12.59-13.39-22.39-25.38-29.04-5.98-3.32-11.81-6.93-17.57-10.6-1.4-.89-2.3-2.58-4.04-4.62ZM639.85,694.54c-.6,12.29-1.28,22.74-1.42,33.2-.02,1.34,2.56,3.58,4.26,3.94,16.58,3.58,32.64,9.34,49.99,9.84,9.02.26,17.84,4.67,26.92,5.88,10.93,1.45,22.05,1.76,33.1,2.07,18.77.52,36.82-3.23,49.56-17.71,13.36-15.17,31.95-15.22,48.8-20.6.65-.21,1.49-.02,2.2.17,20.84,5.49,41.65,10.91,56.72,28.23,2.3,2.64,6.52,3.98,10.11,5.03,7.94,2.31,16.03,4.12,24.11,5.93,1.34.3,3.38.07,4.3-.78,7.89-7.3,14.62-14.54,10.54-27.22-5.73-17.81-14.01-33.17-31.88-41.01-6.88-3.02-14.69-3.91-21.65-6.79-16.92-7-33.52-14.77-50.41-21.83-3.7-1.55-8.56-2.97-12.06-1.86-10.86,3.45-21.97,7.01-31.75,12.68-10.94,6.34-20.68,14.83-30.65,22.75-10.71,8.51-22.42,14.54-36.22,15.14-7.15.31-14.36-.81-21.55-1.02-18.68-.55-37.38-1.59-56.04-1.13-9.14.22-18.28,3.92-26.99-4.9Z"/>
  <path d="M112.15,349.81c5.85-5.51,12.21-9.92,16.48-15.85,9.29-12.9,17.85-26.37,26.01-40.03,3.67-6.14,9.28-7.55,15.13-8.94,3.28-.78,5.26,2.52,3.55,5.97-5.37,10.77-10.82,21.51-16.51,32.12-9.23,17.18-21.08,32.17-37.18,43.54-1.4.99-2.92,2.8-3.11,4.37-1.37,11.66-6.03,22.78-4.05,35.06,2.02,12.54.9,25.68,3.7,37.98,4.36,19.16,8.74,38.25,19.18,55.81,13.64,22.94,28.87,45.29,35.36,71.99,2.2,9.04,7.38,17.33,10.82,26.11,1.66,4.24,2.93,8.76,3.48,13.27.45,3.7,1.66,6.02,5.33,6.61,4.25.68,5.96,3.4,6.14,7.32.37,8.12.33,16.28.99,24.37,1.92,23.27,5.52,46.24,11,69,2.66,11.06,2.9,22.73,3.76,34.17.63,8.48.68,17.02.62,25.53-.05,6.72-3.47,11.77-8.51,16.16-8.09,7.05-16.22,14.15-23.48,22.01-3.46,3.75-5.28,9.18-7.21,14.09-1.28,3.26.36,5.52,4.1,6.32,8.87,1.89,17.65,4.19,26.53,6.05,5.96,1.25,11.89,1.63,16.16-4.17.52-.71,1.4-1.29,2.23-1.62,14.77-5.89,18.84-18.5,18.76-32.43-.12-21.43-1.31-42.87-2.46-64.28-1.09-20.3-2.93-40.57-4.04-60.87-.94-17.13.35-34.07,7.61-49.96,1.24-2.73,3.43-5.34,5.85-7.08,1.37-.98,4.67-.91,6.11.1,8.35,5.9,8.39,6.09,4.92,15.97-5.43,15.47-6.72,31.38-5.85,47.63.7,13.11.67,26.25,1.5,39.35.68,10.67,2.4,21.28,3.26,31.94,1.81,22.52,3.74,45.13-1.47,67.42-2.35,10.05-6.7,19.35-17.52,23.54-1.85.72-3.59,2.05-5.01,3.48-10.04,10.14-21.98,8.73-34.27,5.97-8.27-1.86-16.55-3.88-24.94-5.02-13.9-1.89-23.69-12.45-20.94-24.87,1.69-7.61,5.24-14.91,8.66-22.01,2.4-4.97,2.69-6.1-2.86-6.88-13.44-1.88-23.63-10.24-34.22-17.28-9.48-6.3-13.8-16.19-11.56-28.08,2.35-12.49,6.32-23.87,14.71-34.17,8.89-10.92,12.3-24.93,13.8-38.83,1.74-16.01,2.16-32.17,3.42-48.24.57-7.19,1.02-14.55,3-21.41,1.52-5.27,5.42-9.84,8.1-14.81.96-1.78,2.47-4.19,1.95-5.69-4.78-13.82-9.23-27.83-15.23-41.13-4.76-10.54-11.73-20.07-17.43-30.22-6.33-11.27-12.51-22.64-18.44-34.13-8.31-16.08-10.58-33.8-12.93-51.39-1.52-11.33-1.91-22.8-3.17-34.17-.84-7.59.49-14.73,3.03-21.77,3.66-10.15,2.63-19.29-4.52-27.95-7.76-9.39-10-21.01-10.01-32.81,0-10.93,7.43-16.82,18.28-15.68,5.82.61,7.33,3.43,4.25,8.31-5.9,9.36-2.03,18.32,1.31,27.09,1.6,4.21,4.65,7.87,7.85,13.1ZM165.51,612.75c-.65,1.99-1.55,3.77-1.78,5.64-.84,6.62-1.51,13.25-2.13,19.9-1.83,19.72-3.09,39.51-5.59,59.14-1.69,13.32-7.33,25.51-14.17,37.13-3.7,6.29-7.36,12.79-9.69,19.66-3.48,10.27-.22,15.06,10.02,18.29,9.83,3.1,18.89,7.65,25.08,16.4,1.54,2.18,2.81,4.54,5.05,8.21,6.27-6.69,11.75-12.95,17.7-18.72,3.64-3.53,5.08-7.43,5.11-12.35.15-26.58-3.28-52.72-8.54-78.74-3.84-19-8.73-37.98-6.22-57.73.18-1.41-.54-3.39-1.55-4.4-3.99-4.03-8.27-7.78-13.28-12.41Z"/>
  <path d="M351.46,760.85c1.12-.57,1.59-.83,2.08-1.06,7.3-3.32,10.8-7.6,6.18-16.06-1.12-2.05,1.43-7.16,3.69-9.5,1.01-1.05,6.06.52,8.31,2.2,8.51,6.34,7.54,14.76-1.89,19.97-.63.35-1.17.86-1.89,1.39,1.13,5.18,4.17,11.43-1.34,14.84-6.54,4.05-10.38-2.4-14.28-6.76-.53.23-1.06.47-1.59.7.81,3.57,1.12,7.34,2.5,10.66,5.32,12.8,11.27,25.34,16.37,38.23,2.15,5.44,3.05,11.43,4.02,17.25.75,4.52-3.35,10.32-7.84,12.34-4.2,1.88-8.35,3.88-12.49,5.88-6.95,3.36-13.91,5.86-21.89,3.48-3.69-1.1-7.77-1.96-11.53-1.54-17.4,1.93-36.37-22.3-37.96-36.48-1.34-11.93-3.75-23.73-5.13-35.66-.57-4.9.76-9.99.46-14.95-.52-8.64-1.16-17.31-2.6-25.83-1.88-11.12-4.5-22.04-2.25-33.48,2.21-11.28.18-22.49-1.73-33.63-.16-.91-.56-1.81-.55-2.72.04-3.68-1.77-8.15,3.59-9.82,3.61-1.12,9.83,1.99,11.5,5.94,1.29,3.05,2.27,6.29,2.95,9.54,2.76,13.27,4.12,26.53,3.21,40.26-.7,10.56,1.72,21.33,2.67,32.01.77,8.65,2.49,17.39,1.88,25.95-1.16,16.23,3.45,31.6,5.47,47.34,1.19,9.31,9.24,11.45,16.57,13.4,9.07,2.41,18.05,2.55,26.85-2.15,6.93-3.69,9.15-7.73,6.22-15.26-3.97-10.18-7.96-20.36-12.35-30.36-4.86-11.07-6.45-22.7-7.24-34.6-1.1-16.63-3.07-33.22-3.52-49.85-.47-17.02.59-34.08.69-51.13.05-8.51-.64-17.03-.77-25.54-.06-3.86,0-7.83.79-11.58,1.12-5.35,2.51-5.06,7.84-3.64,8.23,2.2,8.92,7.56,8.94,14.7.06,27.4.22,54.81,1.12,82.19.55,16.81,2.51,33.58,3.88,50.36.07.87.58,1.7,1.03,2.99Z"/>
  <path d="M234.52,516.25c-18.92-2.18-36.8-4.35-52.23-14.87-7.32-4.99-14.57-10.12-21.55-15.57-1.4-1.09-1.91-3.91-1.9-5.93,0-.9,2.22-2.04,3.62-2.63,4.7-1.99,8.53.14,12.37,2.72,7.06,4.74,13.81,10.3,21.49,13.71,17.97,7.97,36.36,9.38,54.47-.27,1.62-.87,3.36-1.81,5.14-2.06,17.73-2.47,27.65-15.29,37.38-28.24,3.21-4.27,5.83-8.99,8.59-13.59,6.23-10.37,15.42-17.37,25.94-22.81,4.96-2.57,8.28,1.01,10.98,4.07,2.72,3.08-.26,5.67-2.58,7.3-15.18,10.66-22.9,27.36-34.02,41.32-9.25,11.61-19.38,21.99-35.47,24.89-9.1,1.64-17.6,6.56-26.38,9.96-2.2.85-4.46,1.52-5.86,2Z"/>
  <path d="M220.28,203.74c18.66,2.74,43.61,1.84,66.92,11.41,13.99,5.75,28.17,11.04,42.14,16.83,1.8.75,2.88,3.25,4.3,4.94-2.29,1.21-4.47,3.13-6.88,3.5-11.34,1.71-21.33-3.6-31.62-6.92-17.9-5.79-35.49-12.7-54.8-12.17-3.49.1-7.07-.24-10.5-.92-20.44-4.04-40.07-.26-59.38,6.12-5.24,1.73-10.07,4.77-15.37,6.18-3.29.88-7.19.22-10.59-.64-.86-.22-1.92-4.81-1.07-5.74,3.29-3.61,6.87-7.38,11.13-9.59,18.77-9.76,38.98-13.62,65.74-12.99Z"/>
  <path d="M305.46,347.57c-5.57-.79-8.7-2.96-11.9-7.21-7.09-9.42-15.23-18.06-22.96-27-7.38-8.54-14.91-16.96-22.06-25.68-1.19-1.45-1.81-4.98-.9-6.18,1.91-2.51,4.99-5.69,7.65-5.76,6.03-.14,10.9,2.97,15.02,7.98,10.93,13.27,22.39,26.09,33.83,38.92.81.91,3.41,1.04,4.72.48,1.77-.76,3.24-2.42,4.59-3.92,7.78-8.7,15.53-17.43,23.19-26.24,1.68-1.93,3.13-4.11,4.37-6.35,3.51-6.35,15.3-7.03,19.13-.88.76,1.22,1.03,3.44.45,4.69-1.61,3.47-3.34,7.05-5.81,9.91-12.2,14.11-24.42,28.23-37.22,41.8-2.8,2.97-8,3.69-12.1,5.44Z"/>
  <path d="M439.6,711.64c4.91,0,13.34-.79,21.56.2,10.36,1.24,20.56,3.89,30.82,6,5.23,1.07,10.4,2.55,15.67,3.36,5.48.84,14.41,8.27,15.59,13.63.98,4.49-2.06,5.89-5.43,5.72-5.89-.29-12.3,0-17.51-2.23-15.98-6.83-32.56-8.02-49.54-7.77-10.17.15-20.43.47-30.5-.62-11.87-1.29-22.76,2.25-33.87,4.87-6.7,1.58-9.49.82-12.66-5.29-.09-.16-.15-.34-.24-.5-4.96-9.81-3.66-12.12,7.33-13.72,3.24-.47,6.35-1.78,9.58-2.39,5.43-1.03,10.9-2.51,16.36-2.56,9.8-.1,19.62.72,32.85,1.31Z"/>
  <path d="M222.48,422.27c8.19,1.83,18.99,4.14,29.74,6.7,3.12.74,5.78,1.67,2.24,5.93-1.6,1.93-.95,5.97-.82,9.03.18,4.13-.91,6.6-5.08,8.61-7.44,3.57-14.7,7.75-21.42,12.53-7.96,5.66-16.3,3.87-24.53,2.21-1.55-.31-3.08-4.82-3.15-7.43-.13-4.43-.52-8.25-3.9-11.65-1.28-1.28-1.3-4.05-1.44-6.17-.19-2.94.39-5.96.01-8.87-.71-5.41,2.61-7.64,6.82-8.41,6.13-1.13,12.41-1.48,21.54-2.48Z"/>
  <path d="M278.39,390.53c-2.12-.46-3.44-.56-4.61-1.04-7.8-3.21-15.58-6.49-23.36-9.78-6.2-2.62-10.01-8.5-9.63-14.8.38-6.37,4.86-10.08,10.91-8.27,10.78,3.22,21.47,6.79,32.06,10.61,2.84,1.03,5.92,2.98,7.57,5.41,5.49,8.08,6.14,10.78-2.65,14.36-3.56,1.45-7.28,2.49-10.3,3.51Z"/>
  <path d="M120.09,239.43c4.68.65,8.23.85,11.6,1.75,1.49.4,3.54,2.12,3.65,3.4.12,1.39-1.37,3.52-2.75,4.31-2.86,1.64-6.06,2.72-9.19,3.84-12.51,4.47-21.56,12.97-28.84,23.85-1.33,1.98-4.7,3.89-6.94,3.69-4.14-.37-8.68-6.92-7.93-10.69.56-2.81,1.43-6.28,3.42-7.97,8.11-6.85,16.43-13.55,25.28-19.39,3.42-2.26,8.45-2.09,11.7-2.79Z"/>
  <path d="M193.21,369.08c-1.02,1.5-2,4.09-3.88,5.45-6.22,4.51-12.65,8.76-19.22,12.74-4.06,2.46-8.37,4.73-12.87,6.16-2.02.64-5.42-.28-6.95-1.77-1.25-1.22-1.56-4.83-.66-6.51,1.74-3.24,4.4-6.09,7.08-8.69,5-4.86,10.54-9.18,15.39-14.18,5.52-5.7,17.12-4.16,20.35,3.1.36.82.38,1.79.76,3.7Z"/>
  <path d="M380.5,807.35c-4.32-1.85-7.92-2.95-10.92-4.95-.99-.66-.55-3.65-.49-5.57.02-.53,1.01-1.01,1.53-1.53,9.95-10.01,10.51-10.06,19.66.22.94,1.05,1.45,4.16.82,4.66-3.35,2.71-7.12,4.9-10.6,7.17Z"/>
  <path d="M418.57,806.14c-4.95-1.51-9.53-2.47-13.65-4.42-1.37-.65-2.54-4.11-2.06-5.8,1.46-5.11,9.66-7.32,13.75-4.01,2.13,1.72,4.33,3.52,5.9,5.71,1.06,1.48,2.04,4.26,1.34,5.45-.92,1.56-3.52,2.13-5.28,3.06Z"/>
</svg>